{
.appVersion = "1141";
DisplayStrings = (
"/boBaimai-thai/maiEk-thai/boBaimai-thai/maiTho-thai/boBaimai-thai/maiTri-thai/boBaimai-thai/thanthakhat-thai/boBaimai-thai/maiChattawa-thai/poPla-thai/maiEk-thai/poPla-thai/maiTho-thai/poPla-thai/maiTri-thai/poPla-thai/maiChattawa-thai/poPla-thai/thanthakhat-thai/boBaimai-thai/saraIi-thai/maiEk-thai/boBaimai-thai/saraIi-thai/maiTho-thai/boBaimai-thai/saraIi-thai/maiTri-thai/boBaimai-thai/saraIi-thai/maiChattawa-thai/boBaimai-thai/saraI-thai/thanthakhat-thai/poPla-thai/maiHanaKat-thai/foFa-thai/maiHanaKat-thai",
"ABCDEFGHIJKLMN\012OPQRSTUVWXYZ\012abcdefghijklmnop\012qrstuvwxyz/foFan-thai/hoHip-thai/koKai-thai/doDek-thai/saraAa-thai/soSua-thai/woWaen-thai/ngoNgu-thai",
"Section 1.10.32 of \"de Finibus Bonorum et Malorum\", written by Cicero in 45 BC 1914 translation by H. Rackham"
);
copyright = "Copyright (c) 2018 by Cadson Demak Co.,Ltd.. All rights reserved.";
customParameters = (
{
name = vendorID;
value = CDK;
},
{
name = description;
value = "Copyright (c) 2018, Cadson Demak (info@cadsondemak.com)";
},
{
name = license;

glyphs = (
{
glyphname = A;
lastChange = "2018-06-30 15:09:54 +0000";
layers = (
{
anchors = (
{
name = bottom;
position = "{369, 0}";
},
{
name = ogonek;
position = "{666, 10}";
},
{
name = top;
position = "{369, 700}";
}
);
layerId = "0B1DFD06-3317-40CA-B510-4969A0718C16";
paths = (
{
closed = 1;
nodes = (
"45 0 LINE",
"365 629 LINE",
"660 0 LINE",
"731 0 LINE",
"388 710 LINE",
"371 710 LINE",
"6 0 LINE"
);
},
{
closed = 1;
nodes = (
"607 186 LINE",
"590 224 LINE",
"142 224 LINE",
"121 186 LINE"
);
}
);
width = 737;
},
{
anchors = (
{
name = bottom;
position = "{422, 0}";
},
{
name = ogonek;
position = "{761, 10}";
},
{
name = top;
position = "{432, 700}";
}
);
layerId = "B1D894FD-A198-4769-A706-4BE987327F96";
paths = (
{
closed = 1;
nodes = (
"131 0 LINE",
"398 552 LINE",
"656 0 LINE",
"829 0 LINE",
"486 710 LINE",
"377 710 LINE",
"13 0 LINE"
);
},
{
closed = 1;
nodes = (
"709 177 LINE",
"683 239 LINE",
"157 239 LINE",
"125 177 LINE"
);
}
);
width = 842;
},
{
anchors = (
{
name = bottom;
position = "{390, 0}";
},
{
name = ogonek;
position = "{704, 10}";
},
{
name = top;
position = "{394, 700}";
}
);
layerId = "BE5CE17C-12A9-439B-ACA7-F5E3A6230453";
paths = (
{
closed = 1;
nodes = (
"79 0 LINE",
"378 598 LINE",
"658 0 LINE",
"770 0 LINE",
"427 710 LINE",
"373 710 LINE",
"9 0 LINE"
);
},
{
closed = 1;
nodes = (
"648 182 LINE",
"627 230 LINE",
"148 230 LINE",
"123 182 LINE"
);
}
);
width = 779;
},
{
anchors = (
{
name = bottom;
position = "{379, 0}";
},
{
name = ogonek;
position = "{720, 10}";
},
{
name = top;
position = "{512, 700}";
}
);
layerId = "536A25D8-98D8-4772-902A-7D06861A7581";
paths = (
{
closed = 1;
nodes = (
"88 0 LINE",
"452 552 LINE",
"613 0 LINE",
"786 0 LINE",
"568 710 LINE",
"459 710 LINE",
"-30 0 LINE"
);
},
{
closed = 1;
nodes = (
"697 177 LINE",
"682 239 LINE",
"156 239 LINE",
"113 177 LINE"
);
}
);
width = 842;
},
{
anchors = (
{
name = bottom;
position = "{347, 0}";
},
{
name = ogonek;
position = "{663, 10}";
},
{
name = top;
position = "{474, 700}";
}
);
layerId = "31528353-E0C9-4B78-80EF-CA052B4026B6";
paths = (
{
closed = 1;
nodes = (
"36 0 LINE",
"440 598 LINE",
"615 0 LINE",
"727 0 LINE",
"509 710 LINE",
"455 710 LINE",
"-34 0 LINE"
);
},
{
closed = 1;
nodes = (
"637 182 LINE",
"625 230 LINE",
"146 230 LINE",
"112 182 LINE"
);
}
);
width = 779;
},
{
anchors = (
{
name = bottom;
position = "{326, 0}";
},
{
name = ogonek;
position = "{625, 10}";
},
{
name = top;
position = "{449, 700}";
}
);
layerId = "D606CACE-2ACC-4371-B5A0-4D0D9ADC55EB";
paths = (
{
closed = 1;
nodes = (
"2 0 LINE",
"433 629 LINE",
"617 0 LINE",
"688 0 LINE",
"470 710 LINE",
"453 710 LINE",
"-37 0 LINE"
);
},
{
closed = 1;
nodes = (
"597 186 LINE",
"586 224 LINE",
"138 224 LINE",
"111 186 LINE"
);
}
);
width = 737;
}
);
leftKerningGroup = A;
note = A;
rightKerningGroup = A;
unicode = 0041;
},
{
glyphname = B;
lastChange = "2018-06-30 15:09:54 +0000";
layers = (
{
anchors = (
{
name = bottom;
position = "{359, 0}";
},
{
name = top;
position = "{359, 700}";
}
);
layerId = "0B1DFD06-3317-40CA-B510-4969A0718C16";
paths = (
{
closed = 1;
nodes = (
"408 0 LINE SMOOTH",
"586 0 OFFCURVE",
"681 64 OFFCURVE",
"681 186 CURVE SMOOTH",
"681 298 OFFCURVE",
"608 351 OFFCURVE",
"430 365 CURVE",
"553 373 OFFCURVE",
"639 444 OFFCURVE",
"639 538 CURVE SMOOTH",
"639 640 OFFCURVE",
"543 700 OFFCURVE",
"383 700 CURVE SMOOTH",
"76 700 LINE",
"76 0 LINE"
);
},
{
closed = 1;
nodes = (
"136 344 LINE",
"339 344 LINE SMOOTH",
"528 344 OFFCURVE",
"621 293 OFFCURVE",
"621 191 CURVE SMOOTH",
"621 96 OFFCURVE",
"544 38 OFFCURVE",
"418 38 CURVE SMOOTH",
"136 38 LINE"
);
},
{
closed = 1;
nodes = (
"136 662 LINE",
"348 662 LINE SMOOTH",
"507 662 OFFCURVE",
"579 621 OFFCURVE",
"579 532 CURVE SMOOTH",
"579 435 OFFCURVE",
"497 382 OFFCURVE",
"345 382 CURVE SMOOTH",
"136 382 LINE"
);
}
);
width = 717;
},
{
anchors = (
{
name = bottom;
position = "{401, 0}";
},
{
name = top;
position = "{401, 700}";
}
);
layerId = "B1D894FD-A198-4769-A706-4BE987327F96";
paths = (
{
closed = 1;
nodes = (
"449 0 LINE SMOOTH",
"653 0 OFFCURVE",
"768 70 OFFCURVE",
"768 192 CURVE SMOOTH",
"768 313 OFFCURVE",
"654 352 OFFCURVE",
"560 366 CURVE",
"661 395 OFFCURVE",
"727 457 OFFCURVE",
"727 533 CURVE SMOOTH",
"727 633 OFFCURVE",
"605 700 OFFCURVE",
"425 700 CURVE SMOOTH",
"72 700 LINE",
"72 0 LINE"
);
},
{
closed = 1;
nodes = (
"242 332 LINE",
"382 332 LINE SMOOTH",
"521 332 OFFCURVE",
"598 285 OFFCURVE",
"598 197 CURVE SMOOTH",
"598 107 OFFCURVE",
"548 62 OFFCURVE",
"459 62 CURVE SMOOTH",
"242 62 LINE"
);
},
{
closed = 1;
nodes = (
"242 638 LINE",
"391 638 LINE SMOOTH",
"496 638 OFFCURVE",
"559 600 OFFCURVE",
"559 527 CURVE SMOOTH",
"559 439 OFFCURVE",
"496 394 OFFCURVE",
"388 394 CURVE SMOOTH",
"242 394 LINE"
);
}
);
width = 800;
},
{
anchors = (
{
name = bottom;
position = "{376, 0}";
},
{
name = top;
position = "{376, 700}";
}
);
layerId = "BE5CE17C-12A9-439B-ACA7-F5E3A6230453";
paths = (
{
closed = 1;
nodes = (
"424 0 LINE SMOOTH",
"613 0 OFFCURVE",
"716 66 OFFCURVE",
"716 188 CURVE SMOOTH",
"716 304 OFFCURVE",
"626 351 OFFCURVE",
"482 365 CURVE",
"596 382 OFFCURVE",
"674 449 OFFCURVE",
"674 536 CURVE SMOOTH",
"674 637 OFFCURVE",
"568 700 OFFCURVE",
"400 700 CURVE SMOOTH",
"74 700 LINE",
"74 0 LINE"
);
},
{
closed = 1;
nodes = (
"178 339 LINE",
"356 339 LINE SMOOTH",
"525 339 OFFCURVE",
"612 290 OFFCURVE",
"612 193 CURVE SMOOTH",
"612 100 OFFCURVE",
"546 48 OFFCURVE",
"434 48 CURVE SMOOTH",
"178 48 LINE"
);
},
{
closed = 1;
nodes = (
"178 652 LINE",
"365 652 LINE SMOOTH",
"503 652 OFFCURVE",
"571 613 OFFCURVE",
"571 530 CURVE SMOOTH",
"571 437 OFFCURVE",
"497 387 OFFCURVE",
"362 387 CURVE SMOOTH",
"178 387 LINE"
);
}
);
width = 750;
},
{
anchors = (
{
name = bottom;
position = "{358, 0}";
},
{
name = top;
position = "{481, 700}";
}
);
layerId = "536A25D8-98D8-4772-902A-7D06861A7581";
paths = (
{
closed = 1;
nodes = (
"406 0 LINE SMOOTH",
"625 0 OFFCURVE",
"762 85 OFFCURVE",
"762 222 CURVE SMOOTH",
"762 319 OFFCURVE",
"665 353 OFFCURVE",
"582 366 CURVE",
"701 399 OFFCURVE",
"780 473 OFFCURVE",
"780 554 CURVE SMOOTH",
"780 642 OFFCURVE",
"672 700 OFFCURVE",
"505 700 CURVE SMOOTH",
"152 700 LINE",
"29 0 LINE"
);
},
{
closed = 1;
nodes = (
"258 332 LINE",
"398 332 LINE SMOOTH",
"524 332 OFFCURVE",
"592 293 OFFCURVE",
"592 220 CURVE SMOOTH",
"592 127 OFFCURVE",
"525 62 OFFCURVE",
"427 62 CURVE SMOOTH",
"210 62 LINE"
);
},
{
closed = 1;
nodes = (
"311 638 LINE",
"460 638 LINE SMOOTH",
"555 638 OFFCURVE",
"611 607 OFFCURVE",
"611 547 CURVE SMOOTH",
"611 455 OFFCURVE",
"532 394 OFFCURVE",
"414 394 CURVE SMOOTH",
"268 394 LINE"
);
}
);
width = 800;
},
{
anchors = (
{
name = bottom;
position = "{333, 0}";
},
{
name = top;
position = "{456, 700}";
}
);
layerId = "31528353-E0C9-4B78-80EF-CA052B4026B6";
paths = (
{
closed = 1;
nodes = (
"381 0 LINE SMOOTH",
"586 0 OFFCURVE",
"709 83 OFFCURVE",
"709 221 CURVE SMOOTH",
"709 312 OFFCURVE",
"633 352 OFFCURVE",
"503 365 CURVE",
"634 384 OFFCURVE",
"728 466 OFFCURVE",
"728 560 CURVE SMOOTH",
"728 647 OFFCURVE",
"634 700 OFFCURVE",
"480 700 CURVE SMOOTH",
"154 700 LINE",
"31 0 LINE"
);
},
{
closed = 1;
nodes = (
"195 339 LINE",
"373 339 LINE SMOOTH",
"527 339 OFFCURVE",
"605 298 OFFCURVE",
"605 218 CURVE SMOOTH",
"605 117 OFFCURVE",
"522 48 OFFCURVE",
"399 48 CURVE SMOOTH",
"143 48 LINE"
);
},
{
closed = 1;
nodes = (
"250 652 LINE",
"437 652 LINE SMOOTH",
"561 652 OFFCURVE",
"624 620 OFFCURVE",
"624 553 CURVE SMOOTH",
"624 451 OFFCURVE",
"533 387 OFFCURVE",
"387 387 CURVE SMOOTH",
"203 387 LINE"
);
}
);
width = 750;
},
{
anchors = (
{
name = bottom;
position = "{316, 0}";
},
{
name = top;
position = "{439, 700}";
}
);
layerId = "D606CACE-2ACC-4371-B5A0-4D0D9ADC55EB";
paths = (
{
closed = 1;
nodes = (
"365 0 LINE SMOOTH",
"559 0 OFFCURVE",
"674 82 OFFCURVE",
"674 223 CURVE SMOOTH",
"674 312 OFFCURVE",
"602 353 OFFCURVE",
"451 365 CURVE",
"591 374 OFFCURVE",
"693 462 OFFCURVE",
"693 564 CURVE SMOOTH",
"693 650 OFFCURVE",
"609 700 OFFCURVE",
"463 700 CURVE SMOOTH",
"156 700 LINE",
"33 0 LINE"
);
},
{
closed = 1;
nodes = (
"154 344 LINE",
"357 344 LINE SMOOTH",
"528 344 OFFCURVE",
"614 302 OFFCURVE",
"614 217 CURVE SMOOTH",
"614 111 OFFCURVE",
"518 38 OFFCURVE",
"382 38 CURVE SMOOTH",
"100 38 LINE"
);
},
{
closed = 1;
nodes = (
"210 662 LINE",
"422 662 LINE SMOOTH",
"551 662 OFFCURVE",
"632 635 OFFCURVE",
"632 556 CURVE SMOOTH",
"632 448 OFFCURVE",
"533 382 OFFCURVE",
"369 382 CURVE SMOOTH",
"160 382 LINE"
);
}
);
width = 717;
}
);
note = B;
unicode = 0042;
},
{
glyphname = C;
lastChange = "2018-06-30 16:04:58 +0000";
layers = (
{
anchors = (
{
name = bottom;
position = "{407, 0}";
},
{
name = top;
position = "{407, 700}";
}
);
background = {
paths = (
{
closed = 1;
nodes = (
"581 -10 OFFCURVE",
"707 77 OFFCURVE",
"733 215 CURVE",
"672 215 LINE",
"648 98 OFFCURVE",
"548 24 OFFCURVE",
"414 24 CURVE SMOOTH",
"228 24 OFFCURVE",
"116 142 OFFCURVE",
"116 353 CURVE SMOOTH",
"116 561 OFFCURVE",
"227 676 OFFCURVE",
"412 676 CURVE SMOOTH",
"547 676 OFFCURVE",
"648 602 OFFCURVE",
"672 485 CURVE",
"733 485 LINE",
"707 623 OFFCURVE",
"581 710 OFFCURVE",
"407 710 CURVE SMOOTH",
"187 710 OFFCURVE",
"56 582 OFFCURVE",
"56 353 CURVE SMOOTH",
"56 120 OFFCURVE",
"187 -10 OFFCURVE",
"409 -10 CURVE SMOOTH"
);
}
);
};
layerId = "0B1DFD06-3317-40CA-B510-4969A0718C16";
paths = (
{
closed = 1;
nodes = (
"581 -10 OFFCURVE",
"707 77 OFFCURVE",
"733 215 CURVE",
"672 215 LINE",
"648 99 OFFCURVE",
"550 28 OFFCURVE",
"414 28 CURVE SMOOTH",
"224 28 OFFCURVE",
"116 146 OFFCURVE",
"116 353 CURVE SMOOTH",
"116 557 OFFCURVE",
"223 672 OFFCURVE",
"412 672 CURVE SMOOTH",
"549 672 OFFCURVE",
"648 600 OFFCURVE",
"672 485 CURVE",
"733 485 LINE",
"707 623 OFFCURVE",
"581 710 OFFCURVE",
"407 710 CURVE SMOOTH",
"184 710 OFFCURVE",
"56 579 OFFCURVE",
"56 353 CURVE SMOOTH",
"56 122 OFFCURVE",
"185 -10 OFFCURVE",
"409 -10 CURVE SMOOTH"
);
}
);
width = 773;
},
{
anchors = (
{
name = bottom;
position = "{451, 0}";
},
{
name = top;
position = "{451, 700}";
}
);
background = {
paths = (
{
closed = 1;
nodes = (
"582 -10 OFFCURVE",
"708 77 OFFCURVE",
"734 215 CURVE",
"673 215 LINE",
"649 98 OFFCURVE",
"549 24 OFFCURVE",
"415 24 CURVE SMOOTH",
"229 24 OFFCURVE",
"117 142 OFFCURVE",
"117 353 CURVE SMOOTH",
"117 561 OFFCURVE",
"228 676 OFFCURVE",
"413 676 CURVE SMOOTH",
"548 676 OFFCURVE",
"649 602 OFFCURVE",
"673 485 CURVE",
"734 485 LINE",
"708 623 OFFCURVE",
"582 710 OFFCURVE",
"408 710 CURVE SMOOTH",
"188 710 OFFCURVE",
"57 582 OFFCURVE",
"57 353 CURVE SMOOTH",
"57 120 OFFCURVE",
"188 -10 OFFCURVE",
"410 -10 CURVE SMOOTH"
);
}
);
};
layerId = "B1D894FD-A198-4769-A706-4BE987327F96";
paths = (
{
closed = 1;
nodes = (
"672 -10 OFFCURVE",
"801 74 OFFCURVE",
"821 230 CURVE",
"688 230 LINE",
"666 114 OFFCURVE",
"585 52 OFFCURVE",
"456 52 CURVE SMOOTH",
"307 52 OFFCURVE",
"226 157 OFFCURVE",
"226 353 CURVE SMOOTH",
"226 545 OFFCURVE",
"306 648 OFFCURVE",
"455 648 CURVE SMOOTH",
"584 648 OFFCURVE",
"666 586 OFFCURVE",
"688 470 CURVE",
"821 470 LINE",
"801 626 OFFCURVE",
"673 710 OFFCURVE",
"450 710 CURVE SMOOTH",
"192 710 OFFCURVE",
"54 585 OFFCURVE",
"54 353 CURVE SMOOTH",
"54 117 OFFCURVE",
"193 -10 OFFCURVE",
"452 -10 CURVE SMOOTH"
);
}
);
width = 857;
},
{
anchors = (
{
name = bottom;
position = "{425, 0}";
},
{
name = top;
position = "{425, 700}";
}
);
layerId = "BE5CE17C-12A9-439B-ACA7-F5E3A6230453";
paths = (
{
closed = 1;
nodes = (
"617 -10 OFFCURVE",
"745 76 OFFCURVE",
"768 221 CURVE",
"678 221 LINE",
"655 105 OFFCURVE",
"564 38 OFFCURVE",
"431 38 CURVE SMOOTH",
"257 38 OFFCURVE",
"160 150 OFFCURVE",
"160 353 CURVE SMOOTH",
"160 552 OFFCURVE",
"256 662 OFFCURVE",
"429 662 CURVE SMOOTH",
"563 662 OFFCURVE",
"655 594 OFFCURVE",
"678 479 CURVE",
"768 479 LINE",
"745 624 OFFCURVE",
"618 710 OFFCURVE",
"424 710 CURVE SMOOTH",
"187 710 OFFCURVE",
"55 581 OFFCURVE",
"55 353 CURVE SMOOTH",
"55 120 OFFCURVE",
"188 -10 OFFCURVE",
"426 -10 CURVE SMOOTH"
);
}
);
width = 807;
},
{
anchors = (
{
name = bottom;
position = "{408, 0}";
},
{
name = top;
position = "{531, 700}";
}
);
background = {
paths = (
{
closed = 1;
nodes = (
"582 -10 OFFCURVE",
"708 77 OFFCURVE",
"734 215 CURVE",
"673 215 LINE",
"649 98 OFFCURVE",
"549 24 OFFCURVE",
"415 24 CURVE SMOOTH",
"229 24 OFFCURVE",
"117 142 OFFCURVE",
"117 353 CURVE SMOOTH",
"117 561 OFFCURVE",
"228 676 OFFCURVE",
"413 676 CURVE SMOOTH",
"548 676 OFFCURVE",
"649 602 OFFCURVE",
"673 485 CURVE",
"734 485 LINE",
"708 623 OFFCURVE",
"582 710 OFFCURVE",
"408 710 CURVE SMOOTH",
"188 710 OFFCURVE",
"57 582 OFFCURVE",
"57 353 CURVE SMOOTH",
"57 120 OFFCURVE",
"188 -10 OFFCURVE",
"410 -10 CURVE SMOOTH"
);
}
);
};
layerId = "536A25D8-98D8-4772-902A-7D06861A7581";
paths = (
{
closed = 1;
nodes = (
"628 -10 OFFCURVE",
"771 74 OFFCURVE",
"819 230 CURVE",
"686 230 LINE",
"643 114 OFFCURVE",
"551 52 OFFCURVE",
"422 52 CURVE SMOOTH",
"300 52 OFFCURVE",
"236 123 OFFCURVE",
"236 256 CURVE SMOOTH",
"236 487 OFFCURVE",
"355 648 OFFCURVE",
"526 648 CURVE SMOOTH",
"655 648 OFFCURVE",
"726 586 OFFCURVE",
"728 470 CURVE",
"861 470 LINE",
"861 626 OFFCURVE",
"755 710 OFFCURVE",
"532 710 CURVE SMOOTH",
"245 710 OFFCURVE",
"65 538 OFFCURVE",
"65 265 CURVE SMOOTH",
"65 86 OFFCURVE",
"183 -10 OFFCURVE",
"407 -10 CURVE SMOOTH"
);
}
);
width = 857;
},
{
anchors = (
{
name = bottom;
position = "{382, 0}";
},
{
name = top;
position = "{506, 700}";
}
);
layerId = "31528353-E0C9-4B78-80EF-CA052B4026B6";
paths = (
{
closed = 1;
nodes = (
"572 -10 OFFCURVE",
"716 76 OFFCURVE",
"764 221 CURVE",
"674 221 LINE",
"631 105 OFFCURVE",
"527 38 OFFCURVE",
"395 38 CURVE SMOOTH",
"249 38 OFFCURVE",
"171 117 OFFCURVE",
"171 263 CURVE SMOOTH",
"171 500 OFFCURVE",
"306 662 OFFCURVE",
"503 662 CURVE SMOOTH",
"636 662 OFFCURVE",
"717 594 OFFCURVE",
"720 479 CURVE",
"810 479 LINE",
"810 624 OFFCURVE",
"700 710 OFFCURVE",
"506 710 CURVE SMOOTH",
"241 710 OFFCURVE",
"66 532 OFFCURVE",
"66 263 CURVE SMOOTH",
"66 87 OFFCURVE",
"176 -10 OFFCURVE",
"381 -10 CURVE SMOOTH"
);
}
);
width = 807;
},
{
anchors = (
{
name = bottom;
position = "{364, 0}";
},
{
name = top;
position = "{488, 700}";
}
);
background = {
paths = (
{
closed = 1;
nodes = (
"581 -10 OFFCURVE",
"707 77 OFFCURVE",
"733 215 CURVE",
"672 215 LINE",
"648 98 OFFCURVE",
"548 24 OFFCURVE",
"414 24 CURVE SMOOTH",
"228 24 OFFCURVE",
"116 142 OFFCURVE",
"116 353 CURVE SMOOTH",
"116 561 OFFCURVE",
"227 676 OFFCURVE",
"412 676 CURVE SMOOTH",
"547 676 OFFCURVE",
"648 602 OFFCURVE",
"672 485 CURVE",
"733 485 LINE",
"707 623 OFFCURVE",
"581 710 OFFCURVE",
"407 710 CURVE SMOOTH",
"187 710 OFFCURVE",
"56 582 OFFCURVE",
"56 353 CURVE SMOOTH",
"56 120 OFFCURVE",
"187 -10 OFFCURVE",
"409 -10 CURVE SMOOTH"
);
}
);
};
layerId = "D606CACE-2ACC-4371-B5A0-4D0D9ADC55EB";
paths = (
{
closed = 1;
nodes = (
"536 -10 OFFCURVE",
"678 77 OFFCURVE",
"728 215 CURVE",
"667 215 LINE",
"623 99 OFFCURVE",
"512 28 OFFCURVE",
"376 28 CURVE SMOOTH",
"215 28 OFFCURVE",
"127 114 OFFCURVE",
"127 266 CURVE SMOOTH",
"127 507 OFFCURVE",
"274 672 OFFCURVE",
"488 672 CURVE SMOOTH",
"625 672 OFFCURVE",
"711 600 OFFCURVE",
"715 485 CURVE",
"776 485 LINE",
"774 623 OFFCURVE",
"663 710 OFFCURVE",
"490 710 CURVE SMOOTH",
"239 710 OFFCURVE",
"67 528 OFFCURVE",
"67 261 CURVE SMOOTH",
"67 88 OFFCURVE",
"172 -10 OFFCURVE",
"365 -10 CURVE SMOOTH"
);
}
);
width = 773;
}
);
leftKerningGroup = C;
note = C;
unicode = 0043;
},
{
glyphname = D;
lastChange = "2018-06-30 15:09:54 +0000";
layers = (
{
anchors = (
{
name = bottom;
position = "{329, 0}";
},
{
name = center;
position = "{385, 350}";
},
{
name = top;
position = "{329, 700}";
}
);
layerId = "0B1DFD06-3317-40CA-B510-4969A0718C16";
paths = (
{
closed = 1;
nodes = (
"335 0 LINE SMOOTH",
"573 0 OFFCURVE",
"713 134 OFFCURVE",
"713 362 CURVE SMOOTH",
"713 584 OFFCURVE",
"581 700 OFFCURVE",
"329 700 CURVE SMOOTH",
"76 700 LINE",
"76 0 LINE"
);
},
{
closed = 1;
nodes = (
"136 662 LINE",
"350 662 LINE SMOOTH",
"549 662 OFFCURVE",
"653 559 OFFCURVE",
"653 362 CURVE SMOOTH",
"653 157 OFFCURVE",
"541 38 OFFCURVE",
"350 38 CURVE SMOOTH",
"136 38 LINE"
);
}
);
width = 769;
},
{
anchors = (
{
name = bottom;
position = "{366, 0}";
},
{
name = center;
position = "{427, 350}";
},
{
name = top;
position = "{366, 700}";
}
);
layerId = "B1D894FD-A198-4769-A706-4BE987327F96";
paths = (
{
closed = 1;
nodes = (
"379 0 LINE SMOOTH",
"653 0 OFFCURVE",
"799 126 OFFCURVE",
"799 362 CURVE SMOOTH",
"799 582 OFFCURVE",
"649 700 OFFCURVE",
"373 700 CURVE SMOOTH",
"73 700 LINE",
"73 0 LINE"
);
},
{
closed = 1;
nodes = (
"243 638 LINE",
"393 638 LINE SMOOTH",
"547 638 OFFCURVE",
"627 542 OFFCURVE",
"627 362 CURVE SMOOTH",
"627 163 OFFCURVE",
"548 62 OFFCURVE",
"393 62 CURVE SMOOTH",
"243 62 LINE"
);
}
);
width = 853;
},
{
anchors = (
{
name = bottom;
position = "{344, 0}";
},
{
name = center;
position = "{402, 350}";
},
{
name = top;
position = "{344, 700}";
}
);
layerId = "BE5CE17C-12A9-439B-ACA7-F5E3A6230453";
paths = (
{
closed = 1;
nodes = (
"353 0 LINE SMOOTH",
"605 0 OFFCURVE",
"747 131 OFFCURVE",
"747 362 CURVE SMOOTH",
"747 583 OFFCURVE",
"608 700 OFFCURVE",
"347 700 CURVE SMOOTH",
"75 700 LINE",
"75 0 LINE"
);
},
{
closed = 1;
nodes = (
"179 652 LINE",
"367 652 LINE SMOOTH",
"548 652 OFFCURVE",
"643 552 OFFCURVE",
"643 362 CURVE SMOOTH",
"643 159 OFFCURVE",
"544 48 OFFCURVE",
"367 48 CURVE SMOOTH",
"179 48 LINE"
);
}
);
width = 803;
},
{
anchors = (
{
name = bottom;
position = "{323, 0}";
},
{
name = center;
position = "{446, 350}";
},
{
name = top;
position = "{446, 700}";
}
);
layerId = "536A25D8-98D8-4772-902A-7D06861A7581";
paths = (
{
closed = 1;
nodes = (
"336 0 LINE SMOOTH",
"635 0 OFFCURVE",
"827 170 OFFCURVE",
"827 435 CURVE SMOOTH",
"827 608 OFFCURVE",
"697 700 OFFCURVE",
"453 700 CURVE SMOOTH",
"153 700 LINE",
"30 0 LINE"
);
},
{
closed = 1;
nodes = (
"312 638 LINE",
"462 638 LINE SMOOTH",
"591 638 OFFCURVE",
"656 571 OFFCURVE",
"656 446 CURVE SMOOTH",
"656 221 OFFCURVE",
"535 62 OFFCURVE",
"361 62 CURVE SMOOTH",
"211 62 LINE"
);
}
);
width = 853;
},
{
anchors = (
{
name = bottom;
position = "{301, 0}";
},
{
name = center;
position = "{421, 350}";
},
{
name = top;
position = "{424, 700}";
}
);
layerId = "31528353-E0C9-4B78-80EF-CA052B4026B6";
paths = (
{
closed = 1;
nodes = (
"310 0 LINE SMOOTH",
"588 0 OFFCURVE",
"775 177 OFFCURVE",
"775 440 CURVE SMOOTH",
"775 610 OFFCURVE",
"656 700 OFFCURVE",
"427 700 CURVE SMOOTH",
"155 700 LINE",
"32 0 LINE"
);
},
{
closed = 1;
nodes = (
"251 652 LINE",
"439 652 LINE SMOOTH",
"592 652 OFFCURVE",
"671 580 OFFCURVE",
"671 442 CURVE SMOOTH",
"671 212 OFFCURVE",
"532 48 OFFCURVE",
"332 48 CURVE SMOOTH",
"144 48 LINE"
);
}
);
width = 803;
},
{
anchors = (
{
name = bottom;
position = "{286, 0}";
},
{
name = center;
position = "{404, 350}";
},
{
name = top;
position = "{409, 700}";
}
);
layerId = "D606CACE-2ACC-4371-B5A0-4D0D9ADC55EB";
paths = (
{
closed = 1;
nodes = (
"292 0 LINE SMOOTH",
"557 0 OFFCURVE",
"741 182 OFFCURVE",
"741 443 CURVE SMOOTH",
"741 612 OFFCURVE",
"628 700 OFFCURVE",
"409 700 CURVE SMOOTH",
"156 700 LINE",
"33 0 LINE"
);
},
{
closed = 1;
nodes = (
"210 662 LINE",
"424 662 LINE SMOOTH",
"594 662 OFFCURVE",
"681 586 OFFCURVE",
"681 442 CURVE SMOOTH",
"681 207 OFFCURVE",
"529 38 OFFCURVE",
"314 38 CURVE SMOOTH",
"100 38 LINE"
);
}
);
width = 769;
}
);
note = D;
rightKerningGroup = D;
unicode = 0044;
},
{
glyphname = E;
lastChange = "2018-06-30 15:09:54 +0000";
layers = (
{
anchors = (
{
name = bottom;
position = "{361, 0}";
},
{
name = ogonek;
position = "{596, 10}";
},
{
name = top;
position = "{361, 700}";
},
{
name = topleft;
position = "{20, 700}";
}
);
layerId = "0B1DFD06-3317-40CA-B510-4969A0718C16";
paths = (
{
closed = 1;
nodes = (
"632 0 LINE",
"632 38 LINE",
"136 38 LINE",
"136 358 LINE",
"574 358 LINE",
"574 394 LINE",
"136 394 LINE",
"136 662 LINE",
"632 662 LINE",
"632 700 LINE",
"76 700 LINE",
"76 0 LINE"
);
}
);
width = 662;
},
{
anchors = (
{
name = bottom;
position = "{407, 0}";
},
{
name = ogonek;
position = "{665, 10}";
},
{
name = top;
position = "{407, 700}";
},
{
name = topleft;
position = "{23, 700}";
}
);
layerId = "B1D894FD-A198-4769-A706-4BE987327F96";
paths = (
{
closed = 1;
nodes = (
"719 0 LINE",
"719 62 LINE",
"242 62 LINE",
"242 344 LINE",
"664 344 LINE",
"664 406 LINE",
"242 406 LINE",
"242 638 LINE",
"719 638 LINE",
"719 700 LINE",
"72 700 LINE",
"72 0 LINE"
);
}
);
width = 745;
},
{
anchors = (
{
name = bottom;
position = "{379, 0}";
},
{
name = ogonek;
position = "{624, 10}";
},
{
name = top;
position = "{379, 700}";
},
{
name = topleft;
position = "{21, 700}";
}
);
layerId = "BE5CE17C-12A9-439B-ACA7-F5E3A6230453";
paths = (
{
closed = 1;
nodes = (
"667 0 LINE",
"667 48 LINE",
"178 48 LINE",
"178 352 LINE",
"610 352 LINE",
"610 399 LINE",
"178 399 LINE",
"178 652 LINE",
"667 652 LINE",
"667 700 LINE",
"74 700 LINE",
"74 0 LINE"
);
}
);
width = 695;
},
{
anchors = (
{
name = bottom;
position = "{364, 0}";
},
{
name = ogonek;
position = "{624, 10}";
},
{
name = top;
position = "{487, 700}";
},
{
name = topleft;
position = "{103, 700}";
}
);
layerId = "536A25D8-98D8-4772-902A-7D06861A7581";
paths = (
{
closed = 1;
nodes = (
"676 0 LINE",
"687 62 LINE",
"210 62 LINE",
"260 344 LINE",
"682 344 LINE",
"693 406 LINE",
"271 406 LINE",
"311 638 LINE",
"788 638 LINE",
"799 700 LINE",
"152 700 LINE",
"29 0 LINE"
);
}
);
width = 745;
},
{
anchors = (
{
name = bottom;
position = "{336, 0}";
},
{
name = ogonek;
position = "{583, 10}";
},
{
name = top;
position = "{459, 700}";
},
{
name = topleft;
position = "{101, 700}";
}
);
layerId = "31528353-E0C9-4B78-80EF-CA052B4026B6";
paths = (
{
closed = 1;
nodes = (
"624 0 LINE",
"632 48 LINE",
"143 48 LINE",
"197 352 LINE",
"629 352 LINE",
"637 399 LINE",
"205 399 LINE",
"250 652 LINE",
"739 652 LINE",
"747 700 LINE",
"154 700 LINE",
"31 0 LINE"
);
}
);
width = 695;
},
{
anchors = (
{
name = bottom;
position = "{318, 0}";
},
{
name = ogonek;
position = "{555, 10}";
},
{
name = top;
position = "{441, 700}";
},
{
name = topleft;
position = "{100, 700}";
}
);
layerId = "D606CACE-2ACC-4371-B5A0-4D0D9ADC55EB";
paths = (
{
closed = 1;
nodes = (
"589 0 LINE",
"596 38 LINE",
"100 38 LINE",
"156 358 LINE",
"594 358 LINE",
"600 394 LINE",
"162 394 LINE",
"210 662 LINE",
"706 662 LINE",
"712 700 LINE",
"156 700 LINE",
"33 0 LINE"
);
}
);
width = 662;
}
);
note = E;
unicode = 0045;
},
{
glyphname = F;
lastChange = "2018-06-30 15:09:54 +0000";
layers = (
{
anchors = (
{
name = bottom;
position = "{311, 0}";
},
{
name = top;
position = "{311, 700}";
}
);
layerId = "0B1DFD06-3317-40CA-B510-4969A0718C16";
paths = (
{
closed = 1;
nodes = (
"136 0 LINE",
"136 358 LINE",
"544 358 LINE",
"544 394 LINE",
"136 394 LINE",
"136 662 LINE",
"612 662 LINE",
"612 700 LINE",
"76 700 LINE",
"76 0 LINE"
);
}
);
width = 622;
},
{
anchors = (
{
name = bottom;
position = "{353, 0}";
},
{
name = top;
position = "{353, 700}";
}
);
layerId = "B1D894FD-A198-4769-A706-4BE987327F96";
paths = (
{
closed = 1;
nodes = (
"242 0 LINE",
"242 344 LINE",
"636 344 LINE",
"636 406 LINE",
"242 406 LINE",
"242 638 LINE",
"702 638 LINE",
"702 700 LINE",
"72 700 LINE",
"72 0 LINE"
);
}
);
width = 707;
},
{
anchors = (
{
name = bottom;
position = "{328, 0}";
},
{
name = top;
position = "{328, 700}";
}
);
layerId = "BE5CE17C-12A9-439B-ACA7-F5E3A6230453";
paths = (
{
closed = 1;
nodes = (
"178 0 LINE",
"178 352 LINE",
"581 352 LINE",
"581 399 LINE",
"178 399 LINE",
"178 652 LINE",
"648 652 LINE",
"648 700 LINE",
"74 700 LINE",
"74 0 LINE"
);
}
);
width = 656;
},
{
anchors = (
{
name = bottom;
position = "{310, 0}";
},
{
name = top;
position = "{433, 700}";
}
);
layerId = "536A25D8-98D8-4772-902A-7D06861A7581";
paths = (
{
closed = 1;
nodes = (
"199 0 LINE",
"260 344 LINE",
"654 344 LINE",
"665 406 LINE",
"271 406 LINE",
"311 638 LINE",
"771 638 LINE",
"782 700 LINE",
"152 700 LINE",
"29 0 LINE"
);
}
);
width = 707;
},
{
anchors = (
{
name = bottom;
position = "{285, 0}";
},
{
name = top;
position = "{408, 700}";
}
);
layerId = "31528353-E0C9-4B78-80EF-CA052B4026B6";
paths = (
{
closed = 1;
nodes = (
"135 0 LINE",
"197 352 LINE",
"600 352 LINE",
"608 399 LINE",
"205 399 LINE",
"250 652 LINE",
"720 652 LINE",
"728 700 LINE",
"154 700 LINE",
"31 0 LINE"
);
}
);
width = 656;
},
{
anchors = (
{
name = bottom;
position = "{268, 0}";
},
{
name = top;
position = "{391, 700}";
}
);
layerId = "D606CACE-2ACC-4371-B5A0-4D0D9ADC55EB";
paths = (
{
closed = 1;
nodes = (
"93 0 LINE",
"156 358 LINE",
"564 358 LINE",
"570 394 LINE",
"162 394 LINE",
"210 662 LINE",
"686 662 LINE",
"692 700 LINE",
"156 700 LINE",
"33 0 LINE"
);
}
);
width = 622;
}
);
note = F;
unicode = 0046;
},
{
glyphname = G;
lastChange = "2018-06-30 16:04:46 +0000";
layers = (
{
anchors = (
{
name = bottom;
position = "{429, 0}";
},
{
name = top;
position = "{419, 700}";
}
);
layerId = "0B1DFD06-3317-40CA-B510-4969A0718C16";
paths = (
{
closed = 1;
nodes = (
"549 -10 OFFCURVE",
"645 19 OFFCURVE",
"727 80 CURVE",
"727 362 LINE",
"418 362 LINE",
"418 326 LINE",
"667 326 LINE",
"667 90 LINE",
"603 49 OFFCURVE",
"522 28 OFFCURVE",
"427 28 CURVE SMOOTH",
"228 28 OFFCURVE",
"116 143 OFFCURVE",
"116 350 CURVE SMOOTH",
"116 552 OFFCURVE",
"225 672 OFFCURVE",
"409 672 CURVE SMOOTH",
"557 672 OFFCURVE",
"654 605 OFFCURVE",
"680 485 CURVE",
"741 485 LINE",
"713 626 OFFCURVE",
"588 710 OFFCURVE",
"406 710 CURVE SMOOTH",
"186 710 OFFCURVE",
"56 576 OFFCURVE",
"56 349 CURVE SMOOTH",
"56 119 OFFCURVE",
"188 -10 OFFCURVE",
"426 -10 CURVE SMOOTH"
);
}
);
width = 797;
},
{
anchors = (
{
name = bottom;
position = "{474, 0}";
},
{
name = top;
position = "{463, 700}";
}
);
layerId = "B1D894FD-A198-4769-A706-4BE987327F96";
paths = (
{
closed = 1;
nodes = (
"608 -10 OFFCURVE",
"743 31 OFFCURVE",
"814 98 CURVE",
"814 371 LINE",
"405 371 LINE",
"405 313 LINE",
"645 313 LINE",
"645 99 LINE",
"582 63 OFFCURVE",
"534 52 OFFCURVE",
"469 52 CURVE SMOOTH",
"317 52 OFFCURVE",
"226 163 OFFCURVE",
"226 350 CURVE SMOOTH",
"226 539 OFFCURVE",
"319 647 OFFCURVE",
"474 647 CURVE SMOOTH",
"594 647 OFFCURVE",
"673 584 OFFCURVE",
"696 470 CURVE",
"829 470 LINE",
"808 618 OFFCURVE",
"673 709 OFFCURVE",
"471 709 CURVE SMOOTH",
"213 709 OFFCURVE",
"54 570 OFFCURVE",
"54 349 CURVE SMOOTH",
"54 128 OFFCURVE",
"213 -10 OFFCURVE",
"468 -10 CURVE SMOOTH"
);
}
);
width = 881;
},
{
anchors = (
{
name = bottom;
position = "{447, 0}";
},
{
name = top;
position = "{437, 700}";
}
);
layerId = "BE5CE17C-12A9-439B-ACA7-F5E3A6230453";
paths = (
{
closed = 1;
nodes = (
"573 -10 OFFCURVE",
"684 24 OFFCURVE",
"762 87 CURVE",
"762 366 LINE",
"413 366 LINE",
"413 321 LINE",
"658 321 LINE",
"658 94 LINE",
"595 55 OFFCURVE",
"527 38 OFFCURVE",
"444 38 CURVE SMOOTH",
"264 38 OFFCURVE",
"160 151 OFFCURVE",
"160 350 CURVE SMOOTH",
"160 547 OFFCURVE",
"263 662 OFFCURVE",
"435 662 CURVE SMOOTH",
"572 662 OFFCURVE",
"662 597 OFFCURVE",
"686 479 CURVE",
"776 479 LINE",
"751 623 OFFCURVE",
"622 710 OFFCURVE",
"432 710 CURVE SMOOTH",
"197 710 OFFCURVE",
"55 574 OFFCURVE",
"55 349 CURVE SMOOTH",
"55 123 OFFCURVE",
"198 -10 OFFCURVE",
"443 -10 CURVE SMOOTH"
);
}
);
width = 831;
},
{
anchors = (
{
name = bottom;
position = "{431, 0}";
},
{
name = top;
position = "{544, 700}";
}
);
layerId = "536A25D8-98D8-4772-902A-7D06861A7581";
paths = (
{
closed = 1;
nodes = (
"562 -10 OFFCURVE",
"706 31 OFFCURVE",
"788 98 CURVE",
"837 371 LINE",
"428 371 LINE",
"417 313 LINE",
"657 313 LINE",
"620 99 LINE",
"550 63 OFFCURVE",
"501 52 OFFCURVE",
"435 52 CURVE SMOOTH",
"308 52 OFFCURVE",
"237 130 OFFCURVE",
"237 266 CURVE SMOOTH",
"237 487 OFFCURVE",
"367 647 OFFCURVE",
"545 647 CURVE SMOOTH",
"665 647 OFFCURVE",
"733 584 OFFCURVE",
"736 470 CURVE",
"869 470 LINE",
"869 618 OFFCURVE",
"755 709 OFFCURVE",
"553 709 CURVE SMOOTH",
"268 709 OFFCURVE",
"66 529 OFFCURVE",
"66 277 CURVE SMOOTH",
"66 98 OFFCURVE",
"198 -10 OFFCURVE",
"423 -10 CURVE SMOOTH"
);
}
);
width = 881;
},
{
anchors = (
{
name = bottom;
position = "{404, 0}";
},
{
name = top;
position = "{517, 700}";
}
);
layerId = "31528353-E0C9-4B78-80EF-CA052B4026B6";
paths = (
{
closed = 1;
nodes = (
"528 -10 OFFCURVE",
"645 24 OFFCURVE",
"734 87 CURVE",
"784 366 LINE",
"435 366 LINE",
"427 321 LINE",
"672 321 LINE",
"632 94 LINE",
"562 55 OFFCURVE",
"491 38 OFFCURVE",
"408 38 CURVE SMOOTH",
"255 38 OFFCURVE",
"171 120 OFFCURVE",
"171 267 CURVE SMOOTH",
"171 495 OFFCURVE",
"312 662 OFFCURVE",
"509 662 CURVE SMOOTH",
"646 662 OFFCURVE",
"724 597 OFFCURVE",
"727 479 CURVE",
"817 479 LINE",
"817 623 OFFCURVE",
"703 710 OFFCURVE",
"514 710 CURVE SMOOTH",
"252 710 OFFCURVE",
"66 527 OFFCURVE",
"66 268 CURVE SMOOTH",
"66 92 OFFCURVE",
"184 -10 OFFCURVE",
"398 -10 CURVE SMOOTH"
);
}
);
width = 831;
},
{
anchors = (
{
name = bottom;
position = "{386, 0}";
},
{
name = top;
position = "{499, 700}";
}
);
layerId = "D606CACE-2ACC-4371-B5A0-4D0D9ADC55EB";
paths = (
{
closed = 1;
nodes = (
"504 -10 OFFCURVE",
"605 19 OFFCURVE",
"698 80 CURVE",
"748 362 LINE",
"439 362 LINE",
"432 326 LINE",
"681 326 LINE",
"640 90 LINE",
"568 49 OFFCURVE",
"484 28 OFFCURVE",
"389 28 CURVE SMOOTH",
"219 28 OFFCURVE",
"127 112 OFFCURVE",
"127 266 CURVE SMOOTH",
"127 502 OFFCURVE",
"276 672 OFFCURVE",
"484 672 CURVE SMOOTH",
"632 672 OFFCURVE",
"717 605 OFFCURVE",
"722 485 CURVE",
"783 485 LINE",
"780 626 OFFCURVE",
"670 710 OFFCURVE",
"488 710 CURVE SMOOTH",
"241 710 OFFCURVE",
"66 524 OFFCURVE",
"66 260 CURVE SMOOTH",
"66 86 OFFCURVE",
"176 -10 OFFCURVE",
"381 -10 CURVE SMOOTH"
);
}
);
width = 797;
}
);
leftKerningGroup = G;
note = G;
unicode = 0047;
},
{
glyphname = H;
lastChange = "2018-06-30 15:09:54 +0000";
layers = (
{
anchors = (
{
name = bottom;
position = "{386, 0}";
},
{
name = center;
position = "{386, 373}";
},
{
name = top;
position = "{386, 700}";
},
{
name = topleft;
position = "{20, 700}";
}
);
layerId = "0B1DFD06-3317-40CA-B510-4969A0718C16";
paths = (
{
closed = 1;
nodes = (
"136 0 LINE",
"136 357 LINE",
"636 357 LINE",
"636 0 LINE",
"696 0 LINE",
"696 700 LINE",
"636 700 LINE",
"636 395 LINE",
"136 395 LINE",
"136 700 LINE",
"76 700 LINE",
"76 0 LINE"
);
}
);
width = 772;
},
{
anchors = (
{
name = bottom;
position = "{428, 0}";
},
{
name = center;
position = "{428, 369}";
},
{
name = top;
position = "{428, 700}";
},
{
name = topleft;
position = "{23, 700}";
}
);
layerId = "B1D894FD-A198-4769-A706-4BE987327F96";
paths = (
{
closed = 1;
nodes = (
"242 0 LINE",
"242 344 LINE",
"613 344 LINE",
"613 0 LINE",
"783 0 LINE",
"783 700 LINE",
"613 700 LINE",
"613 406 LINE",
"242 406 LINE",
"242 700 LINE",
"72 700 LINE",
"72 0 LINE"
);
}
);
width = 855;
},
{
anchors = (
{
name = bottom;
position = "{403, 0}";
},
{
name = center;
position = "{403, 371}";
},
{
name = top;
position = "{403, 700}";
},
{
name = topleft;
position = "{21, 700}";
}
);
layerId = "BE5CE17C-12A9-439B-ACA7-F5E3A6230453";
paths = (
{
closed = 1;
nodes = (
"178 0 LINE",
"178 352 LINE",
"627 352 LINE",
"627 0 LINE",
"731 0 LINE",
"731 700 LINE",
"627 700 LINE",
"627 399 LINE",
"178 399 LINE",
"178 700 LINE",
"74 700 LINE",
"74 0 LINE"
);
}
);
width = 805;
},
{
anchors = (
{
name = bottom;
position = "{385, 0}";
},
{
name = center;
position = "{450, 369}";
},
{
name = top;
position = "{508, 700}";
},
{
name = topleft;
position = "{103, 700}";
}
);
layerId = "536A25D8-98D8-4772-902A-7D06861A7581";
paths = (
{
closed = 1;
nodes = (
"199 0 LINE",
"260 344 LINE",
"631 344 LINE",
"570 0 LINE",
"740 0 LINE",
"863 700 LINE",
"693 700 LINE",
"642 406 LINE",
"271 406 LINE",
"322 700 LINE",
"152 700 LINE",
"29 0 LINE"
);
}
);
width = 855;
},
{
anchors = (
{
name = bottom;
position = "{360, 0}";
},
{
name = center;
position = "{425, 371}";
},
{
name = top;
position = "{483, 700}";
},
{
name = topleft;
position = "{101, 700}";
}
);
layerId = "31528353-E0C9-4B78-80EF-CA052B4026B6";
paths = (
{
closed = 1;
nodes = (
"135 0 LINE",
"197 352 LINE",
"646 352 LINE",
"584 0 LINE",
"688 0 LINE",
"811 700 LINE",
"707 700 LINE",
"654 399 LINE",
"205 399 LINE",
"258 700 LINE",
"154 700 LINE",
"31 0 LINE"
);
}
);
width = 805;
},
{
anchors = (
{
name = bottom;
position = "{343, 0}";
},
{
name = center;
position = "{409, 373}";
},
{
name = top;
position = "{466, 700}";
},
{
name = topleft;
position = "{100, 700}";
}
);
layerId = "D606CACE-2ACC-4371-B5A0-4D0D9ADC55EB";
paths = (
{
closed = 1;
nodes = (
"93 0 LINE",
"156 357 LINE",
"656 357 LINE",
"593 0 LINE",
"653 0 LINE",
"776 700 LINE",
"716 700 LINE",
"663 395 LINE",
"163 395 LINE",
"216 700 LINE",
"156 700 LINE",
"33 0 LINE"
);
}
);
width = 772;
}
);
note = H;
unicode = 0048;
},
{
glyphname = I;
lastChange = "2018-06-30 15:09:54 +0000";
layers = (
{
anchors = (
{
name = bottom;
position = "{150, 0}";
},
{
name = ogonek;
position = "{147, 6}";
},
{
name = top;
position = "{150, 700}";
},
{
name = topleft;
position = "{20, 700}";
}
);
layerId = "0B1DFD06-3317-40CA-B510-4969A0718C16";
paths = (
{
closed = 1;
nodes = (
"180 0 LINE",
"180 700 LINE",
"120 700 LINE",
"120 0 LINE"
);
}
);
width = 300;
},
{
anchors = (
{
name = bottom;
position = "{192, 0}";
},
{
name = ogonek;
position = "{209, 7}";
},
{
name = top;
position = "{192, 700}";
},
{
name = topleft;
position = "{26, 700}";
}
);
layerId = "B1D894FD-A198-4769-A706-4BE987327F96";
paths = (
{
closed = 1;
nodes = (
"277 0 LINE",
"277 700 LINE",
"107 700 LINE",
"107 0 LINE"
);
}
);
width = 384;
},
{
anchors = (
{
name = bottom;
position = "{167, 0}";
},
{
name = ogonek;
position = "{172, 6}";
},
{
name = top;
position = "{167, 700}";
},
{
name = topleft;
position = "{22, 700}";
}
);
layerId = "BE5CE17C-12A9-439B-ACA7-F5E3A6230453";
paths = (
{
closed = 1;
nodes = (
"219 0 LINE",
"219 700 LINE",
"115 700 LINE",
"115 0 LINE"
);
}
);
width = 334;
},
{
anchors = (
{
name = bottom;
position = "{149, 0}";
},
{
name = ogonek;
position = "{167, 7}";
},
{
name = top;
position = "{272, 700}";
},
{
name = topleft;
position = "{106, 700}";
}
);
layerId = "536A25D8-98D8-4772-902A-7D06861A7581";
paths = (
{
closed = 1;
nodes = (
"234 0 LINE",
"357 700 LINE",
"187 700 LINE",
"64 0 LINE"
);
}
);
width = 384;
},
{
anchors = (
{
name = bottom;
position = "{124, 0}";
},
{
name = ogonek;
position = "{130, 6}";
},
{
name = top;
position = "{247, 700}";
},
{
name = topleft;
position = "{102, 700}";
}
);
layerId = "31528353-E0C9-4B78-80EF-CA052B4026B6";
paths = (
{
closed = 1;
nodes = (
"176 0 LINE",
"299 700 LINE",
"195 700 LINE",
"72 0 LINE"
);
}
);
width = 334;
},
{
anchors = (
{
name = bottom;
position = "{107, 0}";
},
{
name = ogonek;
position = "{105, 6}";
},
{
name = top;
position = "{230, 700}";
},
{
name = topleft;
position = "{100, 700}";
}
);
layerId = "D606CACE-2ACC-4371-B5A0-4D0D9ADC55EB";
paths = (
{
closed = 1;
nodes = (
"137 0 LINE",
"260 700 LINE",
"200 700 LINE",
"77 0 LINE"
);
}
);
width = 300;
}
);
note = I;
unicode = 0049;
},
{
glyphname = J;
lastChange = "2018-06-30 16:04:32 +0000";
layers = (
{
anchors = (
{
name = bottom;
position = "{269, 0}";
},
{
name = top;
position = "{325, 700}";
}
);
layerId = "0B1DFD06-3317-40CA-B510-4969A0718C16";
paths = (
{
closed = 1;
nodes = (
"382 -10 OFFCURVE",
"461 68 OFFCURVE",
"461 211 CURVE SMOOTH",
"461 700 LINE",
"401 700 LINE",
"401 190 LINE SMOOTH",
"401 83 OFFCURVE",
"343 27 OFFCURVE",
"237 27 CURVE SMOOTH",
"142 27 OFFCURVE",
"85 72 OFFCURVE",
"81 158 CURVE",
"21 158 LINE",
"30 51 OFFCURVE",
"107 -10 OFFCURVE",
"236 -10 CURVE SMOOTH"
);
}
);
width = 537;
},
{
anchors = (
{
name = bottom;
position = "{312, 0}";
},
{
name = top;
position = "{376, 700}";
}
);
layerId = "B1D894FD-A198-4769-A706-4BE987327F96";
paths = (
{
closed = 1;
nodes = (
"454 -10 OFFCURVE",
"551 68 OFFCURVE",
"551 214 CURVE SMOOTH",
"551 700 LINE",
"382 700 LINE",
"382 194 LINE SMOOTH",
"382 97 OFFCURVE",
"345 52 OFFCURVE",
"279 52 CURVE SMOOTH",
"207 52 OFFCURVE",
"162 85 OFFCURVE",
"160 175 CURVE",
"13 175 LINE",
"15 58 OFFCURVE",
"103 -10 OFFCURVE",
"278 -10 CURVE SMOOTH"
);
}
);
width = 623;
},
{
anchors = (
{
name = bottom;
position = "{286, 0}";
},
{
name = top;
position = "{345, 700}";
}
);
layerId = "BE5CE17C-12A9-439B-ACA7-F5E3A6230453";
paths = (
{
closed = 1;
nodes = (
"411 -10 OFFCURVE",
"497 68 OFFCURVE",
"497 212 CURVE SMOOTH",
"497 700 LINE",
"393 700 LINE",
"393 192 LINE SMOOTH",
"393 89 OFFCURVE",
"344 37 OFFCURVE",
"254 37 CURVE SMOOTH",
"168 37 OFFCURVE",
"116 77 OFFCURVE",
"113 165 CURVE",
"18 165 LINE",
"24 54 OFFCURVE",
"105 -10 OFFCURVE",
"253 -10 CURVE SMOOTH"
);
}
);
width = 571;
},
{
anchors = (
{
name = bottom;
position = "{269, 0}";
},
{
name = top;
position = "{457, 700}";
}
);
layerId = "536A25D8-98D8-4772-902A-7D06861A7581";
paths = (
{
closed = 1;
nodes = (
"409 -10 OFFCURVE",
"520 68 OFFCURVE",
"546 214 CURVE SMOOTH",
"632 700 LINE",
"463 700 LINE",
"373 194 LINE SMOOTH",
"356 97 OFFCURVE",
"310 52 OFFCURVE",
"245 52 CURVE SMOOTH",
"174 52 OFFCURVE",
"148 85 OFFCURVE",
"148 175 CURVE",
"1 175 LINE",
"1 58 OFFCURVE",
"59 -10 OFFCURVE",
"233 -10 CURVE SMOOTH"
);
}
);
width = 623;
},
{
anchors = (
{
name = bottom;
position = "{243, 0}";
},
{
name = top;
position = "{425, 700}";
}
);
layerId = "31528353-E0C9-4B78-80EF-CA052B4026B6";
paths = (
{
closed = 1;
nodes = (
"365 -10 OFFCURVE",
"466 68 OFFCURVE",
"491 212 CURVE SMOOTH",
"577 700 LINE",
"473 700 LINE",
"384 192 LINE SMOOTH",
"366 89 OFFCURVE",
"307 37 OFFCURVE",
"217 37 CURVE SMOOTH",
"135 37 OFFCURVE",
"99 74 OFFCURVE",
"99 165 CURVE",
"4 165 LINE",
"4 54 OFFCURVE",
"61 -10 OFFCURVE",
"208 -10 CURVE SMOOTH"
);
}
);
width = 571;
},
{
anchors = (
{
name = bottom;
position = "{226, 0}";
},
{
name = top;
position = "{406, 700}";
}
);
layerId = "D606CACE-2ACC-4371-B5A0-4D0D9ADC55EB";
paths = (
{
closed = 1;
nodes = (
"336 -10 OFFCURVE",
"430 68 OFFCURVE",
"455 211 CURVE SMOOTH",
"542 700 LINE",
"482 700 LINE",
"392 190 LINE SMOOTH",
"373 83 OFFCURVE",
"305 27 OFFCURVE",
"199 27 CURVE SMOOTH",
"104 27 OFFCURVE",
"66 72 OFFCURVE",
"66 158 CURVE",
"6 158 LINE",
"6 51 OFFCURVE",
"62 -10 OFFCURVE",
"191 -10 CURVE SMOOTH"
);
}
);
width = 537;
}
);
note = J;
unicode = 004A;
},
{
glyphname = K;
lastChange = "2018-06-30 15:09:54 +0000";
layers = (
{
anchors = (
{
name = bottom;
position = "{336, 0}";
},
{
name = top;
position = "{336, 700}";
}
);
layerId = "0B1DFD06-3317-40CA-B510-4969A0718C16";
paths = (
{
closed = 1;
nodes = (
"623 700 LINE",
"569 700 LINE",
"125 260 LINE",
"125 204 LINE"
);
},
{
closed = 1;
nodes = (
"136 0 LINE",
"136 700 LINE",
"76 700 LINE",
"76 0 LINE"
);
},
{
closed = 1;
nodes = (
"652 0 LINE",
"318 421 LINE",
"279 381 LINE",
"581 0 LINE"
);
}
);
width = 672;
},
{
anchors = (
{
name = bottom;
position = "{378, 0}";
},
{
name = top;
position = "{378, 700}";
}
);
layerId = "B1D894FD-A198-4769-A706-4BE987327F96";
paths = (
{
closed = 1;
nodes = (
"714 700 LINE",
"568 700 LINE",
"119 255 LINE",
"119 107 LINE"
);
},
{
closed = 1;
nodes = (
"242 0 LINE",
"242 700 LINE",
"72 700 LINE",
"72 0 LINE"
);
},
{
closed = 1;
nodes = (
"746 0 LINE",
"390 485 LINE",
"272 371 LINE",
"545 0 LINE"
);
}
);
width = 755;
},
{
anchors = (
{
name = bottom;
position = "{353, 0}";
},
{
name = top;
position = "{353, 700}";
}
);
layerId = "BE5CE17C-12A9-439B-ACA7-F5E3A6230453";
paths = (
{
closed = 1;
nodes = (
"659 700 LINE",
"569 700 LINE",
"123 258 LINE",
"123 165 LINE"
);
},
{
closed = 1;
nodes = (
"178 0 LINE",
"178 700 LINE",
"74 700 LINE",
"74 0 LINE"
);
},
{
closed = 1;
nodes = (
"690 0 LINE",
"347 447 LINE",
"276 377 LINE",
"567 0 LINE"
);
}
);
width = 705;
},
{
anchors = (
{
name = bottom;
position = "{335, 0}";
},
{
name = top;
position = "{458, 700}";
}
);
layerId = "536A25D8-98D8-4772-902A-7D06861A7581";
paths = (
{
closed = 1;
nodes = (
"794 700 LINE",
"648 700 LINE",
"121 255 LINE",
"95 107 LINE"
);
},
{
closed = 1;
nodes = (
"199 0 LINE",
"322 700 LINE",
"152 700 LINE",
"29 0 LINE"
);
},
{
closed = 1;
nodes = (
"703 0 LINE",
"433 485 LINE",
"294 371 LINE",
"502 0 LINE"
);
}
);
width = 755;
},
{
anchors = (
{
name = bottom;
position = "{310, 0}";
},
{
name = top;
position = "{433, 700}";
}
);
layerId = "31528353-E0C9-4B78-80EF-CA052B4026B6";
paths = (
{
closed = 1;
nodes = (
"739 700 LINE",
"649 700 LINE",
"125 258 LINE",
"109 165 LINE"
);
},
{
closed = 1;
nodes = (
"135 0 LINE",
"258 700 LINE",
"154 700 LINE",
"31 0 LINE"
);
},
{
closed = 1;
nodes = (
"647 0 LINE",
"383 447 LINE",
"299 377 LINE",
"524 0 LINE"
);
}
);
width = 705;
},
{
anchors = (
{
name = bottom;
position = "{293, 0}";
},
{
name = top;
position = "{416, 700}";
}
);
layerId = "D606CACE-2ACC-4371-B5A0-4D0D9ADC55EB";
paths = (
{
closed = 1;
nodes = (
"703 700 LINE",
"649 700 LINE",
"128 260 LINE",
"118 204 LINE"
);
},
{
closed = 1;
nodes = (
"93 0 LINE",
"216 700 LINE",
"156 700 LINE",
"33 0 LINE"
);
},
{
closed = 1;
nodes = (
"609 0 LINE",
"349 421 LINE",
"303 381 LINE",
"538 0 LINE"
);
}
);
width = 672;
}
);
note = K;
unicode = 004B;
},
{
glyphname = L;
lastChange = "2018-06-30 15:09:54 +0000";
layers = (
{
anchors = (
{
name = bottom;
position = "{319, 0}";
},
{
name = center;
position = "{331, 350}";
},
{
name = top;
position = "{194, 700}";
},
{
name = topright;
position = "{582, 700}";
}
);
layerId = "0B1DFD06-3317-40CA-B510-4969A0718C16";
paths = (
{
closed = 1;
nodes = (
"582 0 LINE",
"582 38 LINE",
"136 38 LINE",
"136 700 LINE",
"76 700 LINE",
"76 0 LINE"
);
}
);
width = 602;
},
{
anchors = (
{
name = bottom;
position = "{363, 0}";
},
{
name = center;
position = "{380, 350}";
},
{
name = top;
position = "{221, 700}";
},
{
name = topright;
position = "{663, 700}";
}
);
layerId = "B1D894FD-A198-4769-A706-4BE987327F96";
paths = (
{
closed = 1;
nodes = (
"672 0 LINE",
"672 62 LINE",
"242 62 LINE",
"242 700 LINE",
"72 700 LINE",
"72 0 LINE"
);
}
);
width = 687;
},
{
anchors = (
{
name = bottom;
position = "{337, 0}";
},
{
name = center;
position = "{351, 350}";
},
{
name = top;
position = "{205, 700}";
},
{
name = topright;
position = "{614, 700}";
}
);
layerId = "BE5CE17C-12A9-439B-ACA7-F5E3A6230453";
paths = (
{
closed = 1;
nodes = (
"618 0 LINE",
"618 48 LINE",
"178 48 LINE",
"178 700 LINE",
"74 700 LINE",
"74 0 LINE"
);
}
);
width = 636;
},
{
anchors = (
{
name = bottom;
position = "{320, 0}";
},
{
name = center;
position = "{399, 350}";
},
{
name = top;
position = "{301, 700}";
},
{
name = topright;
position = "{743, 700}";
}
);
layerId = "536A25D8-98D8-4772-902A-7D06861A7581";
paths = (
{
closed = 1;
nodes = (
"629 0 LINE",
"640 62 LINE",
"210 62 LINE",
"322 700 LINE",
"152 700 LINE",
"29 0 LINE"
);
}
);
width = 687;
},
{
anchors = (
{
name = bottom;
position = "{294, 0}";
},
{
name = center;
position = "{370, 350}";
},
{
name = top;
position = "{285, 700}";
},
{
name = topright;
position = "{694, 700}";
}
);
layerId = "31528353-E0C9-4B78-80EF-CA052B4026B6";
paths = (
{
closed = 1;
nodes = (
"575 0 LINE",
"583 48 LINE",
"143 48 LINE",
"258 700 LINE",
"154 700 LINE",
"31 0 LINE"
);
}
);
width = 636;
},
{
anchors = (
{
name = bottom;
position = "{276, 0}";
},
{
name = center;
position = "{350, 350}";
},
{
name = top;
position = "{274, 700}";
},
{
name = topright;
position = "{662, 700}";
}
);
layerId = "D606CACE-2ACC-4371-B5A0-4D0D9ADC55EB";
paths = (
{
closed = 1;
nodes = (
"539 0 LINE",
"546 38 LINE",
"100 38 LINE",
"216 700 LINE",
"156 700 LINE",
"33 0 LINE"
);
}
);
width = 602;
}
);
note = L;
rightKerningGroup = L;
unicode = 004C;
},
{
glyphname = M;
lastChange = "2018-06-30 15:09:54 +0000";
layers = (
{
anchors = (
{
name = bottom;
position = "{432, 0}";
},
{
name = top;
position = "{444, 700}";
}
);
layerId = "0B1DFD06-3317-40CA-B510-4969A0718C16";
paths = (
{
closed = 1;
nodes = (
"116 0 LINE",
"116 688 LINE",
"101 688 LINE",
"426 0 LINE",
"438 0 LINE",
"768 682 LINE",
"751 682 LINE",
"751 0 LINE",
"811 0 LINE",
"811 700 LINE",
"737 700 LINE",
"443 91 LINE",
"159 700 LINE",
"76 700 LINE",
"76 0 LINE"
);
}
);
width = 887;
},
{
anchors = (
{
name = bottom;
position = "{482, 0}";
},
{
name = top;
position = "{495, 700}";
}
);
layerId = "B1D894FD-A198-4769-A706-4BE987327F96";
paths = (
{
closed = 1;
nodes = (
"166 0 LINE",
"166 596 LINE",
"121 596 LINE",
"430 0 LINE",
"535 0 LINE",
"790 596 LINE",
"746 596 LINE",
"746 0 LINE",
"917 0 LINE",
"917 700 LINE",
"743 700 LINE",
"516 174 LINE",
"245 700 LINE",
"72 700 LINE",
"72 0 LINE"
);
}
);
width = 989;
},
{
anchors = (
{
name = bottom;
position = "{452, 0}";
},
{
name = top;
position = "{464, 700}";
}
);
layerId = "BE5CE17C-12A9-439B-ACA7-F5E3A6230453";
paths = (
{
closed = 1;
nodes = (
"136 0 LINE",
"136 651 LINE",
"109 651 LINE",
"428 0 LINE",
"477 0 LINE",
"777 648 LINE",
"749 648 LINE",
"749 0 LINE",
"853 0 LINE",
"853 700 LINE",
"739 700 LINE",
"472 124 LINE",
"193 700 LINE",
"74 700 LINE",
"74 0 LINE"
);
}
);
width = 928;
},
{
anchors = (
{
name = bottom;
position = "{439, 0}";
},
{
name = top;
position = "{575, 700}";
}
);
layerId = "536A25D8-98D8-4772-902A-7D06861A7581";
paths = (
{
closed = 1;
nodes = (
"123 0 LINE",
"228 596 LINE",
"183 596 LINE",
"387 0 LINE",
"492 0 LINE",
"852 596 LINE",
"808 596 LINE",
"703 0 LINE",
"874 0 LINE",
"997 700 LINE",
"823 700 LINE",
"504 174 LINE",
"325 700 LINE",
"152 700 LINE",
"29 0 LINE"
);
}
);
width = 989;
},
{
anchors = (
{
name = bottom;
position = "{409, 0}";
},
{
name = top;
position = "{544, 700}";
}
);
layerId = "31528353-E0C9-4B78-80EF-CA052B4026B6";
paths = (
{
closed = 1;
nodes = (
"93 0 LINE",
"208 651 LINE",
"181 651 LINE",
"385 0 LINE",
"434 0 LINE",
"848 648 LINE",
"820 648 LINE",
"706 0 LINE",
"810 0 LINE",
"933 700 LINE",
"819 700 LINE",
"451 124 LINE",
"273 700 LINE",
"154 700 LINE",
"31 0 LINE"
);
}
);
width = 928;
},
{
anchors = (
{
name = bottom;
position = "{389, 0}";
},
{
name = top;
position = "{524, 700}";
}
);
layerId = "D606CACE-2ACC-4371-B5A0-4D0D9ADC55EB";
paths = (
{
closed = 1;
nodes = (
"73 0 LINE",
"194 688 LINE",
"179 688 LINE",
"383 0 LINE",
"395 0 LINE",
"845 682 LINE",
"828 682 LINE",
"708 0 LINE",
"768 0 LINE",
"891 700 LINE",
"817 700 LINE",
"416 91 LINE",
"239 700 LINE",
"156 700 LINE",
"33 0 LINE"
);
}
);
width = 887;
}
);
note = M;
unicode = 004D;
},
{
glyphname = N;
lastChange = "2018-06-30 15:09:54 +0000";
layers = (
{
anchors = (
{
name = bottom;
position = "{363, 0}";
},
{
name = top;
position = "{363, 700}";
}
);
layerId = "0B1DFD06-3317-40CA-B510-4969A0718C16";
paths = (
{
closed = 1;
nodes = (
"116 0 LINE",
"116 648 LINE",
"640 0 LINE",
"650 0 LINE",
"650 700 LINE",
"610 700 LINE",
"610 110 LINE",
"139 700 LINE",
"76 700 LINE",
"76 0 LINE"
);
}
);
width = 726;
},
{
anchors = (
{
name = bottom;
position = "{415, 0}";
},
{
name = top;
position = "{415, 700}";
}
);
layerId = "B1D894FD-A198-4769-A706-4BE987327F96";
paths = (
{
closed = 1;
nodes = (
"232 0 LINE",
"232 550 LINE",
"643 0 LINE",
"757 0 LINE",
"757 700 LINE",
"597 700 LINE",
"597 227 LINE",
"239 700 LINE",
"72 700 LINE",
"72 0 LINE"
);
}
);
width = 829;
},
{
anchors = (
{
name = bottom;
position = "{384, 0}";
},
{
name = top;
position = "{384, 700}";
}
);
layerId = "BE5CE17C-12A9-439B-ACA7-F5E3A6230453";
paths = (
{
closed = 1;
nodes = (
"162 0 LINE",
"162 609 LINE",
"641 0 LINE",
"693 0 LINE",
"693 700 LINE",
"605 700 LINE",
"605 157 LINE",
"179 700 LINE",
"74 700 LINE",
"74 0 LINE"
);
}
);
width = 767;
},
{
anchors = (
{
name = bottom;
position = "{372, 0}";
},
{
name = top;
position = "{495, 700}";
}
);
layerId = "536A25D8-98D8-4772-902A-7D06861A7581";
paths = (
{
closed = 1;
nodes = (
"189 0 LINE",
"286 550 LINE",
"600 0 LINE",
"714 0 LINE",
"837 700 LINE",
"677 700 LINE",
"594 227 LINE",
"319 700 LINE",
"152 700 LINE",
"29 0 LINE"
);
}
);
width = 829;
},
{
anchors = (
{
name = bottom;
position = "{341, 0}";
},
{
name = top;
position = "{464, 700}";
}
);
layerId = "31528353-E0C9-4B78-80EF-CA052B4026B6";
paths = (
{
closed = 1;
nodes = (
"119 0 LINE",
"226 609 LINE",
"598 0 LINE",
"650 0 LINE",
"773 700 LINE",
"685 700 LINE",
"590 157 LINE",
"259 700 LINE",
"154 700 LINE",
"31 0 LINE"
);
}
);
width = 767;
},
{
anchors = (
{
name = bottom;
position = "{320, 0}";
},
{
name = top;
position = "{443, 700}";
}
);
layerId = "D606CACE-2ACC-4371-B5A0-4D0D9ADC55EB";
paths = (
{
closed = 1;
nodes = (
"73 0 LINE",
"187 648 LINE",
"597 0 LINE",
"607 0 LINE",
"730 700 LINE",
"690 700 LINE",
"586 110 LINE",
"219 700 LINE",
"156 700 LINE",
"33 0 LINE"
);
}
);
width = 726;
}
);
note = N;
unicode = 004E;
},
{
glyphname = O;
lastChange = "2018-06-30 15:09:54 +0000";
layers = (
{
anchors = (
{
name = bottom;
position = "{416, 0}";
},
{
name = center;
position = "{416, 350}";
},
{
name = ogonek;
position = "{441, 0}";
},
{
name = top;
position = "{416, 700}";
},
{
name = topright;
position = "{704, 540}";
}
);
background = {
paths = (
{
closed = 1;
nodes = (
"640 -10 OFFCURVE",
"776 120 OFFCURVE",
"776 353 CURVE SMOOTH",
"776 582 OFFCURVE",
"640 710 OFFCURVE",
"416 710 CURVE SMOOTH",
"192 710 OFFCURVE",
"56 582 OFFCURVE",
"56 353 CURVE SMOOTH",
"56 120 OFFCURVE",
"192 -10 OFFCURVE",
"416 -10 CURVE SMOOTH"
);
},
{
closed = 1;
nodes = (
"233 24 OFFCURVE",
"116 142 OFFCURVE",
"116 353 CURVE SMOOTH",
"116 561 OFFCURVE",
"232 676 OFFCURVE",
"416 676 CURVE SMOOTH",
"600 676 OFFCURVE",
"716 561 OFFCURVE",
"716 353 CURVE SMOOTH",
"716 142 OFFCURVE",
"599 24 OFFCURVE",
"416 24 CURVE SMOOTH"
);
}
);
};
layerId = "0B1DFD06-3317-40CA-B510-4969A0718C16";
paths = (
{
closed = 1;
nodes = (
"644 -10 OFFCURVE",
"776 124 OFFCURVE",
"776 353 CURVE SMOOTH",
"776 579 OFFCURVE",
"643 710 OFFCURVE",
"416 710 CURVE SMOOTH",
"189 710 OFFCURVE",
"56 579 OFFCURVE",
"56 353 CURVE SMOOTH",
"56 124 OFFCURVE",
"188 -10 OFFCURVE",
"416 -10 CURVE SMOOTH"
);
},
{
closed = 1;
nodes = (
"227 28 OFFCURVE",
"116 148 OFFCURVE",
"116 353 CURVE SMOOTH",
"116 555 OFFCURVE",
"226 672 OFFCURVE",
"416 672 CURVE SMOOTH",
"606 672 OFFCURVE",
"716 555 OFFCURVE",
"716 353 CURVE SMOOTH",
"716 148 OFFCURVE",
"605 28 OFFCURVE",
"416 28 CURVE SMOOTH"
);
}
);
width = 832;
},
{
anchors = (
{
name = bottom;
position = "{458, 0}";
},
{
name = center;
position = "{458, 350}";
},
{
name = ogonek;
position = "{505, 0}";
},
{
name = top;
position = "{458, 700}";
},
{
name = topright;
position = "{774, 540}";
}
);
background = {
paths = (
{
closed = 1;
nodes = (
"640 -10 OFFCURVE",
"776 120 OFFCURVE",
"776 353 CURVE SMOOTH",
"776 582 OFFCURVE",
"640 710 OFFCURVE",
"416 710 CURVE SMOOTH",
"192 710 OFFCURVE",
"56 582 OFFCURVE",
"56 353 CURVE SMOOTH",
"56 120 OFFCURVE",
"192 -10 OFFCURVE",
"416 -10 CURVE SMOOTH"
);
},
{
closed = 1;
nodes = (
"233 24 OFFCURVE",
"116 142 OFFCURVE",
"116 353 CURVE SMOOTH",
"116 561 OFFCURVE",
"232 676 OFFCURVE",
"416 676 CURVE SMOOTH",
"600 676 OFFCURVE",
"716 561 OFFCURVE",
"716 353 CURVE SMOOTH",
"716 142 OFFCURVE",
"599 24 OFFCURVE",
"416 24 CURVE SMOOTH"
);
}
);
};
layerId = "B1D894FD-A198-4769-A706-4BE987327F96";
paths = (
{
closed = 1;
nodes = (
"709 -10 OFFCURVE",
"861 124 OFFCURVE",
"861 353 CURVE SMOOTH",
"861 578 OFFCURVE",
"708 710 OFFCURVE",
"458 710 CURVE SMOOTH",
"207 710 OFFCURVE",
"54 578 OFFCURVE",
"54 353 CURVE SMOOTH",
"54 124 OFFCURVE",
"206 -10 OFFCURVE",
"458 -10 CURVE SMOOTH"
);
},
{
closed = 1;
nodes = (
"306 52 OFFCURVE",
"226 157 OFFCURVE",
"226 353 CURVE SMOOTH",
"226 545 OFFCURVE",
"307 648 OFFCURVE",
"458 648 CURVE SMOOTH",
"608 648 OFFCURVE",
"689 545 OFFCURVE",
"689 353 CURVE SMOOTH",
"689 157 OFFCURVE",
"609 52 OFFCURVE",
"458 52 CURVE SMOOTH"
);
}
);
width = 915;
},
{
anchors = (
{
name = bottom;
position = "{433, 0}";
},
{
name = center;
position = "{433, 350}";
},
{
name = ogonek;
position = "{467, 0}";
},
{
name = top;
position = "{433, 700}";
},
{
name = topright;
position = "{732, 540}";
}
);
layerId = "BE5CE17C-12A9-439B-ACA7-F5E3A6230453";
paths = (
{
closed = 1;
nodes = (
"670 -10 OFFCURVE",
"810 124 OFFCURVE",
"810 353 CURVE SMOOTH",
"810 579 OFFCURVE",
"669 710 OFFCURVE",
"433 710 CURVE SMOOTH",
"196 710 OFFCURVE",
"55 579 OFFCURVE",
"55 353 CURVE SMOOTH",
"55 124 OFFCURVE",
"195 -10 OFFCURVE",
"433 -10 CURVE SMOOTH"
);
},
{
closed = 1;
nodes = (
"259 38 OFFCURVE",
"160 152 OFFCURVE",
"160 353 CURVE SMOOTH",
"160 551 OFFCURVE",
"258 662 OFFCURVE",
"433 662 CURVE SMOOTH",
"607 662 OFFCURVE",
"705 551 OFFCURVE",
"705 353 CURVE SMOOTH",
"705 152 OFFCURVE",
"607 38 OFFCURVE",
"433 38 CURVE SMOOTH"
);
}
);
width = 865;
},
{
anchors = (
{
name = bottom;
position = "{415, 0}";
},
{
name = center;
position = "{477, 350}";
},
{
name = ogonek;
position = "{462, 0}";
},
{
name = top;
position = "{539, 700}";
},
{
name = topright;
position = "{826, 540}";
}
);
background = {
paths = (
{
closed = 1;
nodes = (
"640 -10 OFFCURVE",
"776 120 OFFCURVE",
"776 353 CURVE SMOOTH",
"776 582 OFFCURVE",
"640 710 OFFCURVE",
"416 710 CURVE SMOOTH",
"192 710 OFFCURVE",
"56 582 OFFCURVE",
"56 353 CURVE SMOOTH",
"56 120 OFFCURVE",
"192 -10 OFFCURVE",
"416 -10 CURVE SMOOTH"
);
},
{
closed = 1;
nodes = (
"233 24 OFFCURVE",
"116 142 OFFCURVE",
"116 353 CURVE SMOOTH",
"116 561 OFFCURVE",
"232 676 OFFCURVE",
"416 676 CURVE SMOOTH",
"600 676 OFFCURVE",
"716 561 OFFCURVE",
"716 353 CURVE SMOOTH",
"716 142 OFFCURVE",
"599 24 OFFCURVE",
"416 24 CURVE SMOOTH"
);
}
);
};
layerId = "536A25D8-98D8-4772-902A-7D06861A7581";
paths = (
{
closed = 1;
nodes = (
"693 -10 OFFCURVE",
"887 170 OFFCURVE",
"887 429 CURVE SMOOTH",
"887 608 OFFCURVE",
"759 710 OFFCURVE",
"540 710 CURVE SMOOTH",
"258 710 OFFCURVE",
"66 533 OFFCURVE",
"66 274 CURVE SMOOTH",
"66 94 OFFCURVE",
"192 -10 OFFCURVE",
"413 -10 CURVE SMOOTH"
);
},
{
closed = 1;
nodes = (
"300 52 OFFCURVE",
"236 123 OFFCURVE",
"236 256 CURVE SMOOTH",
"236 488 OFFCURVE",
"356 648 OFFCURVE",
"529 648 CURVE SMOOTH",
"653 648 OFFCURVE",
"717 578 OFFCURVE",
"717 446 CURVE SMOOTH",
"717 216 OFFCURVE",
"596 52 OFFCURVE",
"424 52 CURVE SMOOTH"
);
}
);
width = 915;
},
{
anchors = (
{
name = bottom;
position = "{390, 0}";
},
{
name = center;
position = "{451, 350}";
},
{
name = ogonek;
position = "{424, 0}";
},
{
name = top;
position = "{513, 700}";
},
{
name = topright;
position = "{784, 540}";
}
);
layerId = "31528353-E0C9-4B78-80EF-CA052B4026B6";
paths = (
{
closed = 1;
nodes = (
"653 -10 OFFCURVE",
"837 173 OFFCURVE",
"837 435 CURVE SMOOTH",
"837 610 OFFCURVE",
"721 710 OFFCURVE",
"515 710 CURVE SMOOTH",
"248 710 OFFCURVE",
"66 531 OFFCURVE",
"66 268 CURVE SMOOTH",
"66 92 OFFCURVE",
"181 -10 OFFCURVE",
"388 -10 CURVE SMOOTH"
);
},
{
closed = 1;
nodes = (
"250 38 OFFCURVE",
"171 119 OFFCURVE",
"171 265 CURVE SMOOTH",
"171 500 OFFCURVE",
"308 662 OFFCURVE",
"506 662 CURVE SMOOTH",
"653 662 OFFCURVE",
"732 583 OFFCURVE",
"732 439 CURVE SMOOTH",
"732 204 OFFCURVE",
"593 38 OFFCURVE",
"396 38 CURVE SMOOTH"
);
}
);
width = 865;
},
{
anchors = (
{
name = bottom;
position = "{373, 0}";
},
{
name = center;
position = "{435, 350}";
},
{
name = ogonek;
position = "{398, 0}";
},
{
name = top;
position = "{496, 700}";
},
{
name = topright;
position = "{756, 540}";
}
);
background = {
paths = (
{
closed = 1;
nodes = (
"640 -10 OFFCURVE",
"776 120 OFFCURVE",
"776 353 CURVE SMOOTH",
"776 582 OFFCURVE",
"640 710 OFFCURVE",
"416 710 CURVE SMOOTH",
"192 710 OFFCURVE",
"56 582 OFFCURVE",
"56 353 CURVE SMOOTH",
"56 120 OFFCURVE",
"192 -10 OFFCURVE",
"416 -10 CURVE SMOOTH"
);
},
{
closed = 1;
nodes = (
"233 24 OFFCURVE",
"116 142 OFFCURVE",
"116 353 CURVE SMOOTH",
"116 561 OFFCURVE",
"232 676 OFFCURVE",
"416 676 CURVE SMOOTH",
"600 676 OFFCURVE",
"716 561 OFFCURVE",
"716 353 CURVE SMOOTH",
"716 142 OFFCURVE",
"599 24 OFFCURVE",
"416 24 CURVE SMOOTH"
);
}
);
};
layerId = "D606CACE-2ACC-4371-B5A0-4D0D9ADC55EB";
paths = (
{
closed = 1;
nodes = (
"626 -10 OFFCURVE",
"803 175 OFFCURVE",
"803 439 CURVE SMOOTH",
"803 612 OFFCURVE",
"694 710 OFFCURVE",
"498 710 CURVE SMOOTH",
"243 710 OFFCURVE",
"67 529 OFFCURVE",
"67 264 CURVE SMOOTH",
"67 90 OFFCURVE",
"175 -10 OFFCURVE",
"371 -10 CURVE SMOOTH"
);
},
{
closed = 1;
nodes = (
"217 28 OFFCURVE",
"127 116 OFFCURVE",
"127 269 CURVE SMOOTH",
"127 507 OFFCURVE",
"277 672 OFFCURVE",
"492 672 CURVE SMOOTH",
"654 672 OFFCURVE",
"743 586 OFFCURVE",
"743 435 CURVE SMOOTH",
"743 197 OFFCURVE",
"591 28 OFFCURVE",
"378 28 CURVE SMOOTH"
);
}
);
width = 832;
}
);
leftKerningGroup = O;
note = O;
rightKerningGroup = O;
unicode = 004F;
},
{
glyphname = P;
lastChange = "2018-06-30 15:09:54 +0000";
layers = (
{
anchors = (
{
name = bottom;
position = "{316, 0}";
},
{
name = top;
position = "{316, 700}";
}
);
layerId = "0B1DFD06-3317-40CA-B510-4969A0718C16";
paths = (
{
closed = 1;
nodes = (
"136 0 LINE",
"136 274 LINE",
"322 274 LINE SMOOTH",
"505 274 OFFCURVE",
"605 350 OFFCURVE",
"605 487 CURVE SMOOTH",
"605 623 OFFCURVE",
"503 700 OFFCURVE",
"322 700 CURVE SMOOTH",
"76 700 LINE",
"76 0 LINE"
);
},
{
closed = 1;
nodes = (
"136 662 LINE",
"324 662 LINE SMOOTH",
"466 662 OFFCURVE",
"545 599 OFFCURVE",
"545 487 CURVE SMOOTH",
"545 375 OFFCURVE",
"466 312 OFFCURVE",
"324 312 CURVE SMOOTH",
"136 312 LINE"
);
}
);
width = 631;
},
{
anchors = (
{
name = bottom;
position = "{358, 0}";
},
{
name = top;
position = "{358, 700}";
}
);
layerId = "B1D894FD-A198-4769-A706-4BE987327F96";
paths = (
{
closed = 1;
nodes = (
"241 0 LINE",
"241 266 LINE",
"365 266 LINE SMOOTH",
"567 266 OFFCURVE",
"694 321 OFFCURVE",
"694 483 CURVE SMOOTH",
"694 650 OFFCURVE",
"559 700 OFFCURVE",
"365 700 CURVE SMOOTH",
"71 700 LINE",
"71 0 LINE"
);
},
{
closed = 1;
nodes = (
"241 638 LINE",
"366 638 LINE SMOOTH",
"468 638 OFFCURVE",
"525 604 OFFCURVE",
"525 483 CURVE SMOOTH",
"525 358 OFFCURVE",
"464 329 OFFCURVE",
"366 329 CURVE SMOOTH",
"241 329 LINE"
);
}
);
width = 714;
},
{
anchors = (
{
name = bottom;
position = "{333, 0}";
},
{
name = top;
position = "{333, 700}";
}
);
layerId = "BE5CE17C-12A9-439B-ACA7-F5E3A6230453";
paths = (
{
closed = 1;
nodes = (
"178 0 LINE",
"178 271 LINE",
"339 271 LINE SMOOTH",
"530 271 OFFCURVE",
"641 338 OFFCURVE",
"641 485 CURVE SMOOTH",
"641 634 OFFCURVE",
"525 700 OFFCURVE",
"339 700 CURVE SMOOTH",
"74 700 LINE",
"74 0 LINE"
);
},
{
closed = 1;
nodes = (
"178 652 LINE",
"341 652 LINE SMOOTH",
"467 652 OFFCURVE",
"537 601 OFFCURVE",
"537 485 CURVE SMOOTH",
"537 368 OFFCURVE",
"465 319 OFFCURVE",
"341 319 CURVE SMOOTH",
"178 319 LINE"
);
}
);
width = 664;
},
{
anchors = (
{
name = bottom;
position = "{315, 0}";
},
{
name = top;
position = "{438, 700}";
}
);
layerId = "536A25D8-98D8-4772-902A-7D06861A7581";
paths = (
{
closed = 1;
nodes = (
"198 0 LINE",
"245 266 LINE",
"369 266 LINE SMOOTH",
"611 266 OFFCURVE",
"740 355 OFFCURVE",
"740 528 CURVE SMOOTH",
"740 676 OFFCURVE",
"585 700 OFFCURVE",
"445 700 CURVE SMOOTH",
"151 700 LINE",
"28 0 LINE"
);
},
{
closed = 1;
nodes = (
"310 638 LINE",
"435 638 LINE SMOOTH",
"513 638 OFFCURVE",
"572 619 OFFCURVE",
"572 532 CURVE SMOOTH",
"572 393 OFFCURVE",
"502 329 OFFCURVE",
"381 329 CURVE SMOOTH",
"256 329 LINE"
);
}
);
width = 714;
},
{
anchors = (
{
name = bottom;
position = "{290, 0}";
},
{
name = top;
position = "{413, 700}";
}
);
layerId = "31528353-E0C9-4B78-80EF-CA052B4026B6";
paths = (
{
closed = 1;
nodes = (
"135 0 LINE",
"183 271 LINE",
"344 271 LINE SMOOTH",
"561 271 OFFCURVE",
"688 365 OFFCURVE",
"688 528 CURVE SMOOTH",
"688 647 OFFCURVE",
"586 700 OFFCURVE",
"419 700 CURVE SMOOTH",
"154 700 LINE",
"31 0 LINE"
);
},
{
closed = 1;
nodes = (
"250 652 LINE",
"413 652 LINE SMOOTH",
"523 652 OFFCURVE",
"583 613 OFFCURVE",
"583 526 CURVE SMOOTH",
"583 395 OFFCURVE",
"499 319 OFFCURVE",
"354 319 CURVE SMOOTH",
"191 319 LINE"
);
}
);
width = 664;
},
{
anchors = (
{
name = bottom;
position = "{273, 0}";
},
{
name = top;
position = "{396, 700}";
}
);
layerId = "D606CACE-2ACC-4371-B5A0-4D0D9ADC55EB";
paths = (
{
closed = 1;
nodes = (
"93 0 LINE",
"141 274 LINE",
"327 274 LINE SMOOTH",
"527 274 OFFCURVE",
"652 372 OFFCURVE",
"652 529 CURVE SMOOTH",
"652 638 OFFCURVE",
"564 700 OFFCURVE",
"402 700 CURVE SMOOTH",
"156 700 LINE",
"33 0 LINE"
);
},
{
closed = 1;
nodes = (
"210 662 LINE",
"398 662 LINE SMOOTH",
"524 662 OFFCURVE",
"591 612 OFFCURVE",
"591 523 CURVE SMOOTH",
"591 394 OFFCURVE",
"492 312 OFFCURVE",
"336 312 CURVE SMOOTH",
"148 312 LINE"
);
}
);
width = 631;
}
);
leftKerningGroup = P;
note = P;
unicode = 0050;
},
{
glyphname = Q;
lastChange = "2018-06-30 16:05:11 +0000";
layers = (
{
anchors = (
{
name = bottom;
position = "{416, -175}";
},
{
name = top;
position = "{416, 700}";
}
);
components = (
{
name = O;
}
);
layerId = "0B1DFD06-3317-40CA-B510-4969A0718C16";
paths = (
{
closed = 1;
nodes = (
"684 -150 LINE",
"680 -150 OFFCURVE",
"676 -150 OFFCURVE",
"672 -150 CURVE SMOOTH",
"540 -150 OFFCURVE",
"434 -87 OFFCURVE",
"418 3 CURVE",
"365 3 LINE",
"395 -106 OFFCURVE",
"502 -175 OFFCURVE",
"629 -175 CURVE SMOOTH",
"645 -175 OFFCURVE",
"661 -174 OFFCURVE",
"677 -172 CURVE"
);
}
);
width = 832;
},
{
anchors = (
{
name = bottom;
position = "{458, -183}";
},
{
name = top;
position = "{458, 700}";
}
);
components = (
{
name = O;
}
);
layerId = "B1D894FD-A198-4769-A706-4BE987327F96";
paths = (
{
closed = 1;
nodes = (
"780 -131 LINE",
"756 -135 OFFCURVE",
"730 -138 OFFCURVE",
"708 -138 CURVE SMOOTH",
"597 -138 OFFCURVE",
"531 -87 OFFCURVE",
"517 11 CURVE",
"355 11 LINE",
"375 -99 OFFCURVE",
"516 -183 OFFCURVE",
"667 -183 CURVE SMOOTH",
"700 -183 OFFCURVE",
"732 -180 OFFCURVE",
"766 -171 CURVE"
);
}
);
width = 915;
},
{
anchors = (
{
name = bottom;
position = "{433, -178}";
},
{
name = top;
position = "{433, 700}";
}
);
components = (
{
alignment = -1;
name = O;
}
);
layerId = "BE5CE17C-12A9-439B-ACA7-F5E3A6230453";
paths = (
{
closed = 1;
nodes = (
"722 -142 LINE",
"710 -144 OFFCURVE",
"698 -145 OFFCURVE",
"686 -145 CURVE SMOOTH",
"563 -145 OFFCURVE",
"473 -87 OFFCURVE",
"458 6 CURVE",
"361 6 LINE",
"387 -103 OFFCURVE",
"508 -178 OFFCURVE",
"644 -178 CURVE SMOOTH",
"667 -178 OFFCURVE",
"689 -176 OFFCURVE",
"713 -172 CURVE"
);
}
);
width = 865;
},
{
anchors = (
{
name = bottom;
position = "{383, -183}";
},
{
name = top;
position = "{538, 700}";
}
);
components = (
{
name = O;
}
);
layerId = "536A25D8-98D8-4772-902A-7D06861A7581";
paths = (
{
closed = 1;
nodes = (
"714 -131 LINE",
"689 -135 OFFCURVE",
"664 -138 OFFCURVE",
"641 -138 CURVE SMOOTH",
"530 -138 OFFCURVE",
"473 -87 OFFCURVE",
"476 11 CURVE",
"314 11 LINE",
"315 -99 OFFCURVE",
"441 -183 OFFCURVE",
"592 -183 CURVE SMOOTH",
"625 -183 OFFCURVE",
"657 -180 OFFCURVE",
"693 -171 CURVE"
);
}
);
width = 915;
},
{
anchors = (
{
name = bottom;
position = "{359, -178}";
},
{
name = top;
position = "{513, 700}";
}
);
components = (
{
alignment = -1;
name = O;
}
);
layerId = "31528353-E0C9-4B78-80EF-CA052B4026B6";
paths = (
{
closed = 1;
nodes = (
"654 -142 LINE",
"642 -144 OFFCURVE",
"628 -145 OFFCURVE",
"617 -145 CURVE SMOOTH",
"494 -145 OFFCURVE",
"415 -87 OFFCURVE",
"416 6 CURVE",
"319 6 LINE",
"326 -103 OFFCURVE",
"434 -178 OFFCURVE",
"570 -178 CURVE SMOOTH",
"592 -178 OFFCURVE",
"615 -176 OFFCURVE",
"640 -172 CURVE"
);
}
);
width = 865;
},
{
anchors = (
{
name = bottom;
position = "{343, -175}";
},
{
name = top;
position = "{497, 700}";
}
);
components = (
{
name = O;
}
);
layerId = "D606CACE-2ACC-4371-B5A0-4D0D9ADC55EB";
paths = (
{
closed = 1;
nodes = (
"615 -150 LINE",
"611 -150 OFFCURVE",
"607 -150 OFFCURVE",
"603 -150 CURVE SMOOTH",
"472 -150 OFFCURVE",
"376 -87 OFFCURVE",
"376 3 CURVE",
"323 3 LINE",
"334 -106 OFFCURVE",
"429 -175 OFFCURVE",
"556 -175 CURVE SMOOTH",
"571 -175 OFFCURVE",
"588 -174 OFFCURVE",
"604 -172 CURVE"
);
}
);
width = 832;
}
);
leftKerningGroup = O;
leftMetricsKey = O;
note = Q;
rightKerningGroup = O;
rightMetricsKey = O;
unicode = 0051;
},
{
glyphname = R;
lastChange = "2018-06-30 15:09:54 +0000";
layers = (
{
anchors = (
{
name = bottom;
position = "{334, 0}";
},
{
name = top;
position = "{334, 700}";
}
);
layerId = "0B1DFD06-3317-40CA-B510-4969A0718C16";
paths = (
{
closed = 1;
nodes = (
"136 0 LINE",
"136 294 LINE",
"346 294 LINE SMOOTH",
"528 294 OFFCURVE",
"629 367 OFFCURVE",
"629 497 CURVE SMOOTH",
"629 627 OFFCURVE",
"528 700 OFFCURVE",
"346 700 CURVE SMOOTH",
"76 700 LINE",
"76 0 LINE"
);
},
{
closed = 1;
nodes = (
"654 0 LINE",
"654 4 LINE",
"623 33 OFFCURVE",
"601 71 OFFCURVE",
"574 141 CURVE SMOOTH",
"526 265 OFFCURVE",
"476 311 OFFCURVE",
"379 322 CURVE",
"379 297 LINE",
"443 276 OFFCURVE",
"481 228 OFFCURVE",
"523 117 CURVE SMOOTH",
"546 57 OFFCURVE",
"562 25 OFFCURVE",
"584 0 CURVE"
);
},
{
closed = 1;
nodes = (
"136 662 LINE",
"348 662 LINE SMOOTH",
"490 662 OFFCURVE",
"569 603 OFFCURVE",
"569 497 CURVE SMOOTH",
"569 391 OFFCURVE",
"490 332 OFFCURVE",
"348 332 CURVE SMOOTH",
"136 332 LINE"
);
}
);
width = 668;
},
{
anchors = (
{
name = bottom;
position = "{376, 0}";
},
{
name = top;
position = "{376, 700}";
}
);
layerId = "B1D894FD-A198-4769-A706-4BE987327F96";
paths = (
{
closed = 1;
nodes = (
"241 0 LINE",
"241 283 LINE",
"389 283 LINE SMOOTH",
"584 283 OFFCURVE",
"717 333 OFFCURVE",
"717 493 CURVE SMOOTH",
"717 652 OFFCURVE",
"583 700 OFFCURVE",
"389 700 CURVE SMOOTH",
"72 700 LINE",
"72 0 LINE"
);
},
{
closed = 1;
nodes = (
"741 0 LINE",
"741 14 LINE",
"717 12 OFFCURVE",
"685 93 OFFCURVE",
"660 155 CURVE SMOOTH",
"602 297 OFFCURVE",
"534 333 OFFCURVE",
"365 339 CURVE",
"365 290 LINE",
"445 292 OFFCURVE",
"478 209 OFFCURVE",
"508 129 CURVE SMOOTH",
"527 78 OFFCURVE",
"547 29 OFFCURVE",
"575 0 CURVE"
);
},
{
closed = 1;
nodes = (
"241 638 LINE",
"390 638 LINE SMOOTH",
"478 638 OFFCURVE",
"549 614 OFFCURVE",
"549 493 CURVE SMOOTH",
"549 369 OFFCURVE",
"478 345 OFFCURVE",
"390 345 CURVE SMOOTH",
"241 345 LINE"
);
}
);
width = 751;
},
{
anchors = (
{
name = bottom;
position = "{351, 0}";
},
{
name = top;
position = "{351, 700}";
}
);
layerId = "BE5CE17C-12A9-439B-ACA7-F5E3A6230453";
paths = (
{
closed = 1;
nodes = (
"178 0 LINE",
"178 290 LINE",
"363 290 LINE SMOOTH",
"550 290 OFFCURVE",
"664 353 OFFCURVE",
"664 495 CURVE SMOOTH",
"664 637 OFFCURVE",
"550 700 OFFCURVE",
"363 700 CURVE SMOOTH",
"74 700 LINE",
"74 0 LINE"
);
},
{
closed = 1;
nodes = (
"689 0 LINE",
"689 8 LINE",
"661 25 OFFCURVE",
"635 80 OFFCURVE",
"608 147 CURVE SMOOTH",
"556 278 OFFCURVE",
"499 320 OFFCURVE",
"373 329 CURVE",
"373 294 LINE",
"444 282 OFFCURVE",
"480 220 OFFCURVE",
"517 122 CURVE SMOOTH",
"538 65 OFFCURVE",
"556 27 OFFCURVE",
"580 0 CURVE"
);
},
{
closed = 1;
nodes = (
"178 652 LINE",
"365 652 LINE SMOOTH",
"485 652 OFFCURVE",
"561 607 OFFCURVE",
"561 495 CURVE SMOOTH",
"561 382 OFFCURVE",
"485 337 OFFCURVE",
"365 337 CURVE SMOOTH",
"178 337 LINE"
);
}
);
width = 701;
},
{
anchors = (
{
name = bottom;
position = "{333, 0}";
},
{
name = top;
position = "{456, 700}";
}
);
layerId = "536A25D8-98D8-4772-902A-7D06861A7581";
paths = (
{
closed = 1;
nodes = (
"198 0 LINE",
"248 283 LINE",
"396 283 LINE SMOOTH",
"637 283 OFFCURVE",
"765 369 OFFCURVE",
"765 535 CURVE SMOOTH",
"765 676 OFFCURVE",
"611 700 OFFCURVE",
"469 700 CURVE SMOOTH",
"152 700 LINE",
"29 0 LINE"
);
},
{
closed = 1;
nodes = (
"698 0 LINE",
"700 14 LINE",
"676 12 OFFCURVE",
"658 94 OFFCURVE",
"644 156 CURVE SMOOTH",
"611 297 OFFCURVE",
"550 333 OFFCURVE",
"382 339 CURVE",
"373 290 LINE",
"453 292 OFFCURVE",
"472 210 OFFCURVE",
"488 128 CURVE SMOOTH",
"497 80 OFFCURVE",
"509 29 OFFCURVE",
"532 0 CURVE"
);
},
{
closed = 1;
nodes = (
"310 638 LINE",
"459 638 LINE SMOOTH",
"529 638 OFFCURVE",
"597 624 OFFCURVE",
"597 535 CURVE SMOOTH",
"597 407 OFFCURVE",
"527 345 OFFCURVE",
"408 345 CURVE SMOOTH",
"259 345 LINE"
);
}
);
width = 751;
},
{
anchors = (
{
name = bottom;
position = "{308, 0}";
},
{
name = top;
position = "{431, 700}";
}
);
layerId = "31528353-E0C9-4B78-80EF-CA052B4026B6";
paths = (
{
closed = 1;
nodes = (
"135 0 LINE",
"186 290 LINE",
"371 290 LINE SMOOTH",
"587 290 OFFCURVE",
"712 380 OFFCURVE",
"712 535 CURVE SMOOTH",
"712 649 OFFCURVE",
"611 700 OFFCURVE",
"443 700 CURVE SMOOTH",
"154 700 LINE",
"31 0 LINE"
);
},
{
closed = 1;
nodes = (
"646 0 LINE",
"647 8 LINE",
"622 25 OFFCURVE",
"605 84 OFFCURVE",
"591 147 CURVE SMOOTH",
"562 278 OFFCURVE",
"512 320 OFFCURVE",
"388 329 CURVE",
"382 294 LINE",
"451 282 OFFCURVE",
"476 220 OFFCURVE",
"495 123 CURVE SMOOTH",
"506 68 OFFCURVE",
"518 26 OFFCURVE",
"537 0 CURVE"
);
},
{
closed = 1;
nodes = (
"250 652 LINE",
"437 652 LINE SMOOTH",
"542 652 OFFCURVE",
"609 617 OFFCURVE",
"609 531 CURVE SMOOTH",
"609 409 OFFCURVE",
"525 337 OFFCURVE",
"381 337 CURVE SMOOTH",
"194 337 LINE"
);
}
);
width = 701;
},
{
anchors = (
{
name = bottom;
position = "{291, 0}";
},
{
name = top;
position = "{414, 700}";
}
);
layerId = "D606CACE-2ACC-4371-B5A0-4D0D9ADC55EB";
paths = (
{
closed = 1;
nodes = (
"93 0 LINE",
"145 294 LINE",
"355 294 LINE SMOOTH",
"553 294 OFFCURVE",
"677 387 OFFCURVE",
"677 536 CURVE SMOOTH",
"677 641 OFFCURVE",
"590 700 OFFCURVE",
"426 700 CURVE SMOOTH",
"156 700 LINE",
"33 0 LINE"
);
},
{
closed = 1;
nodes = (
"611 0 LINE",
"612 4 LINE",
"586 33 OFFCURVE",
"570 71 OFFCURVE",
"556 140 CURVE SMOOTH",
"530 265 OFFCURVE",
"488 311 OFFCURVE",
"393 322 CURVE",
"388 297 LINE",
"449 276 OFFCURVE",
"479 225 OFFCURVE",
"501 117 CURVE SMOOTH",
"513 57 OFFCURVE",
"521 29 OFFCURVE",
"541 0 CURVE"
);
},
{
closed = 1;
nodes = (
"210 662 LINE",
"422 662 LINE SMOOTH",
"548 662 OFFCURVE",
"617 615 OFFCURVE",
"617 530 CURVE SMOOTH",
"617 408 OFFCURVE",
"519 332 OFFCURVE",
"364 332 CURVE SMOOTH",
"152 332 LINE"
);
}
);
width = 668;
}
);
note = R;
unicode = 0052;
},
{
glyphname = S;
lastChange = "2018-06-30 16:06:34 +0000";
layers = (
{
anchors = (
{
name = bottom;
position = "{366, 0}";
},
{
name = top;
position = "{366, 700}";
}
);
layerId = "0B1DFD06-3317-40CA-B510-4969A0718C16";
paths = (
{
closed = 1;
nodes = (
"560 -10 OFFCURVE",
"671 63 OFFCURVE",
"671 185 CURVE SMOOTH",
"671 295 OFFCURVE",
"593 350 OFFCURVE",
"379 391 CURVE SMOOTH",
"197 426 OFFCURVE",
"138 463 OFFCURVE",
"138 541 CURVE SMOOTH",
"138 625 OFFCURVE",
"217 672 OFFCURVE",
"357 672 CURVE SMOOTH",
"496 672 OFFCURVE",
"572 626 OFFCURVE",
"592 529 CURVE",
"652 529 LINE",
"632 646 OFFCURVE",
"530 710 OFFCURVE",
"365 710 CURVE SMOOTH",
"188 710 OFFCURVE",
"78 641 OFFCURVE",
"78 531 CURVE SMOOTH",
"78 430 OFFCURVE",
"150 382 OFFCURVE",
"355 344 CURVE SMOOTH",
"544 309 OFFCURVE",
"611 266 OFFCURVE",
"611 179 CURVE SMOOTH",
"611 83 OFFCURVE",
"524 28 OFFCURVE",
"373 28 CURVE SMOOTH",
"212 28 OFFCURVE",
"131 87 OFFCURVE",
"120 211 CURVE",
"60 211 LINE",
"74 67 OFFCURVE",
"184 -10 OFFCURVE",
"375 -10 CURVE SMOOTH"
);
}
);
width = 731;
},
{
anchors = (
{
name = bottom;
position = "{408, 0}";
},
{
name = top;
position = "{408, 700}";
}
);
layerId = "B1D894FD-A198-4769-A706-4BE987327F96";
paths = (
{
closed = 1;
nodes = (
"620 -10 OFFCURVE",
"758 63 OFFCURVE",
"758 194 CURVE SMOOTH",
"758 357 OFFCURVE",
"621 397 OFFCURVE",
"433 439 CURVE SMOOTH",
"265 476 OFFCURVE",
"243 510 OFFCURVE",
"243 551 CURVE SMOOTH",
"243 602 OFFCURVE",
"287 647 OFFCURVE",
"399 647 CURVE SMOOTH",
"511 647 OFFCURVE",
"588 616 OFFCURVE",
"607 513 CURVE",
"740 513 LINE",
"730 625 OFFCURVE",
"631 709 OFFCURVE",
"405 709 CURVE SMOOTH",
"241 709 OFFCURVE",
"74 676 OFFCURVE",
"74 527 CURVE SMOOTH",
"74 387 OFFCURVE",
"260 337 OFFCURVE",
"387 312 CURVE SMOOTH",
"561 278 OFFCURVE",
"588 235 OFFCURVE",
"588 175 CURVE SMOOTH",
"588 95 OFFCURVE",
"535 52 OFFCURVE",
"415 52 CURVE SMOOTH",
"275 52 OFFCURVE",
"198 101 OFFCURVE",
"191 226 CURVE",
"56 226 LINE",
"63 76 OFFCURVE",
"201 -10 OFFCURVE",
"417 -10 CURVE SMOOTH"
);
}
);
width = 814;
},
{
anchors = (
{
name = bottom;
position = "{383, 0}";
},
{
name = top;
position = "{383, 700}";
}
);
layerId = "BE5CE17C-12A9-439B-ACA7-F5E3A6230453";
paths = (
{
closed = 1;
nodes = (
"584 -10 OFFCURVE",
"706 63 OFFCURVE",
"706 189 CURVE SMOOTH",
"706 320 OFFCURVE",
"604 369 OFFCURVE",
"401 410 CURVE SMOOTH",
"224 446 OFFCURVE",
"180 482 OFFCURVE",
"180 545 CURVE SMOOTH",
"180 616 OFFCURVE",
"245 662 OFFCURVE",
"374 662 CURVE SMOOTH",
"502 662 OFFCURVE",
"578 622 OFFCURVE",
"598 523 CURVE",
"687 523 LINE",
"671 638 OFFCURVE",
"570 710 OFFCURVE",
"381 710 CURVE SMOOTH",
"209 710 OFFCURVE",
"76 655 OFFCURVE",
"76 529 CURVE SMOOTH",
"76 413 OFFCURVE",
"194 365 OFFCURVE",
"368 331 CURVE SMOOTH",
"551 295 OFFCURVE",
"602 254 OFFCURVE",
"602 177 CURVE SMOOTH",
"602 88 OFFCURVE",
"528 38 OFFCURVE",
"390 38 CURVE SMOOTH",
"237 38 OFFCURVE",
"158 93 OFFCURVE",
"148 217 CURVE",
"58 217 LINE",
"70 71 OFFCURVE",
"191 -10 OFFCURVE",
"392 -10 CURVE SMOOTH"
);
}
);
width = 764;
},
{
anchors = (
{
name = bottom;
position = "{365, 0}";
},
{
name = top;
position = "{489, 700}";
}
);
layerId = "536A25D8-98D8-4772-902A-7D06861A7581";
paths = (
{
closed = 1;
nodes = (
"579 -10 OFFCURVE",
"753 59 OFFCURVE",
"753 232 CURVE SMOOTH",
"753 360 OFFCURVE",
"631 401 OFFCURVE",
"467 439 CURVE SMOOTH",
"328 471 OFFCURVE",
"296 501 OFFCURVE",
"296 537 CURVE SMOOTH",
"296 602 OFFCURVE",
"363 647 OFFCURVE",
"470 647 CURVE SMOOTH",
"581 647 OFFCURVE",
"654 616 OFFCURVE",
"655 513 CURVE",
"788 513 LINE",
"788 625 OFFCURVE",
"708 709 OFFCURVE",
"482 709 CURVE SMOOTH",
"249 709 OFFCURVE",
"122 640 OFFCURVE",
"122 506 CURVE SMOOTH",
"122 387 OFFCURVE",
"281 336 OFFCURVE",
"399 312 CURVE SMOOTH",
"544 283 OFFCURVE",
"578 246 OFFCURVE",
"578 199 CURVE SMOOTH",
"578 105 OFFCURVE",
"507 52 OFFCURVE",
"381 52 CURVE SMOOTH",
"242 52 OFFCURVE",
"188 101 OFFCURVE",
"188 226 CURVE",
"53 226 LINE",
"53 76 OFFCURVE",
"161 -10 OFFCURVE",
"377 -10 CURVE SMOOTH"
);
}
);
width = 814;
},
{
anchors = (
{
name = bottom;
position = "{340, 0}";
},
{
name = top;
position = "{463, 700}";
}
);
layerId = "31528353-E0C9-4B78-80EF-CA052B4026B6";
paths = (
{
closed = 1;
nodes = (
"567 -10 OFFCURVE",
"700 77 OFFCURVE",
"700 221 CURVE SMOOTH",
"700 325 OFFCURVE",
"606 373 OFFCURVE",
"430 410 CURVE SMOOTH",
"277 442 OFFCURVE",
"231 475 OFFCURVE",
"231 526 CURVE SMOOTH",
"231 610 OFFCURVE",
"314 662 OFFCURVE",
"447 662 CURVE SMOOTH",
"576 662 OFFCURVE",
"644 622 OFFCURVE",
"647 523 CURVE",
"736 523 LINE",
"736 638 OFFCURVE",
"647 710 OFFCURVE",
"458 710 CURVE SMOOTH",
"251 710 OFFCURVE",
"124 634 OFFCURVE",
"124 507 CURVE SMOOTH",
"124 412 OFFCURVE",
"225 363 OFFCURVE",
"383 331 CURVE SMOOTH",
"540 299 OFFCURVE",
"592 263 OFFCURVE",
"592 201 CURVE SMOOTH",
"592 100 OFFCURVE",
"502 38 OFFCURVE",
"353 38 CURVE SMOOTH",
"201 38 OFFCURVE",
"143 93 OFFCURVE",
"143 217 CURVE",
"53 217 LINE",
"53 71 OFFCURVE",
"152 -10 OFFCURVE",
"352 -10 CURVE SMOOTH"
);
}
);
width = 764;
},
{
anchors = (
{
name = bottom;
position = "{323, 0}";
},
{
name = top;
position = "{446, 700}";
}
);
layerId = "D606CACE-2ACC-4371-B5A0-4D0D9ADC55EB";
paths = (
{
closed = 1;
nodes = (
"547 -10 OFFCURVE",
"664 70 OFFCURVE",
"664 209 CURVE SMOOTH",
"664 295 OFFCURVE",
"592 354 OFFCURVE",
"405 391 CURVE SMOOTH",
"243 423 OFFCURVE",
"188 452 OFFCURVE",
"188 514 CURVE SMOOTH",
"188 609 OFFCURVE",
"280 672 OFFCURVE",
"432 672 CURVE SMOOTH",
"571 672 OFFCURVE",
"639 626 OFFCURVE",
"642 529 CURVE",
"702 529 LINE",
"702 646 OFFCURVE",
"600 710 OFFCURVE",
"436 710 CURVE SMOOTH",
"244 710 OFFCURVE",
"126 632 OFFCURVE",
"126 506 CURVE SMOOTH",
"126 425 OFFCURVE",
"195 378 OFFCURVE",
"372 344 CURVE SMOOTH",
"539 312 OFFCURVE",
"602 269 OFFCURVE",
"602 199 CURVE SMOOTH",
"602 91 OFFCURVE",
"503 28 OFFCURVE",
"340 28 CURVE SMOOTH",
"179 28 OFFCURVE",
"114 87 OFFCURVE",
"114 211 CURVE",
"54 211 LINE",
"54 67 OFFCURVE",
"155 -10 OFFCURVE",
"346 -10 CURVE SMOOTH"
);
}
);
width = 731;
}
);
leftKerningGroup = S;
note = S;
rightKerningGroup = S;
unicode = 0053;
},
{
glyphname = T;
lastChange = "2018-06-30 15:09:54 +0000";
layers = (
{
anchors = (
{
name = bottom;
position = "{340, 0}";
},
{
name = center;
position = "{340, 350}";
},
{
name = top;
position = "{340, 700}";
}
);
layerId = "0B1DFD06-3317-40CA-B510-4969A0718C16";
paths = (
{
closed = 1;
nodes = (
"370 0 LINE",
"370 662 LINE",
"670 662 LINE",
"670 700 LINE",
"10 700 LINE",
"10 662 LINE",
"310 662 LINE",
"310 0 LINE"
);
}
);
width = 680;
},
{
anchors = (
{
name = bottom;
position = "{382, 0}";
},
{
name = center;
position = "{382, 350}";
},
{
name = top;
position = "{382, 700}";
}
);
layerId = "B1D894FD-A198-4769-A706-4BE987327F96";
paths = (
{
closed = 1;
nodes = (
"466 0 LINE",
"466 638 LINE",
"756 638 LINE",
"756 700 LINE",
"7 700 LINE",
"7 638 LINE",
"297 638 LINE",
"297 0 LINE"
);
}
);
width = 763;
},
{
anchors = (
{
name = bottom;
position = "{357, 0}";
},
{
name = center;
position = "{357, 350}";
},
{
name = top;
position = "{357, 700}";
}
);
layerId = "BE5CE17C-12A9-439B-ACA7-F5E3A6230453";
paths = (
{
closed = 1;
nodes = (
"409 0 LINE",
"409 652 LINE",
"704 652 LINE",
"704 700 LINE",
"9 700 LINE",
"9 652 LINE",
"305 652 LINE",
"305 0 LINE"
);
}
);
width = 713;
},
{
anchors = (
{
name = bottom;
position = "{339, 0}";
},
{
name = center;
position = "{400, 350}";
},
{
name = top;
position = "{462, 700}";
}
);
layerId = "536A25D8-98D8-4772-902A-7D06861A7581";
paths = (
{
closed = 1;
nodes = (
"423 0 LINE",
"535 638 LINE",
"825 638 LINE",
"836 700 LINE",
"87 700 LINE",
"76 638 LINE",
"366 638 LINE",
"254 0 LINE"
);
}
);
width = 763;
},
{
anchors = (
{
name = bottom;
position = "{314, 0}";
},
{
name = center;
position = "{376, 350}";
},
{
name = top;
position = "{437, 700}";
}
);
layerId = "31528353-E0C9-4B78-80EF-CA052B4026B6";
paths = (
{
closed = 1;
nodes = (
"366 0 LINE",
"481 652 LINE",
"776 652 LINE",
"784 700 LINE",
"89 700 LINE",
"81 652 LINE",
"377 652 LINE",
"262 0 LINE"
);
}
);
width = 713;
},
{
anchors = (
{
name = bottom;
position = "{297, 0}";
},
{
name = center;
position = "{359, 350}";
},
{
name = top;
position = "{421, 700}";
}
);
layerId = "D606CACE-2ACC-4371-B5A0-4D0D9ADC55EB";
paths = (
{
closed = 1;
nodes = (
"327 0 LINE",
"444 662 LINE",
"744 662 LINE",
"751 700 LINE",
"91 700 LINE",
"84 662 LINE",
"384 662 LINE",
"267 0 LINE"
);
}
);
width = 680;
}
);
leftKerningGroup = T;
note = T;
rightKerningGroup = T;
unicode = 0054;
},
{
glyphname = U;
lastChange = "2018-06-30 15:09:54 +0000";
layers = (
{
anchors = (
{
name = bottom;
position = "{386, 0}";
},
{
name = ogonek;
position = "{458, 10}";
},
{
name = top;
position = "{386, 700}";
},
{
name = topright;
position = "{686, 529}";
}
);
layerId = "0B1DFD06-3317-40CA-B510-4969A0718C16";
paths = (
{
closed = 1;
nodes = (
"595 -10 OFFCURVE",
"696 88 OFFCURVE",
"696 291 CURVE SMOOTH",
"696 700 LINE",
"636 700 LINE",
"636 268 LINE SMOOTH",
"636 104 OFFCURVE",
"556 28 OFFCURVE",
"386 28 CURVE SMOOTH",
"216 28 OFFCURVE",
"136 104 OFFCURVE",
"136 268 CURVE SMOOTH",
"136 700 LINE",
"76 700 LINE",
"76 291 LINE SMOOTH",
"76 88 OFFCURVE",
"177 -10 OFFCURVE",
"386 -10 CURVE SMOOTH"
);
}
);
width = 772;
},
{
anchors = (
{
name = bottom;
position = "{428, 0}";
},
{
name = ogonek;
position = "{507, 11}";
},
{
name = top;
position = "{428, 700}";
},
{
name = topright;
position = "{760, 529}";
}
);
layerId = "B1D894FD-A198-4769-A706-4BE987327F96";
paths = (
{
closed = 1;
nodes = (
"720 -10 OFFCURVE",
"783 135 OFFCURVE",
"783 292 CURVE SMOOTH",
"783 700 LINE",
"613 700 LINE",
"613 269 LINE SMOOTH",
"613 147 OFFCURVE",
"577 52 OFFCURVE",
"428 52 CURVE SMOOTH",
"270 52 OFFCURVE",
"242 159 OFFCURVE",
"242 269 CURVE SMOOTH",
"242 700 LINE",
"72 700 LINE",
"72 292 LINE SMOOTH",
"72 134 OFFCURVE",
"137 -10 OFFCURVE",
"428 -10 CURVE SMOOTH"
);
}
);
width = 855;
},
{
anchors = (
{
name = bottom;
position = "{403, 0}";
},
{
name = ogonek;
position = "{478, 10}";
},
{
name = top;
position = "{403, 700}";
},
{
name = topright;
position = "{716, 529}";
}
);
layerId = "BE5CE17C-12A9-439B-ACA7-F5E3A6230453";
paths = (
{
closed = 1;
nodes = (
"645 -10 OFFCURVE",
"731 107 OFFCURVE",
"731 291 CURVE SMOOTH",
"731 700 LINE",
"627 700 LINE",
"627 268 LINE SMOOTH",
"627 121 OFFCURVE",
"564 38 OFFCURVE",
"403 38 CURVE SMOOTH",
"238 38 OFFCURVE",
"178 126 OFFCURVE",
"178 268 CURVE SMOOTH",
"178 700 LINE",
"74 700 LINE",
"74 291 LINE SMOOTH",
"74 106 OFFCURVE",
"161 -10 OFFCURVE",
"403 -10 CURVE SMOOTH"
);
}
);
width = 805;
},
{
anchors = (
{
name = bottom;
position = "{385, 0}";
},
{
name = ogonek;
position = "{465, 11}";
},
{
name = top;
position = "{508, 700}";
},
{
name = topright;
position = "{810, 529}";
}
);
layerId = "536A25D8-98D8-4772-902A-7D06861A7581";
paths = (
{
closed = 1;
nodes = (
"687 -10 OFFCURVE",
"766 148 OFFCURVE",
"791 292 CURVE SMOOTH",
"863 700 LINE",
"693 700 LINE",
"617 269 LINE SMOOTH",
"598 162 OFFCURVE",
"554 52 OFFCURVE",
"394 52 CURVE SMOOTH",
"231 52 OFFCURVE",
"228 166 OFFCURVE",
"246 269 CURVE SMOOTH",
"322 700 LINE",
"152 700 LINE",
"80 292 LINE SMOOTH",
"53 138 OFFCURVE",
"88 -10 OFFCURVE",
"383 -10 CURVE SMOOTH"
);
}
);
width = 855;
},
{
anchors = (
{
name = bottom;
position = "{360, 0}";
},
{
name = ogonek;
position = "{436, 10}";
},
{
name = top;
position = "{483, 700}";
},
{
name = topright;
position = "{766, 529}";
}
);
layerId = "31528353-E0C9-4B78-80EF-CA052B4026B6";
paths = (
{
closed = 1;
nodes = (
"599 -10 OFFCURVE",
"707 107 OFFCURVE",
"739 291 CURVE SMOOTH",
"811 700 LINE",
"707 700 LINE",
"631 268 LINE SMOOTH",
"607 130 OFFCURVE",
"536 38 OFFCURVE",
"366 38 CURVE SMOOTH",
"202 38 OFFCURVE",
"157 126 OFFCURVE",
"182 268 CURVE SMOOTH",
"258 700 LINE",
"154 700 LINE",
"82 291 LINE SMOOTH",
"49 106 OFFCURVE",
"117 -10 OFFCURVE",
"358 -10 CURVE SMOOTH"
);
}
);
width = 805;
},
{
anchors = (
{
name = bottom;
position = "{343, 0}";
},
{
name = ogonek;
position = "{416, 10}";
},
{
name = top;
position = "{466, 700}";
},
{
name = topright;
position = "{736, 529}";
}
);
layerId = "D606CACE-2ACC-4371-B5A0-4D0D9ADC55EB";
paths = (
{
closed = 1;
nodes = (
"550 -10 OFFCURVE",
"668 88 OFFCURVE",
"704 291 CURVE SMOOTH",
"776 700 LINE",
"716 700 LINE",
"640 268 LINE SMOOTH",
"615 125 OFFCURVE",
"538 28 OFFCURVE",
"348 28 CURVE SMOOTH",
"177 28 OFFCURVE",
"111 105 OFFCURVE",
"140 268 CURVE SMOOTH",
"216 700 LINE",
"156 700 LINE",
"84 291 LINE SMOOTH",
"48 88 OFFCURVE",
"133 -10 OFFCURVE",
"341 -10 CURVE SMOOTH"
);
}
);
width = 772;
}
);
leftKerningGroup = U;
note = U;
rightKerningGroup = U;
unicode = 0055;
},
{
glyphname = V;
lastChange = "2018-06-30 15:09:54 +0000";
layers = (
{
anchors = (
{
name = bottom;
position = "{369, 0}";
},
{
name = top;
position = "{369, 700}";
}
);
background = {
paths = (
{
closed = 1;
nodes = (
"381 -10 LINE",
"736 700 LINE",
"698 700 LINE",
"387 69 LINE",
"76 700 LINE",
"12 700 LINE",
"366 -10 LINE"
);
}
);
};
layerId = "0B1DFD06-3317-40CA-B510-4969A0718C16";
paths = (
{
closed = 1;
nodes = (
"366 -10 LINE",
"731 700 LINE",
"692 700 LINE",
"372 71 LINE",
"77 700 LINE",
"6 700 LINE",
"349 -10 LINE"
);
}
);
width = 737;
},
{
anchors = (
{
name = bottom;
position = "{411, 0}";
},
{
name = top;
position = "{411, 700}";
}
);
background = {
paths = (
{
closed = 1;
nodes = (
"381 -10 LINE",
"736 700 LINE",
"698 700 LINE",
"387 69 LINE",
"76 700 LINE",
"12 700 LINE",
"366 -10 LINE"
);
}
);
};
layerId = "B1D894FD-A198-4769-A706-4BE987327F96";
paths = (
{
closed = 1;
nodes = (
"464 -10 LINE",
"818 700 LINE",
"706 700 LINE",
"438 167 LINE",
"183 700 LINE",
"2 700 LINE",
"354 -10 LINE"
);
}
);
width = 820;
},
{
anchors = (
{
name = bottom;
position = "{386, 0}";
},
{
name = top;
position = "{386, 700}";
}
);
layerId = "BE5CE17C-12A9-439B-ACA7-F5E3A6230453";
paths = (
{
closed = 1;
nodes = (
"405 -10 LINE",
"766 700 LINE",
"698 700 LINE",
"398 109 LINE",
"119 700 LINE",
"4 700 LINE",
"351 -10 LINE"
);
}
);
width = 770;
},
{
anchors = (
{
name = bottom;
position = "{368, 0}";
},
{
name = top;
position = "{491, 700}";
}
);
background = {
paths = (
{
closed = 1;
nodes = (
"381 -10 LINE",
"736 700 LINE",
"698 700 LINE",
"387 69 LINE",
"76 700 LINE",
"12 700 LINE",
"366 -10 LINE"
);
}
);
};
layerId = "536A25D8-98D8-4772-902A-7D06861A7581";
paths = (
{
closed = 1;
nodes = (
"419 -10 LINE",
"898 700 LINE",
"786 700 LINE",
"424 167 LINE",
"263 700 LINE",
"82 700 LINE",
"309 -10 LINE"
);
}
);
width = 820;
},
{
anchors = (
{
name = bottom;
position = "{343, 0}";
},
{
name = top;
position = "{466, 700}";
}
);
layerId = "31528353-E0C9-4B78-80EF-CA052B4026B6";
paths = (
{
closed = 1;
nodes = (
"360 -10 LINE",
"846 700 LINE",
"778 700 LINE",
"374 109 LINE",
"199 700 LINE",
"84 700 LINE",
"306 -10 LINE"
);
}
);
width = 770;
},
{
anchors = (
{
name = bottom;
position = "{326, 0}";
},
{
name = top;
position = "{449, 700}";
}
);
background = {
paths = (
{
closed = 1;
nodes = (
"381 -10 LINE",
"736 700 LINE",
"698 700 LINE",
"387 69 LINE",
"76 700 LINE",
"12 700 LINE",
"366 -10 LINE"
);
}
);
};
layerId = "D606CACE-2ACC-4371-B5A0-4D0D9ADC55EB";
paths = (
{
closed = 1;
nodes = (
"321 -10 LINE",
"811 700 LINE",
"772 700 LINE",
"341 71 LINE",
"157 700 LINE",
"86 700 LINE",
"304 -10 LINE"
);
}
);
width = 737;
}
);
note = V;
unicode = 0056;
},
{
glyphname = W;
lastChange = "2018-06-30 15:09:54 +0000";
layers = (
{
anchors = (
{
name = bottom;
position = "{481, 0}";
},
{
name = top;
position = "{481, 700}";
}
);
layerId = "0B1DFD06-3317-40CA-B510-4969A0718C16";
paths = (
{
closed = 1;
nodes = (
"275 -10 LINE",
"486 598 LINE",
"697 -10 LINE",
"711 -10 LINE",
"955 700 LINE",
"920 700 LINE",
"712 100 LINE",
"505 700 LINE",
"484 700 LINE",
"277 110 LINE",
"69 700 LINE",
"6 700 LINE",
"260 -10 LINE"
);
}
);
width = 961;
},
{
anchors = (
{
name = bottom;
position = "{523, 0}";
},
{
name = top;
position = "{523, 700}";
}
);
layerId = "B1D894FD-A198-4769-A706-4BE987327F96";
paths = (
{
closed = 1;
nodes = (
"327 -10 LINE",
"504 489 LINE",
"681 -10 LINE",
"795 -10 LINE",
"1039 700 LINE",
"939 700 LINE",
"774 222 LINE",
"602 700 LINE",
"481 700 LINE",
"318 259 LINE",
"182 700 LINE",
"5 700 LINE",
"237 -10 LINE"
);
}
);
width = 1044;
},
{
anchors = (
{
name = bottom;
position = "{498, 0}";
},
{
name = top;
position = "{498, 700}";
}
);
layerId = "BE5CE17C-12A9-439B-ACA7-F5E3A6230453";
paths = (
{
closed = 1;
nodes = (
"296 -10 LINE",
"493 554 LINE",
"691 -10 LINE",
"745 -10 LINE",
"989 700 LINE",
"928 700 LINE",
"737 149 LINE",
"544 700 LINE",
"483 700 LINE",
"293 170 LINE",
"114 700 LINE",
"6 700 LINE",
"251 -10 LINE"
);
}
);
width = 994;
},
{
anchors = (
{
name = bottom;
position = "{480, 0}";
},
{
name = top;
position = "{603, 700}";
}
);
layerId = "536A25D8-98D8-4772-902A-7D06861A7581";
paths = (
{
closed = 1;
nodes = (
"282 -10 LINE",
"547 489 LINE",
"636 -10 LINE",
"750 -10 LINE",
"1119 700 LINE",
"1019 700 LINE",
"770 222 LINE",
"682 700 LINE",
"561 700 LINE",
"320 259 LINE",
"262 700 LINE",
"85 700 LINE",
"192 -10 LINE"
);
}
);
width = 1044;
},
{
anchors = (
{
name = bottom;
position = "{455, 0}";
},
{
name = top;
position = "{578, 700}";
}
);
layerId = "31528353-E0C9-4B78-80EF-CA052B4026B6";
paths = (
{
closed = 1;
nodes = (
"251 -10 LINE",
"547 554 LINE",
"646 -10 LINE",
"700 -10 LINE",
"1069 700 LINE",
"1008 700 LINE",
"720 149 LINE",
"624 700 LINE",
"563 700 LINE",
"280 170 LINE",
"194 700 LINE",
"86 700 LINE",
"206 -10 LINE"
);
}
);
width = 994;
},
{
anchors = (
{
name = bottom;
position = "{438, 0}";
},
{
name = top;
position = "{561, 700}";
}
);
layerId = "D606CACE-2ACC-4371-B5A0-4D0D9ADC55EB";
paths = (
{
closed = 1;
nodes = (
"230 -10 LINE",
"548 598 LINE",
"652 -10 LINE",
"666 -10 LINE",
"1035 700 LINE",
"1000 700 LINE",
"686 100 LINE",
"585 700 LINE",
"564 700 LINE",
"253 110 LINE",
"149 700 LINE",
"86 700 LINE",
"215 -10 LINE"
);
}
);
width = 961;
}
);
note = W;
unicode = 0057;
},
{
glyphname = X;
lastChange = "2018-06-30 15:09:54 +0000";
layers = (
{
anchors = (
{
name = bottom;
position = "{328, 0}";
},
{
name = top;
position = "{328, 700}";
}
);
layerId = "0B1DFD06-3317-40CA-B510-4969A0718C16";
paths = (
{
closed = 1;
nodes = (
"47 0 LINE",
"639 700 LINE",
"599 700 LINE",
"6 0 LINE"
);
},
{
closed = 1;
nodes = (
"649 0 LINE",
"94 700 LINE",
"18 700 LINE",
"575 0 LINE"
);
}
);
width = 655;
},
{
anchors = (
{
name = bottom;
position = "{370, 0}";
},
{
name = top;
position = "{370, 700}";
}
);
layerId = "B1D894FD-A198-4769-A706-4BE987327F96";
paths = (
{
closed = 1;
nodes = (
"126 0 LINE",
"729 700 LINE",
"604 700 LINE",
"1 0 LINE"
);
},
{
closed = 1;
nodes = (
"738 0 LINE",
"205 700 LINE",
"12 700 LINE",
"546 0 LINE"
);
}
);
width = 739;
},
{
anchors = (
{
name = bottom;
position = "{345, 0}";
},
{
name = top;
position = "{345, 700}";
}
);
layerId = "BE5CE17C-12A9-439B-ACA7-F5E3A6230453";
paths = (
{
closed = 1;
nodes = (
"79 0 LINE",
"675 700 LINE",
"601 700 LINE",
"4 0 LINE"
);
},
{
closed = 1;
nodes = (
"685 0 LINE",
"138 700 LINE",
"16 700 LINE",
"563 0 LINE"
);
}
);
width = 689;
},
{
anchors = (
{
name = bottom;
position = "{327, 0}";
},
{
name = top;
position = "{450, 700}";
}
);
layerId = "536A25D8-98D8-4772-902A-7D06861A7581";
paths = (
{
closed = 1;
nodes = (
"83 0 LINE",
"809 700 LINE",
"684 700 LINE",
"-42 0 LINE"
);
},
{
closed = 1;
nodes = (
"695 0 LINE",
"285 700 LINE",
"92 700 LINE",
"503 0 LINE"
);
}
);
width = 739;
},
{
anchors = (
{
name = bottom;
position = "{302, 0}";
},
{
name = top;
position = "{425, 700}";
}
);
layerId = "31528353-E0C9-4B78-80EF-CA052B4026B6";
paths = (
{
closed = 1;
nodes = (
"36 0 LINE",
"755 700 LINE",
"681 700 LINE",
"-39 0 LINE"
);
},
{
closed = 1;
nodes = (
"642 0 LINE",
"218 700 LINE",
"96 700 LINE",
"520 0 LINE"
);
}
);
width = 689;
},
{
anchors = (
{
name = bottom;
position = "{285, 0}";
},
{
name = top;
position = "{408, 700}";
}
);
layerId = "D606CACE-2ACC-4371-B5A0-4D0D9ADC55EB";
paths = (
{
closed = 1;
nodes = (
"4 0 LINE",
"719 700 LINE",
"679 700 LINE",
"-37 0 LINE"
);
},
{
closed = 1;
nodes = (
"606 0 LINE",
"174 700 LINE",
"98 700 LINE",
"532 0 LINE"
);
}
);
width = 655;
}
);
note = X;
unicode = 0058;
},
{
glyphname = Y;
lastChange = "2018-06-30 15:09:54 +0000";
layers = (
{
anchors = (
{
name = bottom;
position = "{338, 0}";
},
{
name = top;
position = "{345, 700}";
}
);
layerId = "0B1DFD06-3317-40CA-B510-4969A0718C16";
paths = (
{
closed = 1;
nodes = (
"368 0 LINE",
"368 315 LINE",
"684 700 LINE",
"641 700 LINE",
"346 338 LINE",
"72 700 LINE",
"6 700 LINE",
"308 300 LINE",
"308 0 LINE"
);
}
);
width = 690;
},
{
anchors = (
{
name = bottom;
position = "{382, 0}";
},
{
name = top;
position = "{388, 700}";
}
);
layerId = "B1D894FD-A198-4769-A706-4BE987327F96";
paths = (
{
closed = 1;
nodes = (
"467 0 LINE",
"467 324 LINE",
"774 700 LINE",
"655 700 LINE",
"412 405 LINE",
"185 700 LINE",
"2 700 LINE",
"297 310 LINE",
"297 0 LINE"
);
}
);
width = 776;
},
{
anchors = (
{
name = bottom;
position = "{356, 0}";
},
{
name = top;
position = "{362, 700}";
}
);
layerId = "BE5CE17C-12A9-439B-ACA7-F5E3A6230453";
paths = (
{
closed = 1;
nodes = (
"408 0 LINE",
"408 319 LINE",
"720 700 LINE",
"647 700 LINE",
"372 365 LINE",
"117 700 LINE",
"4 700 LINE",
"304 304 LINE",
"304 0 LINE"
);
}
);
width = 724;
},
{
anchors = (
{
name = bottom;
position = "{339, 0}";
},
{
name = top;
position = "{468, 700}";
}
);
layerId = "536A25D8-98D8-4772-902A-7D06861A7581";
paths = (
{
closed = 1;
nodes = (
"424 0 LINE",
"481 324 LINE",
"854 700 LINE",
"735 700 LINE",
"440 405 LINE",
"265 700 LINE",
"82 700 LINE",
"308 310 LINE",
"254 0 LINE"
);
}
);
width = 776;
},
{
anchors = (
{
name = bottom;
position = "{313, 0}";
},
{
name = top;
position = "{442, 700}";
}
);
layerId = "31528353-E0C9-4B78-80EF-CA052B4026B6";
paths = (
{
closed = 1;
nodes = (
"365 0 LINE",
"421 319 LINE",
"800 700 LINE",
"727 700 LINE",
"393 365 LINE",
"197 700 LINE",
"84 700 LINE",
"314 304 LINE",
"261 0 LINE"
);
}
);
width = 724;
},
{
anchors = (
{
name = bottom;
position = "{295, 0}";
},
{
name = top;
position = "{425, 700}";
}
);
layerId = "D606CACE-2ACC-4371-B5A0-4D0D9ADC55EB";
paths = (
{
closed = 1;
nodes = (
"325 0 LINE",
"380 315 LINE",
"764 700 LINE",
"721 700 LINE",
"362 338 LINE",
"152 700 LINE",
"86 700 LINE",
"317 300 LINE",
"265 0 LINE"
);
}
);
width = 690;
}
);
leftKerningGroup = Y;
note = Y;
rightKerningGroup = Y;
unicode = 0059;
},
{
glyphname = Z;
lastChange = "2018-06-30 15:09:54 +0000";
layers = (
{
anchors = (
{
name = bottom;
position = "{311, 0}";
},
{
name = top;
position = "{311, 700}";
}
);
layerId = "0B1DFD06-3317-40CA-B510-4969A0718C16";
paths = (
{
closed = 1;
nodes = (
"582 0 LINE",
"582 38 LINE",
"105 38 LINE",
"602 692 LINE",
"602 700 LINE",
"55 700 LINE",
"55 662 LINE",
"516 662 LINE",
"20 8 LINE",
"20 0 LINE"
);
}
);
width = 622;
},
{
anchors = (
{
name = bottom;
position = "{353, 0}";
},
{
name = top;
position = "{353, 700}";
}
);
layerId = "B1D894FD-A198-4769-A706-4BE987327F96";
paths = (
{
closed = 1;
nodes = (
"670 0 LINE",
"670 62 LINE",
"219 62 LINE",
"689 689 LINE",
"689 700 LINE",
"50 700 LINE",
"50 638 LINE",
"486 638 LINE",
"16 11 LINE",
"16 0 LINE"
);
}
);
width = 705;
},
{
anchors = (
{
name = bottom;
position = "{328, 0}";
},
{
name = top;
position = "{328, 700}";
}
);
layerId = "BE5CE17C-12A9-439B-ACA7-F5E3A6230453";
paths = (
{
closed = 1;
nodes = (
"617 0 LINE",
"617 48 LINE",
"151 48 LINE",
"637 691 LINE",
"637 700 LINE",
"53 700 LINE",
"53 652 LINE",
"504 652 LINE",
"18 9 LINE",
"18 0 LINE"
);
}
);
width = 655;
},
{
anchors = (
{
name = bottom;
position = "{310, 0}";
},
{
name = top;
position = "{433, 700}";
}
);
layerId = "536A25D8-98D8-4772-902A-7D06861A7581";
paths = (
{
closed = 1;
nodes = (
"627 0 LINE",
"638 62 LINE",
"187 62 LINE",
"767 689 LINE",
"769 700 LINE",
"130 700 LINE",
"119 638 LINE",
"555 638 LINE",
"-25 11 LINE",
"-27 0 LINE"
);
}
);
width = 705;
},
{
anchors = (
{
name = bottom;
position = "{285, 0}";
},
{
name = top;
position = "{408, 700}";
}
);
layerId = "31528353-E0C9-4B78-80EF-CA052B4026B6";
paths = (
{
closed = 1;
nodes = (
"574 0 LINE",
"582 48 LINE",
"116 48 LINE",
"716 691 LINE",
"717 700 LINE",
"133 700 LINE",
"125 652 LINE",
"576 652 LINE",
"-23 9 LINE",
"-25 0 LINE"
);
}
);
width = 655;
},
{
anchors = (
{
name = bottom;
position = "{268, 0}";
},
{
name = top;
position = "{391, 700}";
}
);
layerId = "D606CACE-2ACC-4371-B5A0-4D0D9ADC55EB";
paths = (
{
closed = 1;
nodes = (
"539 0 LINE",
"546 38 LINE",
"69 38 LINE",
"681 692 LINE",
"682 700 LINE",
"135 700 LINE",
"129 662 LINE",
"590 662 LINE",
"-22 8 LINE",
"-23 0 LINE"
);
}
);
width = 622;
}
);
note = Z;
unicode = 005A;
},
{
glyphname = a;
lastChange = "2018-06-30 15:09:54 +0000";
layers = (
{
anchors = (
{
name = bottom;
position = "{286, 0}";
},
{
name = ogonek;
position = "{480, 10}";
},
{
name = top;
position = "{291, 490}";
}
);
layerId = "0B1DFD06-3317-40CA-B510-4969A0718C16";
paths = (
{
closed = 1;
nodes = (
"341 -10 OFFCURVE",
"409 26 OFFCURVE",
"452 98 CURVE",
"454 64 OFFCURVE",
"460 25 OFFCURVE",
"466 0 CURVE",
"517 0 LINE",
"507 56 OFFCURVE",
"503 101 OFFCURVE",
"503 160 CURVE SMOOTH",
"503 324 LINE SMOOTH",
"503 437 OFFCURVE",
"426 500 OFFCURVE",
"289 500 CURVE SMOOTH",
"167 500 OFFCURVE",
"89 445 OFFCURVE",
"75 348 CURVE",
"122 348 LINE",
"132 423 OFFCURVE",
"193 466 OFFCURVE",
"289 466 CURVE SMOOTH",
"393 466 OFFCURVE",
"449 420 OFFCURVE",
"449 335 CURVE SMOOTH",
"449 298 LINE",
"293 298 LINE SMOOTH",
"140 298 OFFCURVE",
"58 243 OFFCURVE",
"58 139 CURVE SMOOTH",
"58 43 OFFCURVE",
"125 -10 OFFCURVE",
"246 -10 CURVE SMOOTH"
);
},
{
closed = 1;
nodes = (
"164 22 OFFCURVE",
"112 63 OFFCURVE",
"112 141 CURVE SMOOTH",
"112 226 OFFCURVE",
"172 264 OFFCURVE",
"307 264 CURVE SMOOTH",
"449 264 LINE",
"449 205 LINE SMOOTH",
"449 106 OFFCURVE",
"363 22 OFFCURVE",
"263 22 CURVE SMOOTH"
);
}
);
width = 582;
},
{
anchors = (
{
name = bottom;
position = "{321, 0}";
},
{
name = ogonek;
position = "{531, 10}";
},
{
name = top;
position = "{327, 490}";
}
);
layerId = "B1D894FD-A198-4769-A706-4BE987327F96";
paths = (
{
closed = 1;
nodes = (
"333 -10 OFFCURVE",
"401 9 OFFCURVE",
"442 67 CURVE",
"445 43 OFFCURVE",
"450 22 OFFCURVE",
"456 0 CURVE",
"594 0 LINE",
"583 53 OFFCURVE",
"579 103 OFFCURVE",
"579 163 CURVE SMOOTH",
"579 321 LINE SMOOTH",
"579 437 OFFCURVE",
"490 500 OFFCURVE",
"325 500 CURVE SMOOTH",
"174 500 OFFCURVE",
"84 442 OFFCURVE",
"69 334 CURVE",
"179 334 LINE",
"189 408 OFFCURVE",
"235 448 OFFCURVE",
"311 448 CURVE SMOOTH",
"389 448 OFFCURVE",
"431 407 OFFCURVE",
"431 332 CURVE SMOOTH",
"431 299 LINE",
"300 299 LINE SMOOTH",
"141 299 OFFCURVE",
"55 242 OFFCURVE",
"55 141 CURVE SMOOTH",
"55 47 OFFCURVE",
"123 -10 OFFCURVE",
"269 -10 CURVE SMOOTH"
);
},
{
closed = 1;
nodes = (
"237 40 OFFCURVE",
"203 74 OFFCURVE",
"203 142 CURVE SMOOTH",
"203 209 OFFCURVE",
"252 247 OFFCURVE",
"342 247 CURVE SMOOTH",
"431 247 LINE",
"431 163 LINE SMOOTH",
"431 90 OFFCURVE",
"385 40 OFFCURVE",
"300 40 CURVE SMOOTH"
);
}
);
width = 654;
},
{
anchors = (
{
name = bottom;
position = "{300, 0}";
},
{
name = ogonek;
position = "{500, 10}";
},
{
name = top;
position = "{305, 490}";
}
);
layerId = "BE5CE17C-12A9-439B-ACA7-F5E3A6230453";
paths = (
{
closed = 1;
nodes = (
"338 -10 OFFCURVE",
"406 19 OFFCURVE",
"448 86 CURVE",
"450 56 OFFCURVE",
"456 24 OFFCURVE",
"462 0 CURVE",
"548 0 LINE",
"537 55 OFFCURVE",
"533 102 OFFCURVE",
"533 161 CURVE SMOOTH",
"533 323 LINE SMOOTH",
"533 437 OFFCURVE",
"452 500 OFFCURVE",
"303 500 CURVE SMOOTH",
"170 500 OFFCURVE",
"87 444 OFFCURVE",
"73 342 CURVE",
"145 342 LINE",
"155 417 OFFCURVE",
"210 459 OFFCURVE",
"298 459 CURVE SMOOTH",
"391 459 OFFCURVE",
"442 415 OFFCURVE",
"442 334 CURVE SMOOTH",
"442 298 LINE",
"296 298 LINE SMOOTH",
"140 298 OFFCURVE",
"57 243 OFFCURVE",
"57 140 CURVE SMOOTH",
"57 45 OFFCURVE",
"124 -10 OFFCURVE",
"255 -10 CURVE SMOOTH"
);
},
{
closed = 1;
nodes = (
"193 29 OFFCURVE",
"148 67 OFFCURVE",
"148 141 CURVE SMOOTH",
"148 219 OFFCURVE",
"204 257 OFFCURVE",
"321 257 CURVE SMOOTH",
"442 257 LINE",
"442 188 LINE SMOOTH",
"442 100 OFFCURVE",
"372 29 OFFCURVE",
"278 29 CURVE SMOOTH"
);
}
);
width = 611;
},
{
anchors = (
{
name = bottom;
position = "{278, 0}";
},
{
name = ogonek;
position = "{490, 10}";
},
{
name = top;
position = "{370, 490}";
}
);
layerId = "536A25D8-98D8-4772-902A-7D06861A7581";
paths = (
{
closed = 1;
nodes = (
"284 -10 OFFCURVE",
"358 7 OFFCURVE",
"411 67 CURVE",
"409 38 OFFCURVE",
"411 25 OFFCURVE",
"413 0 CURVE",
"551 0 LINE",
"549 53 OFFCURVE",
"555 106 OFFCURVE",
"565 163 CURVE SMOOTH",
"593 321 LINE SMOOTH",
"613 434 OFFCURVE",
"539 500 OFFCURVE",
"370 500 CURVE SMOOTH",
"219 500 OFFCURVE",
"119 442 OFFCURVE",
"85 334 CURVE",
"195 334 LINE",
"218 408 OFFCURVE",
"271 448 OFFCURVE",
"347 448 CURVE SMOOTH",
"424 448 OFFCURVE",
"461 407 OFFCURVE",
"447 332 CURVE SMOOTH",
"441 299 LINE",
"310 299 LINE SMOOTH",
"137 299 OFFCURVE",
"34 228 OFFCURVE",
"34 111 CURVE SMOOTH",
"34 35 OFFCURVE",
"95 -10 OFFCURVE",
"224 -10 CURVE SMOOTH"
);
},
{
closed = 1;
nodes = (
"210 40 OFFCURVE",
"182 65 OFFCURVE",
"182 113 CURVE SMOOTH",
"182 198 OFFCURVE",
"242 247 OFFCURVE",
"342 247 CURVE SMOOTH",
"431 247 LINE",
"416 163 LINE SMOOTH",
"403 90 OFFCURVE",
"348 40 OFFCURVE",
"264 40 CURVE SMOOTH"
);
}
);
width = 654;
},
{
anchors = (
{
name = bottom;
position = "{257, 0}";
},
{
name = ogonek;
position = "{459, 10}";
},
{
name = top;
position = "{349, 490}";
}
);
layerId = "31528353-E0C9-4B78-80EF-CA052B4026B6";
paths = (
{
closed = 1;
nodes = (
"298 -10 OFFCURVE",
"369 22 OFFCURVE",
"420 86 CURVE",
"417 56 OFFCURVE",
"418 23 OFFCURVE",
"419 0 CURVE",
"505 0 LINE",
"504 58 OFFCURVE",
"509 102 OFFCURVE",
"519 161 CURVE SMOOTH",
"547 323 LINE SMOOTH",
"567 437 OFFCURVE",
"496 500 OFFCURVE",
"348 500 CURVE SMOOTH",
"216 500 OFFCURVE",
"122 444 OFFCURVE",
"90 342 CURVE",
"162 342 LINE",
"186 417 OFFCURVE",
"248 459 OFFCURVE",
"336 459 CURVE SMOOTH",
"433 459 OFFCURVE",
"471 411 OFFCURVE",
"458 334 CURVE SMOOTH",
"452 298 LINE",
"306 298 LINE SMOOTH",
"135 298 OFFCURVE",
"36 228 OFFCURVE",
"36 109 CURVE SMOOTH",
"36 34 OFFCURVE",
"94 -10 OFFCURVE",
"210 -10 CURVE SMOOTH"
);
},
{
closed = 1;
nodes = (
"167 29 OFFCURVE",
"128 58 OFFCURVE",
"128 114 CURVE SMOOTH",
"128 207 OFFCURVE",
"195 257 OFFCURVE",
"323 257 CURVE SMOOTH",
"444 257 LINE",
"432 188 LINE SMOOTH",
"417 100 OFFCURVE",
"333 29 OFFCURVE",
"240 29 CURVE SMOOTH"
);
}
);
width = 611;
},
{
anchors = (
{
name = bottom;
position = "{243, 0}";
},
{
name = ogonek;
position = "{439, 10}";
},
{
name = top;
position = "{335, 490}";
}
);
layerId = "D606CACE-2ACC-4371-B5A0-4D0D9ADC55EB";
paths = (
{
closed = 1;
nodes = (
"296 -10 OFFCURVE",
"371 26 OFFCURVE",
"427 98 CURVE",
"422 61 OFFCURVE",
"422 22 OFFCURVE",
"423 0 CURVE",
"474 0 LINE",
"474 61 OFFCURVE",
"479 101 OFFCURVE",
"489 160 CURVE SMOOTH",
"518 324 LINE SMOOTH",
"538 437 OFFCURVE",
"471 500 OFFCURVE",
"335 500 CURVE SMOOTH",
"213 500 OFFCURVE",
"125 445 OFFCURVE",
"94 348 CURVE",
"141 348 LINE",
"164 423 OFFCURVE",
"233 466 OFFCURVE",
"329 466 CURVE SMOOTH",
"432 466 OFFCURVE",
"479 420 OFFCURVE",
"465 335 CURVE SMOOTH",
"459 298 LINE",
"303 298 LINE SMOOTH",
"135 298 OFFCURVE",
"37 227 OFFCURVE",
"37 108 CURVE SMOOTH",
"37 32 OFFCURVE",
"94 -10 OFFCURVE",
"202 -10 CURVE SMOOTH"
);
},
{
closed = 1;
nodes = (
"137 22 OFFCURVE",
"92 54 OFFCURVE",
"92 115 CURVE SMOOTH",
"92 215 OFFCURVE",
"166 264 OFFCURVE",
"311 264 CURVE SMOOTH",
"453 264 LINE",
"443 205 LINE SMOOTH",
"426 106 OFFCURVE",
"324 22 OFFCURVE",
"224 22 CURVE SMOOTH"
);
}
);
width = 582;
}
);
leftKerningGroup = a;
note = a;
rightKerningGroup = a;
unicode = 0061;
},
{
glyphname = b;
lastChange = "2018-06-30 15:09:54 +0000";
layers = (
{
anchors = (
{
name = bottom;
position = "{315, 0}";
},
{
name = top;
position = "{325, 683}";
}
);
layerId = "0B1DFD06-3317-40CA-B510-4969A0718C16";
paths = (
{
closed = 1;
nodes = (
"488 -10 OFFCURVE",
"580 86 OFFCURVE",
"580 244 CURVE SMOOTH",
"580 403 OFFCURVE",
"488 500 OFFCURVE",
"338 500 CURVE SMOOTH",
"242 500 OFFCURVE",
"162 458 OFFCURVE",
"124 389 CURVE",
"124 683 LINE",
"70 683 LINE",
"70 0 LINE",
"124 0 LINE",
"124 103 LINE",
"165 30 OFFCURVE",
"241 -10 OFFCURVE",
"337 -10 CURVE SMOOTH"
);
},
{
closed = 1;
nodes = (
"206 24 OFFCURVE",
"124 113 OFFCURVE",
"124 243 CURVE SMOOTH",
"124 375 OFFCURVE",
"208 466 OFFCURVE",
"329 466 CURVE SMOOTH",
"447 466 OFFCURVE",
"526 378 OFFCURVE",
"526 247 CURVE SMOOTH",
"526 114 OFFCURVE",
"445 24 OFFCURVE",
"326 24 CURVE SMOOTH"
);
}
);
width = 630;
},
{
anchors = (
{
name = bottom;
position = "{351, 0}";
},
{
name = top;
position = "{362, 683}";
}
);
layerId = "B1D894FD-A198-4769-A706-4BE987327F96";
paths = (
{
closed = 1;
nodes = (
"542 -10 OFFCURVE",
"654 101 OFFCURVE",
"654 250 CURVE SMOOTH",
"654 402 OFFCURVE",
"555 500 OFFCURVE",
"401 500 CURVE SMOOTH",
"317 500 OFFCURVE",
"251 467 OFFCURVE",
"216 407 CURVE",
"216 683 LINE",
"68 683 LINE",
"68 0 LINE",
"216 0 LINE",
"216 75 LINE",
"253 18 OFFCURVE",
"309 -10 OFFCURVE",
"387 -10 CURVE SMOOTH"
);
},
{
closed = 1;
nodes = (
"272 40 OFFCURVE",
"216 119 OFFCURVE",
"216 246 CURVE SMOOTH",
"216 373 OFFCURVE",
"273 452 OFFCURVE",
"365 452 CURVE SMOOTH",
"456 452 OFFCURVE",
"506 379 OFFCURVE",
"506 250 CURVE SMOOTH",
"506 121 OFFCURVE",
"452 40 OFFCURVE",
"362 40 CURVE SMOOTH"
);
}
);
width = 702;
},
{
anchors = (
{
name = bottom;
position = "{329, 0}";
},
{
name = top;
position = "{340, 683}";
}
);
layerId = "BE5CE17C-12A9-439B-ACA7-F5E3A6230453";
paths = (
{
closed = 1;
nodes = (
"510 -10 OFFCURVE",
"610 92 OFFCURVE",
"610 246 CURVE SMOOTH",
"610 403 OFFCURVE",
"515 500 OFFCURVE",
"363 500 CURVE SMOOTH",
"272 500 OFFCURVE",
"198 462 OFFCURVE",
"161 396 CURVE",
"161 683 LINE",
"69 683 LINE",
"69 0 LINE",
"161 0 LINE",
"161 92 LINE",
"200 25 OFFCURVE",
"268 -10 OFFCURVE",
"357 -10 CURVE SMOOTH"
);
},
{
closed = 1;
nodes = (
"232 30 OFFCURVE",
"161 115 OFFCURVE",
"161 244 CURVE SMOOTH",
"161 374 OFFCURVE",
"234 460 OFFCURVE",
"343 460 CURVE SMOOTH",
"451 460 OFFCURVE",
"518 378 OFFCURVE",
"518 248 CURVE SMOOTH",
"518 117 OFFCURVE",
"448 30 OFFCURVE",
"340 30 CURVE SMOOTH"
);
}
);
width = 659;
},
{
anchors = (
{
name = bottom;
position = "{308, 0}";
},
{
name = top;
position = "{439, 683}";
}
);
layerId = "536A25D8-98D8-4772-902A-7D06861A7581";
paths = (
{
closed = 1;
nodes = (
"517 -10 OFFCURVE",
"660 132 OFFCURVE",
"660 305 CURVE SMOOTH",
"660 425 OFFCURVE",
"580 500 OFFCURVE",
"446 500 CURVE SMOOTH",
"363 500 OFFCURVE",
"290 467 OFFCURVE",
"245 407 CURVE",
"293 683 LINE",
"145 683 LINE",
"25 0 LINE",
"173 0 LINE",
"186 75 LINE",
"213 18 OFFCURVE",
"265 -10 OFFCURVE",
"342 -10 CURVE SMOOTH"
);
},
{
closed = 1;
nodes = (
"252 40 OFFCURVE",
"210 94 OFFCURVE",
"210 183 CURVE SMOOTH",
"210 333 OFFCURVE",
"295 452 OFFCURVE",
"402 452 CURVE SMOOTH",
"475 452 OFFCURVE",
"514 404 OFFCURVE",
"514 318 CURVE SMOOTH",
"514 164 OFFCURVE",
"430 40 OFFCURVE",
"326 40 CURVE SMOOTH"
);
}
);
width = 702;
},
{
anchors = (
{
name = bottom;
position = "{286, 0}";
},
{
name = top;
position = "{417, 683}";
}
);
layerId = "31528353-E0C9-4B78-80EF-CA052B4026B6";
paths = (
{
closed = 1;
nodes = (
"485 -10 OFFCURVE",
"616 126 OFFCURVE",
"616 306 CURVE SMOOTH",
"616 427 OFFCURVE",
"540 500 OFFCURVE",
"408 500 CURVE SMOOTH",
"320 500 OFFCURVE",
"238 464 OFFCURVE",
"188 396 CURVE",
"238 683 LINE",
"146 683 LINE",
"26 0 LINE",
"118 0 LINE",
"134 92 LINE",
"161 25 OFFCURVE",
"224 -10 OFFCURVE",
"312 -10 CURVE SMOOTH"
);
},
{
closed = 1;
nodes = (
"210 30 OFFCURVE",
"156 93 OFFCURVE",
"156 190 CURVE SMOOTH",
"156 339 OFFCURVE",
"256 460 OFFCURVE",
"381 460 CURVE SMOOTH",
"472 460 OFFCURVE",
"524 401 OFFCURVE",
"524 305 CURVE SMOOTH",
"524 152 OFFCURVE",
"425 30 OFFCURVE",
"302 30 CURVE SMOOTH"
);
}
);
width = 659;
},
{
anchors = (
{
name = bottom;
position = "{272, 0}";
},
{
name = top;
position = "{402, 683}";
}
);
layerId = "D606CACE-2ACC-4371-B5A0-4D0D9ADC55EB";
paths = (
{
closed = 1;
nodes = (
"463 -10 OFFCURVE",
"586 123 OFFCURVE",
"586 307 CURVE SMOOTH",
"586 428 OFFCURVE",
"512 500 OFFCURVE",
"383 500 CURVE SMOOTH",
"287 500 OFFCURVE",
"200 458 OFFCURVE",
"150 389 CURVE",
"201 683 LINE",
"147 683 LINE",
"27 0 LINE",
"81 0 LINE",
"99 103 LINE",
"127 30 OFFCURVE",
"197 -10 OFFCURVE",
"292 -10 CURVE SMOOTH"
);
},
{
closed = 1;
nodes = (
"183 24 OFFCURVE",
"119 92 OFFCURVE",
"119 194 CURVE SMOOTH",
"119 344 OFFCURVE",
"231 466 OFFCURVE",
"368 466 CURVE SMOOTH",
"470 466 OFFCURVE",
"531 400 OFFCURVE",
"531 298 CURVE SMOOTH",
"531 146 OFFCURVE",
"422 24 OFFCURVE",
"287 24 CURVE SMOOTH"
);
}
);
width = 630;
}
);
note = b;
rightKerningGroup = b;
unicode = 0062;
},
{
glyphname = c;
lastChange = "2018-06-30 16:07:37 +0000";
layers = (
{
anchors = (
{
name = bottom;
position = "{302, 0}";
},
{
name = top;
position = "{302, 490}";
}
);
layerId = "0B1DFD06-3317-40CA-B510-4969A0718C16";
paths = (
{
closed = 1;
nodes = (
"435 -10 OFFCURVE",
"529 52 OFFCURVE",
"554 149 CURVE",
"502 149 LINE",
"480 74 OFFCURVE",
"404 24 OFFCURVE",
"311 24 CURVE SMOOTH",
"187 24 OFFCURVE",
"104 113 OFFCURVE",
"104 245 CURVE SMOOTH",
"104 377 OFFCURVE",
"187 466 OFFCURVE",
"311 466 CURVE SMOOTH",
"404 466 OFFCURVE",
"479 417 OFFCURVE",
"502 341 CURVE",
"554 341 LINE",
"527 439 OFFCURVE",
"435 500 OFFCURVE",
"314 500 CURVE SMOOTH",
"156 500 OFFCURVE",
"50 397 OFFCURVE",
"50 245 CURVE SMOOTH",
"50 92 OFFCURVE",
"156 -10 OFFCURVE",
"315 -10 CURVE SMOOTH"
);
}
);
width = 604;
},
{
anchors = (
{
name = bottom;
position = "{338, 0}";
},
{
name = top;
position = "{338, 490}";
}
);
layerId = "B1D894FD-A198-4769-A706-4BE987327F96";
paths = (
{
closed = 1;
nodes = (
"511 -10 OFFCURVE",
"612 50 OFFCURVE",
"627 162 CURVE",
"517 162 LINE",
"503 84 OFFCURVE",
"442 42 OFFCURVE",
"363 42 CURVE SMOOTH",
"254 42 OFFCURVE",
"196 113 OFFCURVE",
"196 245 CURVE SMOOTH",
"196 377 OFFCURVE",
"254 448 OFFCURVE",
"363 448 CURVE SMOOTH",
"446 448 OFFCURVE",
"503 406 OFFCURVE",
"517 328 CURVE",
"627 328 LINE",
"612 440 OFFCURVE",
"512 500 OFFCURVE",
"349 500 CURVE SMOOTH",
"158 500 OFFCURVE",
"48 411 OFFCURVE",
"48 245 CURVE SMOOTH",
"48 79 OFFCURVE",
"158 -10 OFFCURVE",
"349 -10 CURVE SMOOTH"
);
}
);
width = 676;
},
{
anchors = (
{
name = bottom;
position = "{316, 0}";
},
{
name = top;
position = "{316, 490}";
}
);
layerId = "BE5CE17C-12A9-439B-ACA7-F5E3A6230453";
paths = (
{
closed = 1;
nodes = (
"465 -10 OFFCURVE",
"562 51 OFFCURVE",
"583 154 CURVE",
"508 154 LINE",
"489 78 OFFCURVE",
"419 31 OFFCURVE",
"332 31 CURVE SMOOTH",
"214 31 OFFCURVE",
"141 113 OFFCURVE",
"141 245 CURVE SMOOTH",
"141 377 OFFCURVE",
"214 459 OFFCURVE",
"332 459 CURVE SMOOTH",
"421 459 OFFCURVE",
"489 413 OFFCURVE",
"508 336 CURVE",
"583 336 LINE",
"561 439 OFFCURVE",
"466 500 OFFCURVE",
"328 500 CURVE SMOOTH",
"157 500 OFFCURVE",
"49 403 OFFCURVE",
"49 245 CURVE SMOOTH",
"49 87 OFFCURVE",
"157 -10 OFFCURVE",
"329 -10 CURVE SMOOTH"
);
}
);
width = 633;
},
{
anchors = (
{
name = bottom;
position = "{295, 0}";
},
{
name = top;
position = "{381, 490}";
}
);
layerId = "536A25D8-98D8-4772-902A-7D06861A7581";
paths = (
{
closed = 1;
nodes = (
"471 -10 OFFCURVE",
"578 50 OFFCURVE",
"613 162 CURVE",
"503 162 LINE",
"475 84 OFFCURVE",
"406 42 OFFCURVE",
"327 42 CURVE SMOOTH",
"237 42 OFFCURVE",
"190 91 OFFCURVE",
"190 183 CURVE SMOOTH",
"190 340 OFFCURVE",
"275 448 OFFCURVE",
"399 448 CURVE SMOOTH",
"482 448 OFFCURVE",
"532 406 OFFCURVE",
"532 328 CURVE",
"642 328 LINE",
"642 440 OFFCURVE",
"551 500 OFFCURVE",
"389 500 CURVE SMOOTH",
"175 500 OFFCURVE",
"43 378 OFFCURVE",
"43 189 CURVE SMOOTH",
"43 59 OFFCURVE",
"142 -10 OFFCURVE",
"309 -10 CURVE SMOOTH"
);
}
);
width = 676;
},
{
anchors = (
{
name = bottom;
position = "{273, 0}";
},
{
name = top;
position = "{359, 490}";
}
);
layerId = "31528353-E0C9-4B78-80EF-CA052B4026B6";
paths = (
{
closed = 1;
nodes = (
"424 -10 OFFCURVE",
"528 51 OFFCURVE",
"567 154 CURVE",
"492 154 LINE",
"459 77 OFFCURVE",
"380 31 OFFCURVE",
"294 31 CURVE SMOOTH",
"194 31 OFFCURVE",
"136 91 OFFCURVE",
"136 191 CURVE SMOOTH",
"136 344 OFFCURVE",
"236 459 OFFCURVE",
"370 459 CURVE SMOOTH",
"458 459 OFFCURVE",
"519 413 OFFCURVE",
"524 336 CURVE",
"599 336 LINE",
"595 439 OFFCURVE",
"506 500 OFFCURVE",
"368 500 CURVE SMOOTH",
"177 500 OFFCURVE",
"44 371 OFFCURVE",
"44 191 CURVE SMOOTH",
"44 65 OFFCURVE",
"138 -10 OFFCURVE",
"289 -10 CURVE SMOOTH"
);
}
);
width = 633;
},
{
anchors = (
{
name = bottom;
position = "{259, 0}";
},
{
name = top;
position = "{345, 490}";
}
);
layerId = "D606CACE-2ACC-4371-B5A0-4D0D9ADC55EB";
paths = (
{
closed = 1;
nodes = (
"397 -10 OFFCURVE",
"495 52 OFFCURVE",
"537 149 CURVE",
"485 149 LINE",
"450 74 OFFCURVE",
"364 24 OFFCURVE",
"272 24 CURVE SMOOTH",
"165 24 OFFCURVE",
"99 91 OFFCURVE",
"99 195 CURVE SMOOTH",
"99 347 OFFCURVE",
"210 466 OFFCURVE",
"350 466 CURVE SMOOTH",
"443 466 OFFCURVE",
"509 417 OFFCURVE",
"519 341 CURVE",
"571 341 LINE",
"561 439 OFFCURVE",
"471 500 OFFCURVE",
"351 500 CURVE SMOOTH",
"174 500 OFFCURVE",
"45 365 OFFCURVE",
"45 192 CURVE SMOOTH",
"45 69 OFFCURVE",
"138 -10 OFFCURVE",
"278 -10 CURVE SMOOTH"
);
}
);
width = 604;
}
);
leftKerningGroup = c;
note = c;
rightKerningGroup = c;
unicode = 0063;
},
{
glyphname = d;
lastChange = "2018-06-30 15:09:54 +0000";
layers = (
{
anchors = (
{
name = bottom;
position = "{315, 0}";
},
{
name = center;
position = "{315, 245}";
},
{
name = top;
position = "{315, 683}";
},
{
name = topright;
position = "{590, 683}";
}
);
layerId = "0B1DFD06-3317-40CA-B510-4969A0718C16";
paths = (
{
closed = 1;
nodes = (
"393 -10 OFFCURVE",
"469 30 OFFCURVE",
"506 99 CURVE",
"506 0 LINE",
"560 0 LINE",
"560 683 LINE",
"506 683 LINE",
"506 393 LINE",
"466 461 OFFCURVE",
"389 500 OFFCURVE",
"296 500 CURVE SMOOTH",
"151 500 OFFCURVE",
"50 395 OFFCURVE",
"50 244 CURVE SMOOTH",
"50 93 OFFCURVE",
"152 -10 OFFCURVE",
"300 -10 CURVE SMOOTH"
);
},
{
closed = 1;
nodes = (
"186 24 OFFCURVE",
"104 115 OFFCURVE",
"104 247 CURVE SMOOTH",
"104 377 OFFCURVE",
"184 466 OFFCURVE",
"302 466 CURVE SMOOTH",
"423 466 OFFCURVE",
"506 375 OFFCURVE",
"506 242 CURVE SMOOTH",
"506 113 OFFCURVE",
"424 24 OFFCURVE",
"305 24 CURVE SMOOTH"
);
}
);
width = 630;
},
{
anchors = (
{
name = bottom;
position = "{351, 0}";
},
{
name = center;
position = "{351, 245}";
},
{
name = top;
position = "{351, 683}";
},
{
name = topright;
position = "{677, 683}";
}
);
layerId = "B1D894FD-A198-4769-A706-4BE987327F96";
paths = (
{
closed = 1;
nodes = (
"393 -10 OFFCURVE",
"449 18 OFFCURVE",
"486 75 CURVE",
"486 0 LINE",
"634 0 LINE",
"634 683 LINE",
"486 683 LINE",
"486 407 LINE",
"451 467 OFFCURVE",
"385 500 OFFCURVE",
"301 500 CURVE SMOOTH",
"147 500 OFFCURVE",
"48 403 OFFCURVE",
"48 247 CURVE SMOOTH",
"48 97 OFFCURVE",
"160 -10 OFFCURVE",
"315 -10 CURVE SMOOTH"
);
},
{
closed = 1;
nodes = (
"250 40 OFFCURVE",
"196 117 OFFCURVE",
"196 247 CURVE SMOOTH",
"196 380 OFFCURVE",
"246 452 OFFCURVE",
"337 452 CURVE SMOOTH",
"429 452 OFFCURVE",
"486 374 OFFCURVE",
"486 244 CURVE SMOOTH",
"486 119 OFFCURVE",
"430 40 OFFCURVE",
"340 40 CURVE SMOOTH"
);
}
);
width = 702;
},
{
anchors = (
{
name = bottom;
position = "{329, 0}";
},
{
name = center;
position = "{329, 245}";
},
{
name = top;
position = "{329, 683}";
},
{
name = topright;
position = "{625, 683}";
}
);
layerId = "BE5CE17C-12A9-439B-ACA7-F5E3A6230453";
paths = (
{
closed = 1;
nodes = (
"393 -10 OFFCURVE",
"461 25 OFFCURVE",
"498 89 CURVE",
"498 0 LINE",
"590 0 LINE",
"590 683 LINE",
"498 683 LINE",
"498 399 LINE",
"460 463 OFFCURVE",
"387 500 OFFCURVE",
"298 500 CURVE SMOOTH",
"149 500 OFFCURVE",
"49 398 OFFCURVE",
"49 245 CURVE SMOOTH",
"49 95 OFFCURVE",
"155 -10 OFFCURVE",
"306 -10 CURVE SMOOTH"
);
},
{
closed = 1;
nodes = (
"212 30 OFFCURVE",
"141 116 OFFCURVE",
"141 247 CURVE SMOOTH",
"141 378 OFFCURVE",
"209 460 OFFCURVE",
"316 460 CURVE SMOOTH",
"425 460 OFFCURVE",
"498 375 OFFCURVE",
"498 243 CURVE SMOOTH",
"498 115 OFFCURVE",
"426 30 OFFCURVE",
"319 30 CURVE SMOOTH"
);
}
);
width = 659;
},
{
anchors = (
{
name = bottom;
position = "{308, 0}";
},
{
name = center;
position = "{351, 245}";
},
{
name = top;
position = "{428, 683}";
},
{
name = topright;
position = "{754, 683}";
}
);
layerId = "536A25D8-98D8-4772-902A-7D06861A7581";
paths = (
{
closed = 1;
nodes = (
"348 -10 OFFCURVE",
"409 18 OFFCURVE",
"456 75 CURVE",
"443 0 LINE",
"591 0 LINE",
"711 683 LINE",
"563 683 LINE",
"515 407 LINE",
"490 467 OFFCURVE",
"430 500 OFFCURVE",
"346 500 CURVE SMOOTH",
"175 500 OFFCURVE",
"44 369 OFFCURVE",
"44 198 CURVE SMOOTH",
"44 74 OFFCURVE",
"133 -10 OFFCURVE",
"270 -10 CURVE SMOOTH"
);
},
{
closed = 1;
nodes = (
"231 40 OFFCURVE",
"190 91 OFFCURVE",
"190 181 CURVE SMOOTH",
"190 336 OFFCURVE",
"269 452 OFFCURVE",
"374 452 CURVE SMOOTH",
"449 452 OFFCURVE",
"492 399 OFFCURVE",
"492 308 CURVE SMOOTH",
"492 159 OFFCURVE",
"409 40 OFFCURVE",
"304 40 CURVE SMOOTH"
);
}
);
width = 702;
},
{
anchors = (
{
name = bottom;
position = "{286, 0}";
},
{
name = center;
position = "{330, 245}";
},
{
name = top;
position = "{407, 683}";
},
{
name = topright;
position = "{703, 683}";
}
);
layerId = "31528353-E0C9-4B78-80EF-CA052B4026B6";
paths = (
{
closed = 1;
nodes = (
"348 -10 OFFCURVE",
"423 25 OFFCURVE",
"471 89 CURVE",
"455 0 LINE",
"547 0 LINE",
"668 683 LINE",
"576 683 LINE",
"526 399 LINE",
"499 463 OFFCURVE",
"432 500 OFFCURVE",
"344 500 CURVE SMOOTH",
"177 500 OFFCURVE",
"45 364 OFFCURVE",
"45 193 CURVE SMOOTH",
"45 72 OFFCURVE",
"129 -10 OFFCURVE",
"262 -10 CURVE SMOOTH"
);
},
{
closed = 1;
nodes = (
"191 30 OFFCURVE",
"137 92 OFFCURVE",
"137 191 CURVE SMOOTH",
"137 342 OFFCURVE",
"232 460 OFFCURVE",
"355 460 CURVE SMOOTH",
"447 460 OFFCURVE",
"503 398 OFFCURVE",
"503 298 CURVE SMOOTH",
"503 149 OFFCURVE",
"405 30 OFFCURVE",
"282 30 CURVE SMOOTH"
);
}
);
width = 659;
},
{
anchors = (
{
name = bottom;
position = "{272, 0}";
},
{
name = center;
position = "{315, 245}";
},
{
name = top;
position = "{392, 683}";
},
{
name = topright;
position = "{667, 683}";
}
);
layerId = "D606CACE-2ACC-4371-B5A0-4D0D9ADC55EB";
paths = (
{
closed = 1;
nodes = (
"348 -10 OFFCURVE",
"431 30 OFFCURVE",
"480 99 CURVE",
"463 0 LINE",
"517 0 LINE",
"637 683 LINE",
"583 683 LINE",
"532 393 LINE",
"504 461 OFFCURVE",
"434 500 OFFCURVE",
"341 500 CURVE SMOOTH",
"178 500 OFFCURVE",
"45 361 OFFCURVE",
"45 190 CURVE SMOOTH",
"45 69 OFFCURVE",
"126 -10 OFFCURVE",
"255 -10 CURVE SMOOTH"
);
},
{
closed = 1;
nodes = (
"163 24 OFFCURVE",
"100 93 OFFCURVE",
"100 196 CURVE SMOOTH",
"100 345 OFFCURVE",
"207 466 OFFCURVE",
"341 466 CURVE SMOOTH",
"446 466 OFFCURVE",
"510 397 OFFCURVE",
"510 293 CURVE SMOOTH",
"510 144 OFFCURVE",
"402 24 OFFCURVE",
"266 24 CURVE SMOOTH"
);
}
);
width = 630;
}
);
leftKerningGroup = d;
note = d;
unicode = 0064;
},
{
glyphname = e;
lastChange = "2018-06-30 15:09:54 +0000";
layers = (
{
anchors = (
{
name = bottom;
position = "{301, 0}";
},
{
name = ogonek;
position = "{434, 44}";
},
{
name = top;
position = "{301, 490}";
}
);
background = {
paths = (
{
closed = 0;
nodes = (
"295 466 LINE SMOOTH",
"381 466 OFFCURVE",
"445 417 OFFCURVE",
"466 341 CURVE",
"520 341 LINE",
"495 439 OFFCURVE",
"415 500 OFFCURVE",
"301 500 CURVE SMOOTH"
);
}
);
};
layerId = "0B1DFD06-3317-40CA-B510-4969A0718C16";
paths = (
{
closed = 1;
nodes = (
"426 -10 OFFCURVE",
"517 51 OFFCURVE",
"544 149 CURVE",
"492 149 LINE",
"473 75 OFFCURVE",
"395 24 OFFCURVE",
"303 24 CURVE SMOOTH",
"182 24 OFFCURVE",
"104 112 OFFCURVE",
"104 247 CURVE SMOOTH",
"104 383 OFFCURVE",
"179 466 OFFCURVE",
"304 466 CURVE SMOOTH",
"425 466 OFFCURVE",
"498 388 OFFCURVE",
"505 252 CURVE",
"551 252 LINE",
"545 407 OFFCURVE",
"452 500 OFFCURVE",
"305 500 CURVE SMOOTH",
"152 500 OFFCURVE",
"50 398 OFFCURVE",
"50 243 CURVE SMOOTH",
"50 91 OFFCURVE",
"152 -10 OFFCURVE",
"307 -10 CURVE SMOOTH"
);
},
{
closed = 1;
nodes = (
"526 252 LINE",
"526 286 LINE",
"80 286 LINE",
"80 252 LINE"
);
}
);
width = 601;
},
{
anchors = (
{
name = bottom;
position = "{337, 0}";
},
{
name = ogonek;
position = "{496, 57}";
},
{
name = top;
position = "{337, 490}";
}
);
background = {
paths = (
{
closed = 0;
nodes = (
"295 466 LINE SMOOTH",
"381 466 OFFCURVE",
"445 417 OFFCURVE",
"466 341 CURVE",
"520 341 LINE",
"495 439 OFFCURVE",
"415 500 OFFCURVE",
"301 500 CURVE SMOOTH"
);
}
);
};
layerId = "B1D894FD-A198-4769-A706-4BE987327F96";
paths = (
{
closed = 1;
nodes = (
"489 -10 OFFCURVE",
"597 50 OFFCURVE",
"620 162 CURVE",
"510 162 LINE",
"496 84 OFFCURVE",
"451 42 OFFCURVE",
"358 42 CURVE SMOOTH",
"244 42 OFFCURVE",
"196 115 OFFCURVE",
"196 236 CURVE SMOOTH",
"196 369 OFFCURVE",
"246 448 OFFCURVE",
"346 448 CURVE SMOOTH",
"438 448 OFFCURVE",
"486 376 OFFCURVE",
"486 242 CURVE",
"626 242 LINE",
"626 410 OFFCURVE",
"526 500 OFFCURVE",
"341 500 CURVE SMOOTH",
"159 500 OFFCURVE",
"48 402 OFFCURVE",
"48 243 CURVE SMOOTH",
"48 86 OFFCURVE",
"159 -10 OFFCURVE",
"341 -10 CURVE SMOOTH"
);
},
{
closed = 1;
nodes = (
"601 242 LINE",
"601 294 LINE",
"76 294 LINE",
"76 242 LINE"
);
}
);
width = 672;
},
{
anchors = (
{
name = bottom;
position = "{315, 0}";
},
{
name = ogonek;
position = "{459, 49}";
},
{
name = top;
position = "{315, 490}";
}
);
layerId = "BE5CE17C-12A9-439B-ACA7-F5E3A6230453";
paths = (
{
closed = 1;
nodes = (
"451 -10 OFFCURVE",
"549 51 OFFCURVE",
"574 154 CURVE",
"499 154 LINE",
"482 79 OFFCURVE",
"417 31 OFFCURVE",
"325 31 CURVE SMOOTH",
"207 31 OFFCURVE",
"141 113 OFFCURVE",
"141 243 CURVE SMOOTH",
"141 377 OFFCURVE",
"206 459 OFFCURVE",
"321 459 CURVE SMOOTH",
"430 459 OFFCURVE",
"493 383 OFFCURVE",
"497 248 CURVE",
"581 248 LINE",
"577 408 OFFCURVE",
"482 500 OFFCURVE",
"319 500 CURVE SMOOTH",
"155 500 OFFCURVE",
"49 400 OFFCURVE",
"49 243 CURVE SMOOTH",
"49 89 OFFCURVE",
"155 -10 OFFCURVE",
"321 -10 CURVE SMOOTH"
);
},
{
closed = 1;
nodes = (
"556 248 LINE",
"556 289 LINE",
"78 289 LINE",
"78 248 LINE"
);
}
);
width = 629;
},
{
anchors = (
{
name = bottom;
position = "{294, 0}";
},
{
name = ogonek;
position = "{463, 57}";
},
{
name = top;
position = "{380, 490}";
}
);
background = {
paths = (
{
closed = 0;
nodes = (
"295 466 LINE SMOOTH",
"381 466 OFFCURVE",
"445 417 OFFCURVE",
"466 341 CURVE",
"520 341 LINE",
"495 439 OFFCURVE",
"415 500 OFFCURVE",
"301 500 CURVE SMOOTH"
);
}
);
};
layerId = "536A25D8-98D8-4772-902A-7D06861A7581";
paths = (
{
closed = 1;
nodes = (
"444 -10 OFFCURVE",
"563 50 OFFCURVE",
"605 162 CURVE",
"495 162 LINE",
"468 84 OFFCURVE",
"414 42 OFFCURVE",
"322 42 CURVE SMOOTH",
"229 42 OFFCURVE",
"189 91 OFFCURVE",
"189 175 CURVE SMOOTH",
"189 330 OFFCURVE",
"272 448 OFFCURVE",
"382 448 CURVE SMOOTH",
"474 448 OFFCURVE",
"509 376 OFFCURVE",
"486 242 CURVE",
"626 242 LINE",
"655 410 OFFCURVE",
"571 500 OFFCURVE",
"386 500 CURVE SMOOTH",
"185 500 OFFCURVE",
"43 372 OFFCURVE",
"43 191 CURVE SMOOTH",
"43 65 OFFCURVE",
"136 -10 OFFCURVE",
"296 -10 CURVE SMOOTH"
);
},
{
closed = 1;
nodes = (
"601 242 LINE",
"610 294 LINE",
"85 294 LINE",
"76 242 LINE"
);
}
);
width = 672;
},
{
anchors = (
{
name = bottom;
position = "{272, 0}";
},
{
name = ogonek;
position = "{425, 49}";
},
{
name = top;
position = "{358, 490}";
}
);
layerId = "31528353-E0C9-4B78-80EF-CA052B4026B6";
paths = (
{
closed = 1;
nodes = (
"406 -10 OFFCURVE",
"515 51 OFFCURVE",
"558 154 CURVE",
"483 154 LINE",
"453 79 OFFCURVE",
"379 31 OFFCURVE",
"287 31 CURVE SMOOTH",
"188 31 OFFCURVE",
"136 90 OFFCURVE",
"136 186 CURVE SMOOTH",
"136 343 OFFCURVE",
"231 459 OFFCURVE",
"359 459 CURVE SMOOTH",
"471 459 OFFCURVE",
"517 379 OFFCURVE",
"498 248 CURVE",
"582 248 LINE",
"606 408 OFFCURVE",
"527 500 OFFCURVE",
"364 500 CURVE SMOOTH",
"181 500 OFFCURVE",
"44 367 OFFCURVE",
"44 190 CURVE SMOOTH",
"44 67 OFFCURVE",
"130 -10 OFFCURVE",
"276 -10 CURVE SMOOTH"
);
},
{
closed = 1;
nodes = (
"557 248 LINE",
"564 289 LINE",
"86 289 LINE",
"79 248 LINE"
);
}
);
width = 629;
},
{
anchors = (
{
name = bottom;
position = "{258, 0}";
},
{
name = ogonek;
position = "{399, 44}";
},
{
name = top;
position = "{344, 490}";
}
);
background = {
paths = (
{
closed = 0;
nodes = (
"295 466 LINE SMOOTH",
"381 466 OFFCURVE",
"445 417 OFFCURVE",
"466 341 CURVE",
"520 341 LINE",
"495 439 OFFCURVE",
"415 500 OFFCURVE",
"301 500 CURVE SMOOTH"
);
}
);
};
layerId = "D606CACE-2ACC-4371-B5A0-4D0D9ADC55EB";
paths = (
{
closed = 1;
nodes = (
"381 -10 OFFCURVE",
"483 51 OFFCURVE",
"527 149 CURVE",
"475 149 LINE",
"443 75 OFFCURVE",
"356 24 OFFCURVE",
"264 24 CURVE SMOOTH",
"161 24 OFFCURVE",
"100 89 OFFCURVE",
"100 193 CURVE SMOOTH",
"100 351 OFFCURVE",
"203 466 OFFCURVE",
"343 466 CURVE SMOOTH",
"467 466 OFFCURVE",
"523 385 OFFCURVE",
"507 252 CURVE",
"553 252 LINE",
"574 407 OFFCURVE",
"497 500 OFFCURVE",
"350 500 CURVE SMOOTH",
"179 500 OFFCURVE",
"45 364 OFFCURVE",
"45 189 CURVE SMOOTH",
"45 68 OFFCURVE",
"127 -10 OFFCURVE",
"262 -10 CURVE SMOOTH"
);
},
{
closed = 1;
nodes = (
"528 252 LINE",
"534 286 LINE",
"88 286 LINE",
"82 252 LINE"
);
}
);
width = 601;
}
);
leftKerningGroup = e;
note = e;
rightKerningGroup = e;
unicode = 0065;
},
{
glyphname = f;
lastChange = "2018-06-30 15:09:54 +0000";
layers = (
{
anchors = (
{
name = bottom;
position = "{156, 0}";
},
{
name = top;
position = "{164, 679}";
}
);
layerId = "0B1DFD06-3317-40CA-B510-4969A0718C16";
paths = (
{
closed = 1;
nodes = (
"173 0 LINE",
"173 456 LINE",
"301 456 LINE",
"312 490 LINE",
"173 490 LINE",
"173 561 LINE SMOOTH",
"173 612 OFFCURVE",
"204 645 OFFCURVE",
"252 645 CURVE SMOOTH",
"273 645 OFFCURVE",
"292 638 OFFCURVE",
"305 626 CURVE",
"318 661 LINE",
"303 672 OFFCURVE",
"277 679 OFFCURVE",
"246 679 CURVE SMOOTH",
"164 679 OFFCURVE",
"119 631 OFFCURVE",
"119 543 CURVE SMOOTH",
"119 490 LINE",
"28 490 LINE",
"16 456 LINE",
"119 456 LINE",
"119 0 LINE"
);
}
);
width = 312;
},
{
anchors = (
{
name = bottom;
position = "{192, 0}";
},
{
name = top;
position = "{202, 679}";
}
);
layerId = "B1D894FD-A198-4769-A706-4BE987327F96";
paths = (
{
closed = 1;
nodes = (
"257 0 LINE",
"257 438 LINE",
"378 438 LINE",
"389 490 LINE",
"257 490 LINE",
"257 541 LINE SMOOTH",
"257 597 OFFCURVE",
"285 627 OFFCURVE",
"336 627 CURVE SMOOTH",
"357 627 OFFCURVE",
"376 620 OFFCURVE",
"389 608 CURVE",
"402 661 LINE",
"372 673 OFFCURVE",
"333 679 OFFCURVE",
"290 679 CURVE SMOOTH",
"172 679 OFFCURVE",
"109 631 OFFCURVE",
"109 543 CURVE SMOOTH",
"109 490 LINE",
"23 490 LINE",
"11 438 LINE",
"109 438 LINE",
"109 0 LINE"
);
}
);
width = 384;
},
{
anchors = (
{
name = bottom;
position = "{170, 0}";
},
{
name = top;
position = "{179, 679}";
}
);
layerId = "BE5CE17C-12A9-439B-ACA7-F5E3A6230453";
paths = (
{
closed = 1;
nodes = (
"207 0 LINE",
"207 449 LINE",
"332 449 LINE",
"343 490 LINE",
"207 490 LINE",
"207 553 LINE SMOOTH",
"207 606 OFFCURVE",
"236 638 OFFCURVE",
"286 638 CURVE SMOOTH",
"307 638 OFFCURVE",
"326 631 OFFCURVE",
"339 619 CURVE",
"352 661 LINE",
"331 672 OFFCURVE",
"299 679 OFFCURVE",
"264 679 CURVE SMOOTH",
"167 679 OFFCURVE",
"115 631 OFFCURVE",
"115 543 CURVE SMOOTH",
"115 490 LINE",
"26 490 LINE",
"14 449 LINE",
"115 449 LINE",
"115 0 LINE"
);
}
);
width = 341;
},
{
anchors = (
{
name = bottom;
position = "{149, 0}";
},
{
name = top;
position = "{278, 679}";
}
);
layerId = "536A25D8-98D8-4772-902A-7D06861A7581";
paths = (
{
closed = 1;
nodes = (
"214 0 LINE",
"291 438 LINE",
"412 438 LINE",
"432 490 LINE",
"300 490 LINE",
"309 541 LINE SMOOTH",
"319 597 OFFCURVE",
"353 627 OFFCURVE",
"403 627 CURVE SMOOTH",
"424 627 OFFCURVE",
"442 620 OFFCURVE",
"453 608 CURVE",
"475 661 LINE",
"447 673 OFFCURVE",
"410 679 OFFCURVE",
"366 679 CURVE SMOOTH",
"249 679 OFFCURVE",
"176 631 OFFCURVE",
"161 543 CURVE SMOOTH",
"152 490 LINE",
"66 490 LINE",
"45 438 LINE",
"143 438 LINE",
"66 0 LINE"
);
}
);
width = 384;
},
{
anchors = (
{
name = bottom;
position = "{127, 0}";
},
{
name = top;
position = "{256, 679}";
}
);
layerId = "31528353-E0C9-4B78-80EF-CA052B4026B6";
paths = (
{
closed = 1;
nodes = (
"164 0 LINE",
"243 449 LINE",
"368 449 LINE",
"386 490 LINE",
"250 490 LINE",
"261 553 LINE SMOOTH",
"270 606 OFFCURVE",
"306 638 OFFCURVE",
"355 638 CURVE SMOOTH",
"377 638 OFFCURVE",
"394 631 OFFCURVE",
"405 619 CURVE",
"425 661 LINE",
"406 672 OFFCURVE",
"376 679 OFFCURVE",
"341 679 CURVE SMOOTH",
"244 679 OFFCURVE",
"182 631 OFFCURVE",
"167 543 CURVE SMOOTH",
"158 490 LINE",
"69 490 LINE",
"50 449 LINE",
"151 449 LINE",
"72 0 LINE"
);
}
);
width = 341;
},
{
anchors = (
{
name = bottom;
position = "{113, 0}";
},
{
name = top;
position = "{240, 679}";
}
);
layerId = "D606CACE-2ACC-4371-B5A0-4D0D9ADC55EB";
paths = (
{
closed = 1;
nodes = (
"130 0 LINE",
"210 456 LINE",
"338 456 LINE",
"355 490 LINE",
"216 490 LINE",
"229 561 LINE SMOOTH",
"238 612 OFFCURVE",
"274 645 OFFCURVE",
"322 645 CURVE SMOOTH",
"343 645 OFFCURVE",
"361 638 OFFCURVE",
"372 626 CURVE",
"391 661 LINE",
"378 672 OFFCURVE",
"353 679 OFFCURVE",
"322 679 CURVE SMOOTH",
"241 679 OFFCURVE",
"186 631 OFFCURVE",
"171 543 CURVE SMOOTH",
"162 490 LINE",
"71 490 LINE",
"53 456 LINE",
"156 456 LINE",
"76 0 LINE"
);
}
);
width = 312;
}
);
note = f;
unicode = 0066;
},
{
glyphname = g;
lastChange = "2018-06-30 15:09:54 +0000";
layers = (
{
anchors = (
{
name = bottom;
position = "{308, -186}";
},
{
name = top;
position = "{308, 490}";
}
);
layerId = "0B1DFD06-3317-40CA-B510-4969A0718C16";
paths = (
{
closed = 1;
nodes = (
"450 -194 OFFCURVE",
"553 -133 OFFCURVE",
"553 -37 CURVE SMOOTH",
"553 49 OFFCURVE",
"466 95 OFFCURVE",
"304 95 CURVE SMOOTH",
"290 95 OFFCURVE",
"274 95 OFFCURVE",
"259 95 CURVE SMOOTH",
"214 95 OFFCURVE",
"174 102 OFFCURVE",
"174 124 CURVE SMOOTH",
"174 153 OFFCURVE",
"249 159 OFFCURVE",
"300 163 CURVE SMOOTH",
"466 176 OFFCURVE",
"517 253 OFFCURVE",
"517 335 CURVE SMOOTH",
"517 443 OFFCURVE",
"429 500 OFFCURVE",
"299 500 CURVE SMOOTH",
"164 500 OFFCURVE",
"81 438 OFFCURVE",
"81 336 CURVE SMOOTH",
"81 260 OFFCURVE",
"128 205 OFFCURVE",
"201 183 CURVE",
"148 178 OFFCURVE",
"116 150 OFFCURVE",
"116 116 CURVE SMOOTH",
"116 87 OFFCURVE",
"139 56 OFFCURVE",
"207 49 CURVE",
"84 36 OFFCURVE",
"40 -6 OFFCURVE",
"40 -59 CURVE SMOOTH",
"40 -140 OFFCURVE",
"140 -194 OFFCURVE",
"291 -194 CURVE SMOOTH"
);
},
{
closed = 1;
nodes = (
"162 -164 OFFCURVE",
"79 -118 OFFCURVE",
"79 -59 CURVE SMOOTH",
"79 0 OFFCURVE",
"164 41 OFFCURVE",
"319 41 CURVE SMOOTH",
"428 41 OFFCURVE",
"515 21 OFFCURVE",
"515 -44 CURVE SMOOTH",
"515 -110 OFFCURVE",
"426 -164 OFFCURVE",
"289 -164 CURVE SMOOTH"
);
},
{
closed = 1;
nodes = (
"194 198 OFFCURVE",
"135 244 OFFCURVE",
"135 332 CURVE SMOOTH",
"135 420 OFFCURVE",
"194 466 OFFCURVE",
"299 466 CURVE SMOOTH",
"404 466 OFFCURVE",
"463 420 OFFCURVE",
"463 332 CURVE SMOOTH",
"463 244 OFFCURVE",
"404 198 OFFCURVE",
"299 198 CURVE SMOOTH"
);
},
{
closed = 1;
nodes = (
"434 494 OFFCURVE",
"472 504 OFFCURVE",
"508 504 CURVE SMOOTH",
"528 504 OFFCURVE",
"548 501 OFFCURVE",
"565 495 CURVE",
"565 539 LINE",
"551 542 OFFCURVE",
"537 544 OFFCURVE",
"521 544 CURVE SMOOTH",
"473 544 OFFCURVE",
"421 527 OFFCURVE",
"383 479 CURVE",
"409 471 LINE"
);
}
);
width = 615;
},
{
anchors = (
{
name = bottom;
position = "{343, -194}";
},
{
name = top;
position = "{340, 490}";
}
);
layerId = "B1D894FD-A198-4769-A706-4BE987327F96";
paths = (
{
closed = 1;
nodes = (
"508 -194 OFFCURVE",
"627 -134 OFFCURVE",
"627 -35 CURVE SMOOTH",
"627 50 OFFCURVE",
"524 100 OFFCURVE",
"355 100 CURVE SMOOTH",
"341 100 OFFCURVE",
"328 100 OFFCURVE",
"313 100 CURVE SMOOTH",
"286 100 OFFCURVE",
"268 110 OFFCURVE",
"268 121 CURVE SMOOTH",
"268 131 OFFCURVE",
"271 157 OFFCURVE",
"340 157 CURVE SMOOTH",
"499 157 OFFCURVE",
"593 233 OFFCURVE",
"593 332 CURVE SMOOTH",
"593 437 OFFCURVE",
"492 500 OFFCURVE",
"335 500 CURVE SMOOTH",
"184 500 OFFCURVE",
"77 434 OFFCURVE",
"77 333 CURVE SMOOTH",
"77 258 OFFCURVE",
"109 201 OFFCURVE",
"225 172 CURVE",
"156 164 OFFCURVE",
"109 136 OFFCURVE",
"109 105 CURVE SMOOTH",
"109 76 OFFCURVE",
"135 53 OFFCURVE",
"196 43 CURVE",
"91 25 OFFCURVE",
"38 -14 OFFCURVE",
"38 -69 CURVE SMOOTH",
"38 -142 OFFCURVE",
"143 -194 OFFCURVE",
"322 -194 CURVE SMOOTH"
);
},
{
closed = 1;
nodes = (
"221 -146 OFFCURVE",
"156 -112 OFFCURVE",
"156 -56 CURVE SMOOTH",
"156 4 OFFCURVE",
"231 42 OFFCURVE",
"354 42 CURVE SMOOTH",
"441 42 OFFCURVE",
"495 9 OFFCURVE",
"495 -42 CURVE SMOOTH",
"495 -107 OFFCURVE",
"431 -146 OFFCURVE",
"326 -146 CURVE SMOOTH"
);
},
{
closed = 1;
nodes = (
"264 210 OFFCURVE",
"226 252 OFFCURVE",
"226 329 CURVE SMOOTH",
"226 406 OFFCURVE",
"264 448 OFFCURVE",
"335 448 CURVE SMOOTH",
"406 448 OFFCURVE",
"445 406 OFFCURVE",
"445 329 CURVE SMOOTH",
"445 252 OFFCURVE",
"406 210 OFFCURVE",
"335 210 CURVE SMOOTH"
);
},
{
closed = 1;
nodes = (
"442 474 OFFCURVE",
"495 476 OFFCURVE",
"536 476 CURVE SMOOTH",
"567 476 OFFCURVE",
"610 468 OFFCURVE",
"639 453 CURVE",
"639 530 LINE",
"610 542 OFFCURVE",
"561 544 OFFCURVE",
"541 544 CURVE SMOOTH",
"471 544 OFFCURVE",
"412 517 OFFCURVE",
"378 478 CURVE",
"421 455 LINE"
);
}
);
width = 687;
},
{
anchors = (
{
name = bottom;
position = "{322, -189}";
},
{
name = top;
position = "{321, 490}";
}
);
layerId = "BE5CE17C-12A9-439B-ACA7-F5E3A6230453";
paths = (
{
closed = 1;
nodes = (
"473 -194 OFFCURVE",
"583 -133 OFFCURVE",
"583 -36 CURVE SMOOTH",
"583 49 OFFCURVE",
"489 97 OFFCURVE",
"324 97 CURVE SMOOTH",
"310 97 OFFCURVE",
"296 97 OFFCURVE",
"281 97 CURVE SMOOTH",
"243 97 OFFCURVE",
"212 105 OFFCURVE",
"212 123 CURVE SMOOTH",
"212 144 OFFCURVE",
"258 159 OFFCURVE",
"316 161 CURVE SMOOTH",
"479 167 OFFCURVE",
"547 245 OFFCURVE",
"547 334 CURVE SMOOTH",
"547 441 OFFCURVE",
"454 500 OFFCURVE",
"313 500 CURVE SMOOTH",
"172 500 OFFCURVE",
"79 436 OFFCURVE",
"79 335 CURVE SMOOTH",
"79 259 OFFCURVE",
"120 203 OFFCURVE",
"211 179 CURVE",
"151 172 OFFCURVE",
"113 144 OFFCURVE",
"113 112 CURVE SMOOTH",
"113 83 OFFCURVE",
"137 55 OFFCURVE",
"203 47 CURVE",
"87 32 OFFCURVE",
"39 -9 OFFCURVE",
"39 -63 CURVE SMOOTH",
"39 -141 OFFCURVE",
"141 -194 OFFCURVE",
"303 -194 CURVE SMOOTH"
);
},
{
closed = 1;
nodes = (
"186 -157 OFFCURVE",
"110 -116 OFFCURVE",
"110 -58 CURVE SMOOTH",
"110 2 OFFCURVE",
"191 41 OFFCURVE",
"333 41 CURVE SMOOTH",
"433 41 OFFCURVE",
"507 16 OFFCURVE",
"507 -43 CURVE SMOOTH",
"507 -109 OFFCURVE",
"428 -157 OFFCURVE",
"304 -157 CURVE SMOOTH"
);
},
{
closed = 1;
nodes = (
"222 203 OFFCURVE",
"171 247 OFFCURVE",
"171 331 CURVE SMOOTH",
"171 414 OFFCURVE",
"222 459 OFFCURVE",
"313 459 CURVE SMOOTH",
"405 459 OFFCURVE",
"456 414 OFFCURVE",
"456 331 CURVE SMOOTH",
"456 247 OFFCURVE",
"405 203 OFFCURVE",
"313 203 CURVE SMOOTH"
);
},
{
closed = 1;
nodes = (
"437 486 OFFCURVE",
"481 493 OFFCURVE",
"519 493 CURVE SMOOTH",
"544 493 OFFCURVE",
"573 488 OFFCURVE",
"595 478 CURVE",
"595 535 LINE",
"575 542 OFFCURVE",
"547 544 OFFCURVE",
"529 544 CURVE SMOOTH",
"472 544 OFFCURVE",
"417 523 OFFCURVE",
"381 479 CURVE",
"414 465 LINE"
);
}
);
width = 644;
},
{
anchors = (
{
name = bottom;
position = "{266, -194}";
},
{
name = top;
position = "{384, 490}";
}
);
layerId = "536A25D8-98D8-4772-902A-7D06861A7581";
paths = (
{
closed = 1;
nodes = (
"443 -194 OFFCURVE",
"580 -123 OFFCURVE",
"580 -18 CURVE SMOOTH",
"580 57 OFFCURVE",
"486 100 OFFCURVE",
"330 100 CURVE SMOOTH",
"316 100 OFFCURVE",
"303 100 OFFCURVE",
"288 100 CURVE SMOOTH",
"263 100 OFFCURVE",
"246 109 OFFCURVE",
"246 119 CURVE SMOOTH",
"246 130 OFFCURVE",
"256 157 OFFCURVE",
"325 157 CURVE SMOOTH",
"490 157 OFFCURVE",
"611 243 OFFCURVE",
"611 358 CURVE SMOOTH",
"611 447 OFFCURVE",
"524 500 OFFCURVE",
"380 500 CURVE SMOOTH",
"230 500 OFFCURVE",
"90 433 OFFCURVE",
"90 297 CURVE SMOOTH",
"90 241 OFFCURVE",
"120 196 OFFCURVE",
"213 172 CURVE",
"145 164 OFFCURVE",
"84 137 OFFCURVE",
"84 97 CURVE SMOOTH",
"84 73 OFFCURVE",
"107 52 OFFCURVE",
"161 43 CURVE",
"46 24 OFFCURVE",
"-18 -22 OFFCURVE",
"-18 -82 CURVE SMOOTH",
"-18 -148 OFFCURVE",
"77 -194 OFFCURVE",
"245 -194 CURVE SMOOTH"
);
},
{
closed = 1;
nodes = (
"161 -146 OFFCURVE",
"102 -117 OFFCURVE",
"102 -68 CURVE SMOOTH",
"102 -2 OFFCURVE",
"188 42 OFFCURVE",
"319 42 CURVE SMOOTH",
"398 42 OFFCURVE",
"446 14 OFFCURVE",
"446 -30 CURVE SMOOTH",
"446 -99 OFFCURVE",
"368 -146 OFFCURVE",
"258 -146 CURVE SMOOTH"
);
},
{
closed = 1;
nodes = (
"270 210 OFFCURVE",
"238 240 OFFCURVE",
"238 296 CURVE SMOOTH",
"238 387 OFFCURVE",
"292 448 OFFCURVE",
"371 448 CURVE SMOOTH",
"431 448 OFFCURVE",
"463 418 OFFCURVE",
"463 362 CURVE SMOOTH",
"463 271 OFFCURVE",
"409 210 OFFCURVE",
"329 210 CURVE SMOOTH"
);
},
{
closed = 1;
nodes = (
"483 474 OFFCURVE",
"537 476 OFFCURVE",
"577 476 CURVE SMOOTH",
"608 476 OFFCURVE",
"650 468 OFFCURVE",
"676 453 CURVE",
"690 530 LINE",
"663 542 OFFCURVE",
"614 544 OFFCURVE",
"594 544 CURVE SMOOTH",
"522 544 OFFCURVE",
"458 515 OFFCURVE",
"420 478 CURVE",
"459 455 LINE"
);
}
);
width = 687;
},
{
anchors = (
{
name = bottom;
position = "{246, -189}";
},
{
name = top;
position = "{365, 490}";
}
);
layerId = "31528353-E0C9-4B78-80EF-CA052B4026B6";
paths = (
{
closed = 1;
nodes = (
"408 -194 OFFCURVE",
"536 -121 OFFCURVE",
"536 -17 CURVE SMOOTH",
"536 56 OFFCURVE",
"451 97 OFFCURVE",
"299 97 CURVE SMOOTH",
"285 97 OFFCURVE",
"271 97 OFFCURVE",
"256 97 CURVE SMOOTH",
"221 97 OFFCURVE",
"191 104 OFFCURVE",
"191 120 CURVE SMOOTH",
"191 142 OFFCURVE",
"240 159 OFFCURVE",
"302 161 CURVE SMOOTH",
"461 167 OFFCURVE",
"566 247 OFFCURVE",
"566 363 CURVE SMOOTH",
"566 452 OFFCURVE",
"485 500 OFFCURVE",
"359 500 CURVE SMOOTH",
"201 500 OFFCURVE",
"93 420 OFFCURVE",
"93 303 CURVE SMOOTH",
"93 244 OFFCURVE",
"125 200 OFFCURVE",
"200 179 CURVE",
"139 172 OFFCURVE",
"89 143 OFFCURVE",
"89 103 CURVE SMOOTH",
"89 78 OFFCURVE",
"111 54 OFFCURVE",
"169 47 CURVE",
"49 32 OFFCURVE",
"-16 -13 OFFCURVE",
"-16 -78 CURVE SMOOTH",
"-16 -148 OFFCURVE",
"76 -194 OFFCURVE",
"226 -194 CURVE SMOOTH"
);
},
{
closed = 1;
nodes = (
"124 -157 OFFCURVE",
"56 -121 OFFCURVE",
"56 -69 CURVE SMOOTH",
"56 -2 OFFCURVE",
"151 41 OFFCURVE",
"298 41 CURVE SMOOTH",
"391 41 OFFCURVE",
"458 19 OFFCURVE",
"458 -32 CURVE SMOOTH",
"458 -103 OFFCURVE",
"361 -157 OFFCURVE",
"234 -157 CURVE SMOOTH"
);
},
{
closed = 1;
nodes = (
"227 203 OFFCURVE",
"184 237 OFFCURVE",
"184 300 CURVE SMOOTH",
"184 397 OFFCURVE",
"250 459 OFFCURVE",
"351 459 CURVE SMOOTH",
"431 459 OFFCURVE",
"475 425 OFFCURVE",
"475 361 CURVE SMOOTH",
"475 264 OFFCURVE",
"409 203 OFFCURVE",
"306 203 CURVE SMOOTH"
);
},
{
closed = 1;
nodes = (
"480 486 OFFCURVE",
"525 493 OFFCURVE",
"563 493 CURVE SMOOTH",
"589 493 OFFCURVE",
"616 488 OFFCURVE",
"637 478 CURVE",
"647 535 LINE",
"628 542 OFFCURVE",
"600 544 OFFCURVE",
"582 544 CURVE SMOOTH",
"524 544 OFFCURVE",
"467 523 OFFCURVE",
"423 479 CURVE",
"453 465 LINE"
);
}
);
width = 644;
},
{
anchors = (
{
name = bottom;
position = "{232, -186}";
},
{
name = top;
position = "{351, 490}";
}
);
layerId = "D606CACE-2ACC-4371-B5A0-4D0D9ADC55EB";
paths = (
{
closed = 1;
nodes = (
"384 -194 OFFCURVE",
"505 -121 OFFCURVE",
"505 -17 CURVE SMOOTH",
"505 56 OFFCURVE",
"426 95 OFFCURVE",
"278 95 CURVE SMOOTH",
"264 95 OFFCURVE",
"248 95 OFFCURVE",
"233 95 CURVE SMOOTH",
"192 95 OFFCURVE",
"152 101 OFFCURVE",
"152 121 CURVE SMOOTH",
"152 152 OFFCURVE",
"226 158 OFFCURVE",
"286 163 CURVE SMOOTH",
"446 175 OFFCURVE",
"536 254 OFFCURVE",
"536 366 CURVE SMOOTH",
"536 454 OFFCURVE",
"460 500 OFFCURVE",
"344 500 CURVE SMOOTH",
"197 500 OFFCURVE",
"94 422 OFFCURVE",
"94 306 CURVE SMOOTH",
"94 247 OFFCURVE",
"130 202 OFFCURVE",
"190 183 CURVE",
"133 178 OFFCURVE",
"93 145 OFFCURVE",
"93 107 CURVE SMOOTH",
"93 81 OFFCURVE",
"113 55 OFFCURVE",
"173 49 CURVE",
"50 36 OFFCURVE",
"-15 -7 OFFCURVE",
"-15 -75 CURVE SMOOTH",
"-15 -147 OFFCURVE",
"73 -194 OFFCURVE",
"214 -194 CURVE SMOOTH"
);
},
{
closed = 1;
nodes = (
"99 -164 OFFCURVE",
"25 -124 OFFCURVE",
"25 -70 CURVE SMOOTH",
"25 -2 OFFCURVE",
"127 41 OFFCURVE",
"283 41 CURVE SMOOTH",
"386 41 OFFCURVE",
"465 23 OFFCURVE",
"465 -32 CURVE SMOOTH",
"465 -106 OFFCURVE",
"355 -164 OFFCURVE",
"217 -164 CURVE SMOOTH"
);
},
{
closed = 1;
nodes = (
"198 198 OFFCURVE",
"148 234 OFFCURVE",
"148 303 CURVE SMOOTH",
"148 403 OFFCURVE",
"221 466 OFFCURVE",
"338 466 CURVE SMOOTH",
"430 466 OFFCURVE",
"481 430 OFFCURVE",
"481 361 CURVE SMOOTH",
"481 261 OFFCURVE",
"408 198 OFFCURVE",
"291 198 CURVE SMOOTH"
);
},
{
closed = 1;
nodes = (
"478 494 OFFCURVE",
"518 504 OFFCURVE",
"554 504 CURVE SMOOTH",
"574 504 OFFCURVE",
"593 501 OFFCURVE",
"609 495 CURVE",
"617 539 LINE",
"603 542 OFFCURVE",
"590 544 OFFCURVE",
"574 544 CURVE SMOOTH",
"526 544 OFFCURVE",
"471 527 OFFCURVE",
"424 479 CURVE",
"449 471 LINE"
);
}
);
width = 615;
}
);
leftKerningGroup = d;
note = g;
unicode = 0067;
},
{
glyphname = h;
lastChange = "2018-06-30 15:09:54 +0000";
layers = (
{
anchors = (
{
name = bottom;
position = "{294, 0}";
},
{
name = center;
position = "{294, 245}";
},
{
name = top;
position = "{294, 683}";
}
);
layerId = "0B1DFD06-3317-40CA-B510-4969A0718C16";
paths = (
{
closed = 1;
nodes = (
"124 0 LINE",
"124 264 LINE SMOOTH",
"124 384 OFFCURVE",
"206 466 OFFCURVE",
"325 466 CURVE SMOOTH",
"417 466 OFFCURVE",
"474 416 OFFCURVE",
"474 334 CURVE SMOOTH",
"474 0 LINE",
"528 0 LINE",
"528 326 LINE SMOOTH",
"528 436 OFFCURVE",
"455 500 OFFCURVE",
"329 500 CURVE SMOOTH",
"237 500 OFFCURVE",
"162 459 OFFCURVE",
"124 387 CURVE",
"124 683 LINE",
"70 683 LINE",
"70 0 LINE"
);
}
);
width = 588;
},
{
anchors = (
{
name = bottom;
position = "{331, 0}";
},
{
name = center;
position = "{331, 245}";
},
{
name = top;
position = "{331, 683}";
}
);
layerId = "B1D894FD-A198-4769-A706-4BE987327F96";
paths = (
{
closed = 1;
nodes = (
"216 0 LINE",
"216 278 LINE SMOOTH",
"216 382 OFFCURVE",
"267 448 OFFCURVE",
"350 448 CURVE SMOOTH",
"421 448 OFFCURVE",
"456 405 OFFCURVE",
"456 321 CURVE SMOOTH",
"456 0 LINE",
"604 0 LINE",
"604 312 LINE SMOOTH",
"604 429 OFFCURVE",
"524 500 OFFCURVE",
"393 500 CURVE SMOOTH",
"314 500 OFFCURVE",
"246 465 OFFCURVE",
"216 409 CURVE",
"216 683 LINE",
"68 683 LINE",
"68 0 LINE"
);
}
);
width = 661;
},
{
anchors = (
{
name = bottom;
position = "{309, 0}";
},
{
name = center;
position = "{309, 245}";
},
{
name = top;
position = "{309, 683}";
}
);
layerId = "BE5CE17C-12A9-439B-ACA7-F5E3A6230453";
paths = (
{
closed = 1;
nodes = (
"161 0 LINE",
"161 270 LINE SMOOTH",
"161 383 OFFCURVE",
"230 459 OFFCURVE",
"335 459 CURVE SMOOTH",
"419 459 OFFCURVE",
"466 412 OFFCURVE",
"466 329 CURVE SMOOTH",
"466 0 LINE",
"558 0 LINE",
"558 320 LINE SMOOTH",
"558 433 OFFCURVE",
"483 500 OFFCURVE",
"355 500 CURVE SMOOTH",
"268 500 OFFCURVE",
"196 461 OFFCURVE",
"161 396 CURVE",
"161 683 LINE",
"69 683 LINE",
"69 0 LINE"
);
}
);
width = 617;
},
{
anchors = (
{
name = bottom;
position = "{288, 0}";
},
{
name = center;
position = "{331, 245}";
},
{
name = top;
position = "{408, 683}";
}
);
layerId = "536A25D8-98D8-4772-902A-7D06861A7581";
paths = (
{
closed = 1;
nodes = (
"173 0 LINE",
"222 278 LINE SMOOTH",
"240 382 OFFCURVE",
"304 448 OFFCURVE",
"386 448 CURVE SMOOTH",
"456 448 OFFCURVE",
"485 405 OFFCURVE",
"470 321 CURVE SMOOTH",
"413 0 LINE",
"561 0 LINE",
"616 312 LINE SMOOTH",
"637 429 OFFCURVE",
"568 500 OFFCURVE",
"438 500 CURVE SMOOTH",
"360 500 OFFCURVE",
"285 465 OFFCURVE",
"245 409 CURVE",
"293 683 LINE",
"145 683 LINE",
"25 0 LINE"
);
}
);
width = 661;
},
{
anchors = (
{
name = bottom;
position = "{266, 0}";
},
{
name = center;
position = "{309, 245}";
},
{
name = top;
position = "{386, 683}";
}
);
layerId = "31528353-E0C9-4B78-80EF-CA052B4026B6";
paths = (
{
closed = 1;
nodes = (
"118 0 LINE",
"166 270 LINE SMOOTH",
"186 383 OFFCURVE",
"269 459 OFFCURVE",
"373 459 CURVE SMOOTH",
"456 459 OFFCURVE",
"496 412 OFFCURVE",
"481 329 CURVE SMOOTH",
"423 0 LINE",
"515 0 LINE",
"571 320 LINE SMOOTH",
"591 433 OFFCURVE",
"527 500 OFFCURVE",
"400 500 CURVE SMOOTH",
"314 500 OFFCURVE",
"234 461 OFFCURVE",
"188 396 CURVE",
"238 683 LINE",
"146 683 LINE",
"26 0 LINE"
);
}
);
width = 617;
},
{
anchors = (
{
name = bottom;
position = "{251, 0}";
},
{
name = center;
position = "{294, 245}";
},
{
name = top;
position = "{371, 683}";
}
);
layerId = "D606CACE-2ACC-4371-B5A0-4D0D9ADC55EB";
paths = (
{
closed = 1;
nodes = (
"81 0 LINE",
"128 264 LINE SMOOTH",
"149 384 OFFCURVE",
"246 466 OFFCURVE",
"364 466 CURVE SMOOTH",
"460 466 OFFCURVE",
"504 412 OFFCURVE",
"490 334 CURVE SMOOTH",
"431 0 LINE",
"485 0 LINE",
"542 326 LINE SMOOTH",
"561 436 OFFCURVE",
"500 500 OFFCURVE",
"374 500 CURVE SMOOTH",
"283 500 OFFCURVE",
"200 459 OFFCURVE",
"149 387 CURVE",
"201 683 LINE",
"147 683 LINE",
"27 0 LINE"
);
}
);
width = 588;
}
);
note = h;
unicode = 0068;
},
{
glyphname = i;
lastChange = "2018-06-30 15:09:54 +0000";
layers = (
{
anchors = (
{
name = bottom;
position = "{123, 0}";
},
{
name = ogonek;
position = "{121, 7}";
}
);
layerId = "0B1DFD06-3317-40CA-B510-4969A0718C16";
paths = (
{
closed = 1;
nodes = (
"150 0 LINE",
"150 490 LINE",
"96 490 LINE",
"96 0 LINE"
);
},
{
closed = 1;
nodes = (
"151 558 OFFCURVE",
"171 578 OFFCURVE",
"171 605 CURVE SMOOTH",
"171 632 OFFCURVE",
"151 652 OFFCURVE",
"123 652 CURVE SMOOTH",
"95 652 OFFCURVE",
"75 632 OFFCURVE",
"75 605 CURVE SMOOTH",
"75 578 OFFCURVE",
"95 558 OFFCURVE",
"123 558 CURVE SMOOTH"
);
}
);
width = 246;
},
{
anchors = (
{
name = bottom;
position = "{159, 0}";
},
{
name = ogonek;
position = "{158, 7}";
}
);
layerId = "B1D894FD-A198-4769-A706-4BE987327F96";
paths = (
{
closed = 1;
nodes = (
"233 0 LINE",
"233 490 LINE",
"85 490 LINE",
"85 0 LINE"
);
},
{
closed = 1;
nodes = (
"214 540 OFFCURVE",
"253 575 OFFCURVE",
"253 625 CURVE SMOOTH",
"253 675 OFFCURVE",
"214 710 OFFCURVE",
"159 710 CURVE SMOOTH",
"104 710 OFFCURVE",
"65 675 OFFCURVE",
"65 625 CURVE SMOOTH",
"65 575 OFFCURVE",
"104 540 OFFCURVE",
"159 540 CURVE SMOOTH"
);
}
);
width = 318;
},
{
anchors = (
{
name = bottom;
position = "{137, 0}";
},
{
name = ogonek;
position = "{136, 7}";
}
);
layerId = "BE5CE17C-12A9-439B-ACA7-F5E3A6230453";
paths = (
{
closed = 1;
nodes = (
"184 0 LINE",
"184 490 LINE",
"92 490 LINE",
"92 0 LINE"
);
},
{
closed = 1;
nodes = (
"178 551 OFFCURVE",
"206 576 OFFCURVE",
"206 613 CURVE SMOOTH",
"206 650 OFFCURVE",
"178 675 OFFCURVE",
"138 675 CURVE SMOOTH",
"98 675 OFFCURVE",
"70 650 OFFCURVE",
"70 613 CURVE SMOOTH",
"70 576 OFFCURVE",
"98 551 OFFCURVE",
"138 551 CURVE SMOOTH"
);
}
);
width = 276;
},
{
anchors = (
{
name = bottom;
position = "{116, 0}";
},
{
name = ogonek;
position = "{116, 7}";
}
);
layerId = "536A25D8-98D8-4772-902A-7D06861A7581";
paths = (
{
closed = 1;
nodes = (
"190 0 LINE",
"276 490 LINE",
"128 490 LINE",
"42 0 LINE"
);
},
{
closed = 1;
nodes = (
"273 540 OFFCURVE",
"322 585 OFFCURVE",
"322 641 CURVE SMOOTH",
"322 682 OFFCURVE",
"290 710 OFFCURVE",
"241 710 CURVE SMOOTH",
"180 710 OFFCURVE",
"131 665 OFFCURVE",
"131 609 CURVE SMOOTH",
"131 568 OFFCURVE",
"162 540 OFFCURVE",
"211 540 CURVE SMOOTH"
);
}
);
width = 318;
},
{
anchors = (
{
name = bottom;
position = "{94, 0}";
},
{
name = ogonek;
position = "{94, 7}";
}
);
layerId = "31528353-E0C9-4B78-80EF-CA052B4026B6";
paths = (
{
closed = 1;
nodes = (
"141 0 LINE",
"227 490 LINE",
"135 490 LINE",
"49 0 LINE"
);
},
{
closed = 1;
nodes = (
"237 551 OFFCURVE",
"272 584 OFFCURVE",
"272 625 CURVE SMOOTH",
"272 655 OFFCURVE",
"249 675 OFFCURVE",
"214 675 CURVE SMOOTH",
"169 675 OFFCURVE",
"134 642 OFFCURVE",
"134 601 CURVE SMOOTH",
"134 571 OFFCURVE",
"157 551 OFFCURVE",
"192 551 CURVE SMOOTH"
);
}
);
width = 276;
},
{
anchors = (
{
name = bottom;
position = "{80, 0}";
},
{
name = ogonek;
position = "{79, 7}";
}
);
layerId = "D606CACE-2ACC-4371-B5A0-4D0D9ADC55EB";
paths = (
{
closed = 1;
nodes = (
"107 0 LINE",
"193 490 LINE",
"139 490 LINE",
"53 0 LINE"
);
},
{
closed = 1;
nodes = (
"210 558 OFFCURVE",
"235 584 OFFCURVE",
"235 614 CURVE SMOOTH",
"235 636 OFFCURVE",
"220 652 OFFCURVE",
"195 652 CURVE SMOOTH",
"164 652 OFFCURVE",
"138 626 OFFCURVE",
"138 596 CURVE SMOOTH",
"138 574 OFFCURVE",
"154 558 OFFCURVE",
"178 558 CURVE SMOOTH"
);
}
);
width = 246;
}
);
note = i;
unicode = 0069;
},
{
glyphname = j;
lastChange = "2018-06-30 15:09:54 +0000";
layers = (
{
background = {
paths = (
{
closed = 1;
nodes = (
"123 -184 OFFCURVE",
"167 -114 OFFCURVE",
"167 40 CURVE SMOOTH",
"167 490 LINE",
"113 490 LINE",
"113 25 LINE SMOOTH",
"113 -95 OFFCURVE",
"87 -150 OFFCURVE",
"30 -150 CURVE SMOOTH",
"-3 -150 OFFCURVE",
"-25 -135 OFFCURVE",
"-45 -105 CURVE",
"-70 -147 LINE",
"-47 -171 OFFCURVE",
"-11 -184 OFFCURVE",
"28 -184 CURVE SMOOTH"
);
},
{
closed = 1;
nodes = (
"168 558 OFFCURVE",
"188 578 OFFCURVE",
"188 605 CURVE SMOOTH",
"188 632 OFFCURVE",
"168 652 OFFCURVE",
"140 652 CURVE SMOOTH",
"112 652 OFFCURVE",
"92 632 OFFCURVE",
"92 605 CURVE SMOOTH",
"92 578 OFFCURVE",
"112 558 OFFCURVE",
"140 558 CURVE SMOOTH"
);
}
);
};
layerId = "0B1DFD06-3317-40CA-B510-4969A0718C16";
paths = (
{
closed = 1;
nodes = (
"123 -184 OFFCURVE",
"167 -114 OFFCURVE",
"167 40 CURVE SMOOTH",
"167 490 LINE",
"113 490 LINE",
"113 25 LINE SMOOTH",
"113 -95 OFFCURVE",
"87 -150 OFFCURVE",
"30 -150 CURVE SMOOTH",
"-1 -150 OFFCURVE",
"-24 -136 OFFCURVE",
"-45 -105 CURVE",
"-70 -147 LINE",
"-47 -171 OFFCURVE",
"-12 -184 OFFCURVE",
"28 -184 CURVE SMOOTH"
);
},
{
closed = 1;
nodes = (
"168 558 OFFCURVE",
"188 578 OFFCURVE",
"188 605 CURVE SMOOTH",
"188 632 OFFCURVE",
"168 652 OFFCURVE",
"140 652 CURVE SMOOTH",
"112 652 OFFCURVE",
"92 632 OFFCURVE",
"92 605 CURVE SMOOTH",
"92 578 OFFCURVE",
"112 558 OFFCURVE",
"140 558 CURVE SMOOTH"
);
}
);
width = 263;
},
{
background = {
paths = (
{
closed = 1;
nodes = (
"123 -184 OFFCURVE",
"167 -114 OFFCURVE",
"167 40 CURVE SMOOTH",
"167 490 LINE",
"113 490 LINE",
"113 25 LINE SMOOTH",
"113 -95 OFFCURVE",
"87 -150 OFFCURVE",
"30 -150 CURVE SMOOTH",
"-3 -150 OFFCURVE",
"-25 -135 OFFCURVE",
"-45 -105 CURVE",
"-70 -147 LINE",
"-47 -171 OFFCURVE",
"-11 -184 OFFCURVE",
"28 -184 CURVE SMOOTH"
);
},
{
closed = 1;
nodes = (
"168 558 OFFCURVE",
"188 578 OFFCURVE",
"188 605 CURVE SMOOTH",
"188 632 OFFCURVE",
"168 652 OFFCURVE",
"140 652 CURVE SMOOTH",
"112 652 OFFCURVE",
"92 632 OFFCURVE",
"92 605 CURVE SMOOTH",
"92 578 OFFCURVE",
"112 558 OFFCURVE",
"140 558 CURVE SMOOTH"
);
}
);
};
layerId = "B1D894FD-A198-4769-A706-4BE987327F96";
paths = (
{
closed = 1;
nodes = (
"174 -184 OFFCURVE",
"247 -90 OFFCURVE",
"247 56 CURVE SMOOTH",
"247 490 LINE",
"99 490 LINE",
"99 27 LINE SMOOTH",
"99 -80 OFFCURVE",
"74 -127 OFFCURVE",
"21 -127 CURVE SMOOTH",
"-3 -127 OFFCURVE",
"-26 -116 OFFCURVE",
"-39 -93 CURVE",
"-72 -151 LINE",
"-37 -177 OFFCURVE",
"0 -184 OFFCURVE",
"51 -184 CURVE SMOOTH"
);
},
{
closed = 1;
nodes = (
"228 540 OFFCURVE",
"267 575 OFFCURVE",
"267 625 CURVE SMOOTH",
"267 675 OFFCURVE",
"228 710 OFFCURVE",
"173 710 CURVE SMOOTH",
"118 710 OFFCURVE",
"79 675 OFFCURVE",
"79 625 CURVE SMOOTH",
"79 575 OFFCURVE",
"118 540 OFFCURVE",
"173 540 CURVE SMOOTH"
);
}
);
width = 335;
},
{
layerId = "BE5CE17C-12A9-439B-ACA7-F5E3A6230453";
paths = (
{
closed = 1;
nodes = (
"143 -184 OFFCURVE",
"199 -104 OFFCURVE",
"199 46 CURVE SMOOTH",
"199 490 LINE",
"107 490 LINE",
"107 26 LINE SMOOTH",
"107 -89 OFFCURVE",
"82 -141 OFFCURVE",
"26 -141 CURVE SMOOTH",
"-2 -141 OFFCURVE",
"-25 -128 OFFCURVE",
"-43 -100 CURVE",
"-71 -149 LINE",
"-43 -173 OFFCURVE",
"-7 -184 OFFCURVE",
"37 -184 CURVE SMOOTH"
);
},
{
closed = 1;
nodes = (
"194 551 OFFCURVE",
"222 576 OFFCURVE",
"222 613 CURVE SMOOTH",
"222 650 OFFCURVE",
"194 675 OFFCURVE",
"154 675 CURVE SMOOTH",
"114 675 OFFCURVE",
"86 650 OFFCURVE",
"86 613 CURVE SMOOTH",
"86 576 OFFCURVE",
"114 551 OFFCURVE",
"154 551 CURVE SMOOTH"
);
}
);
width = 292;
},
{
background = {
paths = (
{
closed = 1;
nodes = (
"123 -184 OFFCURVE",
"167 -114 OFFCURVE",
"167 40 CURVE SMOOTH",
"167 490 LINE",
"113 490 LINE",
"113 25 LINE SMOOTH",
"113 -95 OFFCURVE",
"87 -150 OFFCURVE",
"30 -150 CURVE SMOOTH",
"-3 -150 OFFCURVE",
"-25 -135 OFFCURVE",
"-45 -105 CURVE",
"-70 -147 LINE",
"-47 -171 OFFCURVE",
"-11 -184 OFFCURVE",
"28 -184 CURVE SMOOTH"
);
},
{
closed = 1;
nodes = (
"168 558 OFFCURVE",
"188 578 OFFCURVE",
"188 605 CURVE SMOOTH",
"188 632 OFFCURVE",
"168 652 OFFCURVE",
"140 652 CURVE SMOOTH",
"112 652 OFFCURVE",
"92 632 OFFCURVE",
"92 605 CURVE SMOOTH",
"92 578 OFFCURVE",
"112 558 OFFCURVE",
"140 558 CURVE SMOOTH"
);
}
);
};
layerId = "536A25D8-98D8-4772-902A-7D06861A7581";
paths = (
{
closed = 1;
nodes = (
"98 -184 OFFCURVE",
"187 -90 OFFCURVE",
"213 56 CURVE SMOOTH",
"290 490 LINE",
"142 490 LINE",
"60 27 LINE SMOOTH",
"41 -80 OFFCURVE",
"8 -127 OFFCURVE",
"-45 -127 CURVE SMOOTH",
"-68 -127 OFFCURVE",
"-90 -116 OFFCURVE",
"-99 -93 CURVE",
"-142 -151 LINE",
"-112 -177 OFFCURVE",
"-75 -184 OFFCURVE",
"-25 -184 CURVE SMOOTH"
);
},
{
closed = 1;
nodes = (
"286 540 OFFCURVE",
"335 585 OFFCURVE",
"335 641 CURVE SMOOTH",
"335 682 OFFCURVE",
"304 710 OFFCURVE",
"255 710 CURVE SMOOTH",
"194 710 OFFCURVE",
"144 665 OFFCURVE",
"144 609 CURVE SMOOTH",
"144 568 OFFCURVE",
"176 540 OFFCURVE",
"225 540 CURVE SMOOTH"
);
}
);
width = 335;
},
{
layerId = "31528353-E0C9-4B78-80EF-CA052B4026B6";
paths = (
{
closed = 1;
nodes = (
"68 -184 OFFCURVE",
"137 -104 OFFCURVE",
"164 46 CURVE SMOOTH",
"243 490 LINE",
"151 490 LINE",
"69 26 LINE SMOOTH",
"49 -90 OFFCURVE",
"14 -141 OFFCURVE",
"-42 -141 CURVE SMOOTH",
"-71 -141 OFFCURVE",
"-90 -128 OFFCURVE",
"-103 -100 CURVE",
"-140 -149 LINE",
"-116 -173 OFFCURVE",
"-83 -184 OFFCURVE",
"-38 -184 CURVE SMOOTH"
);
},
{
closed = 1;
nodes = (
"252 551 OFFCURVE",
"288 583 OFFCURVE",
"288 625 CURVE SMOOTH",
"288 655 OFFCURVE",
"266 675 OFFCURVE",
"230 675 CURVE SMOOTH",
"185 675 OFFCURVE",
"150 642 OFFCURVE",
"150 601 CURVE SMOOTH",
"150 571 OFFCURVE",
"173 551 OFFCURVE",
"208 551 CURVE SMOOTH"
);
}
);
width = 292;
},
{
background = {
paths = (
{
closed = 1;
nodes = (
"123 -184 OFFCURVE",
"167 -114 OFFCURVE",
"167 40 CURVE SMOOTH",
"167 490 LINE",
"113 490 LINE",
"113 25 LINE SMOOTH",
"113 -95 OFFCURVE",
"87 -150 OFFCURVE",
"30 -150 CURVE SMOOTH",
"-3 -150 OFFCURVE",
"-25 -135 OFFCURVE",
"-45 -105 CURVE",
"-70 -147 LINE",
"-47 -171 OFFCURVE",
"-11 -184 OFFCURVE",
"28 -184 CURVE SMOOTH"
);
},
{
closed = 1;
nodes = (
"168 558 OFFCURVE",
"188 578 OFFCURVE",
"188 605 CURVE SMOOTH",
"188 632 OFFCURVE",
"168 652 OFFCURVE",
"140 652 CURVE SMOOTH",
"112 652 OFFCURVE",
"92 632 OFFCURVE",
"92 605 CURVE SMOOTH",
"92 578 OFFCURVE",
"112 558 OFFCURVE",
"140 558 CURVE SMOOTH"
);
}
);
};
layerId = "D606CACE-2ACC-4371-B5A0-4D0D9ADC55EB";
paths = (
{
closed = 1;
nodes = (
"59 -184 OFFCURVE",
"107 -95 OFFCURVE",
"131 40 CURVE SMOOTH",
"210 490 LINE",
"156 490 LINE",
"74 25 LINE SMOOTH",
"53 -96 OFFCURVE",
"17 -150 OFFCURVE",
"-40 -150 CURVE SMOOTH",
"-70 -150 OFFCURVE",
"-91 -136 OFFCURVE",
"-107 -105 CURVE",
"-139 -147 LINE",
"-120 -171 OFFCURVE",
"-87 -184 OFFCURVE",
"-48 -184 CURVE SMOOTH"
);
},
{
closed = 1;
nodes = (
"226 558 OFFCURVE",
"252 583 OFFCURVE",
"252 614 CURVE SMOOTH",
"252 636 OFFCURVE",
"237 652 OFFCURVE",
"212 652 CURVE SMOOTH",
"181 652 OFFCURVE",
"155 626 OFFCURVE",
"155 596 CURVE SMOOTH",
"155 574 OFFCURVE",
"171 558 OFFCURVE",
"195 558 CURVE SMOOTH"
);
}
);
width = 263;
}
);
note = j;
unicode = 006A;
},
{
glyphname = k;
lastChange = "2018-06-30 15:09:54 +0000";
layers = (
{
anchors = (
{
name = bottom;
position = "{271, 0}";
},
{
name = top;
position = "{271, 683}";
}
);
layerId = "0B1DFD06-3317-40CA-B510-4969A0718C16";
paths = (
{
closed = 1;
nodes = (
"124 0 LINE",
"124 184 LINE",
"471 490 LINE",
"431 490 LINE",
"124 223 LINE",
"124 683 LINE",
"70 683 LINE",
"70 0 LINE"
);
},
{
closed = 1;
nodes = (
"524 0 LINE",
"271 319 LINE",
"231 284 LINE",
"457 0 LINE"
);
}
);
width = 542;
},
{
anchors = (
{
name = bottom;
position = "{312, 0}";
},
{
name = top;
position = "{312, 683}";
}
);
layerId = "B1D894FD-A198-4769-A706-4BE987327F96";
paths = (
{
closed = 1;
nodes = (
"216 0 LINE",
"216 193 LINE",
"562 490 LINE",
"444 490 LINE",
"216 300 LINE",
"216 683 LINE",
"68 683 LINE",
"68 0 LINE"
);
},
{
closed = 1;
nodes = (
"612 0 LINE",
"328 358 LINE",
"239 281 LINE",
"463 0 LINE"
);
}
);
width = 624;
},
{
anchors = (
{
name = bottom;
position = "{287, 0}";
},
{
name = top;
position = "{287, 683}";
}
);
layerId = "BE5CE17C-12A9-439B-ACA7-F5E3A6230453";
paths = (
{
closed = 1;
nodes = (
"161 0 LINE",
"161 188 LINE",
"507 490 LINE",
"436 490 LINE",
"161 254 LINE",
"161 683 LINE",
"69 683 LINE",
"69 0 LINE"
);
},
{
closed = 1;
nodes = (
"559 0 LINE",
"294 335 LINE",
"234 283 LINE",
"459 0 LINE"
);
}
);
width = 575;
},
{
anchors = (
{
name = bottom;
position = "{269, 0}";
},
{
name = top;
position = "{389, 683}";
}
);
layerId = "536A25D8-98D8-4772-902A-7D06861A7581";
paths = (
{
closed = 1;
nodes = (
"173 0 LINE",
"207 193 LINE",
"605 490 LINE",
"487 490 LINE",
"226 300 LINE",
"293 683 LINE",
"145 683 LINE",
"25 0 LINE"
);
},
{
closed = 1;
nodes = (
"569 0 LINE",
"348 358 LINE",
"246 281 LINE",
"420 0 LINE"
);
}
);
width = 624;
},
{
anchors = (
{
name = bottom;
position = "{244, 0}";
},
{
name = top;
position = "{364, 683}";
}
);
layerId = "31528353-E0C9-4B78-80EF-CA052B4026B6";
paths = (
{
closed = 1;
nodes = (
"118 0 LINE",
"151 188 LINE",
"550 490 LINE",
"479 490 LINE",
"163 254 LINE",
"238 683 LINE",
"146 683 LINE",
"26 0 LINE"
);
},
{
closed = 1;
nodes = (
"516 0 LINE",
"310 335 LINE",
"241 283 LINE",
"416 0 LINE"
);
}
);
width = 575;
},
{
anchors = (
{
name = bottom;
position = "{228, 0}";
},
{
name = top;
position = "{348, 683}";
}
);
layerId = "D606CACE-2ACC-4371-B5A0-4D0D9ADC55EB";
paths = (
{
closed = 1;
nodes = (
"81 0 LINE",
"113 184 LINE",
"514 490 LINE",
"474 490 LINE",
"120 223 LINE",
"201 683 LINE",
"147 683 LINE",
"27 0 LINE"
);
},
{
closed = 1;
nodes = (
"481 0 LINE",
"284 319 LINE",
"238 284 LINE",
"414 0 LINE"
);
}
);
width = 542;
}
);
note = k;
rightKerningGroup = k;
unicode = 006B;
},
{
glyphname = l;
lastChange = "2018-06-30 15:09:54 +0000";
layers = (
{
anchors = (
{
name = bottom;
position = "{127, 0}";
},
{
name = center;
position = "{235, 245}";
},
{
name = top;
position = "{127, 683}";
},
{
name = topright;
position = "{203, 683}";
}
);
layerId = "0B1DFD06-3317-40CA-B510-4969A0718C16";
paths = (
{
closed = 1;
nodes = (
"154 0 LINE",
"154 683 LINE",
"100 683 LINE",
"100 0 LINE"
);
}
);
width = 254;
},
{
anchors = (
{
name = bottom;
position = "{164, 0}";
},
{
name = center;
position = "{354, 246}";
},
{
name = top;
position = "{164, 683}";
},
{
name = topright;
position = "{289, 683}";
}
);
layerId = "B1D894FD-A198-4769-A706-4BE987327F96";
paths = (
{
closed = 1;
nodes = (
"238 0 LINE",
"238 683 LINE",
"90 683 LINE",
"90 0 LINE"
);
}
);
width = 328;
},
{
anchors = (
{
name = bottom;
position = "{142, 0}";
},
{
name = center;
position = "{283, 245}";
},
{
name = top;
position = "{142, 683}";
},
{
name = topright;
position = "{237, 683}";
}
);
layerId = "BE5CE17C-12A9-439B-ACA7-F5E3A6230453";
paths = (
{
closed = 1;
nodes = (
"188 0 LINE",
"188 683 LINE",
"96 683 LINE",
"96 0 LINE"
);
}
);
width = 284;
},
{
anchors = (
{
name = bottom;
position = "{121, 0}";
},
{
name = center;
position = "{354, 246}";
},
{
name = top;
position = "{241, 683}";
},
{
name = topright;
position = "{366, 683}";
}
);
layerId = "536A25D8-98D8-4772-902A-7D06861A7581";
paths = (
{
closed = 1;
nodes = (
"195 0 LINE",
"315 683 LINE",
"167 683 LINE",
"47 0 LINE"
);
}
);
width = 328;
},
{
anchors = (
{
name = bottom;
position = "{99, 0}";
},
{
name = center;
position = "{283, 245}";
},
{
name = top;
position = "{219, 683}";
},
{
name = topright;
position = "{314, 683}";
}
);
layerId = "31528353-E0C9-4B78-80EF-CA052B4026B6";
paths = (
{
closed = 1;
nodes = (
"145 0 LINE",
"265 683 LINE",
"173 683 LINE",
"53 0 LINE"
);
}
);
width = 284;
},
{
anchors = (
{
name = bottom;
position = "{84, 0}";
},
{
name = center;
position = "{235, 245}";
},
{
name = top;
position = "{204, 683}";
},
{
name = topright;
position = "{280, 683}";
}
);
layerId = "D606CACE-2ACC-4371-B5A0-4D0D9ADC55EB";
paths = (
{
closed = 1;
nodes = (
"111 0 LINE",
"231 683 LINE",
"177 683 LINE",
"57 0 LINE"
);
}
);
width = 254;
}
);
note = l;
unicode = 006C;
},
{
glyphname = m;
lastChange = "2018-06-30 15:09:54 +0000";
layers = (
{
anchors = (
{
name = bottom;
position = "{464, 0}";
},
{
name = top;
position = "{464, 490}";
}
);
layerId = "0B1DFD06-3317-40CA-B510-4969A0718C16";
paths = (
{
closed = 1;
nodes = (
"124 0 LINE",
"124 279 LINE SMOOTH",
"124 391 OFFCURVE",
"190 466 OFFCURVE",
"288 466 CURVE SMOOTH",
"386 466 OFFCURVE",
"442 400 OFFCURVE",
"442 283 CURVE SMOOTH",
"442 0 LINE",
"496 0 LINE",
"496 247 LINE SMOOTH",
"496 379 OFFCURVE",
"563 466 OFFCURVE",
"665 466 CURVE SMOOTH",
"753 466 OFFCURVE",
"814 409 OFFCURVE",
"814 327 CURVE SMOOTH",
"814 0 LINE",
"868 0 LINE",
"868 318 LINE SMOOTH",
"868 432 OFFCURVE",
"796 500 OFFCURVE",
"676 500 CURVE SMOOTH",
"581 500 OFFCURVE",
"515 456 OFFCURVE",
"485 375 CURVE",
"460 457 OFFCURVE",
"397 500 OFFCURVE",
"304 500 CURVE SMOOTH",
"221 500 OFFCURVE",
"156 464 OFFCURVE",
"123 400 CURVE",
"123 490 LINE",
"70 490 LINE",
"70 0 LINE"
);
}
);
width = 928;
},
{
anchors = (
{
name = bottom;
position = "{496, 0}";
},
{
name = top;
position = "{496, 490}";
}
);
layerId = "B1D894FD-A198-4769-A706-4BE987327F96";
paths = (
{
closed = 1;
nodes = (
"218 0 LINE",
"218 278 LINE SMOOTH",
"218 388 OFFCURVE",
"257 448 OFFCURVE",
"328 448 CURVE SMOOTH",
"393 448 OFFCURVE",
"430 390 OFFCURVE",
"430 282 CURVE SMOOTH",
"430 0 LINE",
"574 0 LINE",
"574 247 LINE SMOOTH",
"574 378 OFFCURVE",
"616 448 OFFCURVE",
"690 448 CURVE SMOOTH",
"752 448 OFFCURVE",
"786 405 OFFCURVE",
"786 324 CURVE SMOOTH",
"786 0 LINE",
"934 0 LINE",
"934 315 LINE SMOOTH",
"934 435 OFFCURVE",
"868 500 OFFCURVE",
"726 500 CURVE SMOOTH",
"657 500 OFFCURVE",
"592 473 OFFCURVE",
"561 395 CURVE",
"535 459 OFFCURVE",
"476 500 OFFCURVE",
"374 500 CURVE SMOOTH",
"301 500 OFFCURVE",
"239 466 OFFCURVE",
"217 417 CURVE",
"217 490 LINE",
"70 490 LINE",
"70 0 LINE"
);
}
);
width = 994;
},
{
anchors = (
{
name = bottom;
position = "{477, 0}";
},
{
name = top;
position = "{477, 490}";
}
);
layerId = "BE5CE17C-12A9-439B-ACA7-F5E3A6230453";
paths = (
{
closed = 1;
nodes = (
"162 0 LINE",
"162 279 LINE SMOOTH",
"162 390 OFFCURVE",
"217 459 OFFCURVE",
"304 459 CURVE SMOOTH",
"389 459 OFFCURVE",
"437 396 OFFCURVE",
"437 283 CURVE SMOOTH",
"437 0 LINE",
"527 0 LINE",
"527 247 LINE SMOOTH",
"527 379 OFFCURVE",
"584 459 OFFCURVE",
"675 459 CURVE SMOOTH",
"752 459 OFFCURVE",
"802 407 OFFCURVE",
"802 326 CURVE SMOOTH",
"802 0 LINE",
"894 0 LINE",
"894 317 LINE SMOOTH",
"894 433 OFFCURVE",
"825 500 OFFCURVE",
"696 500 CURVE SMOOTH",
"611 500 OFFCURVE",
"546 463 OFFCURVE",
"515 383 CURVE",
"490 458 OFFCURVE",
"428 500 OFFCURVE",
"332 500 CURVE SMOOTH",
"253 500 OFFCURVE",
"189 465 OFFCURVE",
"160 407 CURVE",
"160 490 LINE",
"70 490 LINE",
"70 0 LINE"
);
}
);
width = 954;
},
{
anchors = (
{
name = bottom;
position = "{453, 0}";
},
{
name = top;
position = "{539, 490}";
}
);
layerId = "536A25D8-98D8-4772-902A-7D06861A7581";
paths = (
{
closed = 1;
nodes = (
"175 0 LINE",
"224 278 LINE SMOOTH",
"243 388 OFFCURVE",
"294 448 OFFCURVE",
"364 448 CURVE SMOOTH",
"430 448 OFFCURVE",
"456 390 OFFCURVE",
"437 282 CURVE SMOOTH",
"387 0 LINE",
"531 0 LINE",
"575 247 LINE SMOOTH",
"598 378 OFFCURVE",
"653 448 OFFCURVE",
"726 448 CURVE SMOOTH",
"788 448 OFFCURVE",
"814 405 OFFCURVE",
"800 324 CURVE SMOOTH",
"743 0 LINE",
"891 0 LINE",
"947 315 LINE SMOOTH",
"968 435 OFFCURVE",
"913 500 OFFCURVE",
"771 500 CURVE SMOOTH",
"703 500 OFFCURVE",
"632 473 OFFCURVE",
"588 395 CURVE",
"573 459 OFFCURVE",
"521 500 OFFCURVE",
"419 500 CURVE SMOOTH",
"347 500 OFFCURVE",
"278 466 OFFCURVE",
"248 417 CURVE",
"260 490 LINE",
"113 490 LINE",
"27 0 LINE"
);
}
);
width = 994;
},
{
anchors = (
{
name = bottom;
position = "{434, 0}";
},
{
name = top;
position = "{520, 490}";
}
);
layerId = "31528353-E0C9-4B78-80EF-CA052B4026B6";
paths = (
{
closed = 1;
nodes = (
"119 0 LINE",
"168 279 LINE SMOOTH",
"187 388 OFFCURVE",
"254 459 OFFCURVE",
"342 459 CURVE SMOOTH",
"426 459 OFFCURVE",
"464 396 OFFCURVE",
"444 283 CURVE SMOOTH",
"394 0 LINE",
"484 0 LINE",
"528 247 LINE SMOOTH",
"551 377 OFFCURVE",
"621 459 OFFCURVE",
"713 459 CURVE SMOOTH",
"790 459 OFFCURVE",
"830 407 OFFCURVE",
"816 326 CURVE SMOOTH",
"759 0 LINE",
"851 0 LINE",
"907 317 LINE SMOOTH",
"927 429 OFFCURVE",
"874 500 OFFCURVE",
"741 500 CURVE SMOOTH",
"656 500 OFFCURVE",
"585 463 OFFCURVE",
"540 383 CURVE",
"528 458 OFFCURVE",
"472 500 OFFCURVE",
"377 500 CURVE SMOOTH",
"299 500 OFFCURVE",
"228 465 OFFCURVE",
"189 407 CURVE",
"203 490 LINE",
"113 490 LINE",
"27 0 LINE"
);
}
);
width = 954;
},
{
anchors = (
{
name = bottom;
position = "{421, 0}";
},
{
name = top;
position = "{507, 490}";
}
);
layerId = "D606CACE-2ACC-4371-B5A0-4D0D9ADC55EB";
paths = (
{
closed = 1;
nodes = (
"81 0 LINE",
"130 279 LINE SMOOTH",
"150 391 OFFCURVE",
"229 466 OFFCURVE",
"327 466 CURVE SMOOTH",
"424 466 OFFCURVE",
"470 400 OFFCURVE",
"449 283 CURVE SMOOTH",
"399 0 LINE",
"453 0 LINE",
"497 247 LINE SMOOTH",
"520 377 OFFCURVE",
"601 466 OFFCURVE",
"704 466 CURVE SMOOTH",
"788 466 OFFCURVE",
"844 413 OFFCURVE",
"829 327 CURVE SMOOTH",
"771 0 LINE",
"825 0 LINE",
"881 318 LINE SMOOTH",
"901 432 OFFCURVE",
"841 500 OFFCURVE",
"721 500 CURVE SMOOTH",
"627 500 OFFCURVE",
"552 456 OFFCURVE",
"508 375 CURVE",
"498 457 OFFCURVE",
"441 500 OFFCURVE",
"349 500 CURVE SMOOTH",
"266 500 OFFCURVE",
"195 464 OFFCURVE",
"151 400 CURVE",
"166 490 LINE",
"113 490 LINE",
"27 0 LINE"
);
}
);
width = 928;
}
);
leftKerningGroup = m;
note = m;
rightKerningGroup = m;
unicode = 006D;
},
{
glyphname = n;
lastChange = "2018-06-30 15:09:54 +0000";
layers = (
{
anchors = (
{
name = bottom;
position = "{294, 0}";
},
{
name = top;
position = "{294, 490}";
}
);
layerId = "0B1DFD06-3317-40CA-B510-4969A0718C16";
paths = (
{
closed = 1;
nodes = (
"124 0 LINE",
"124 279 LINE SMOOTH",
"124 391 OFFCURVE",
"200 466 OFFCURVE",
"314 466 CURVE SMOOTH",
"414 466 OFFCURVE",
"474 412 OFFCURVE",
"474 324 CURVE SMOOTH",
"474 0 LINE",
"528 0 LINE",
"528 314 LINE SMOOTH",
"528 428 OFFCURVE",
"448 500 OFFCURVE",
"320 500 CURVE SMOOTH",
"232 500 OFFCURVE",
"157 462 OFFCURVE",
"124 400 CURVE",
"124 490 LINE",
"70 490 LINE",
"70 0 LINE"
);
}
);
width = 588;
},
{
anchors = (
{
name = bottom;
position = "{332, 0}";
},
{
name = top;
position = "{332, 490}";
}
);
layerId = "B1D894FD-A198-4769-A706-4BE987327F96";
paths = (
{
closed = 1;
nodes = (
"218 0 LINE",
"218 278 LINE SMOOTH",
"218 382 OFFCURVE",
"269 448 OFFCURVE",
"352 448 CURVE SMOOTH",
"423 448 OFFCURVE",
"458 405 OFFCURVE",
"458 321 CURVE SMOOTH",
"458 0 LINE",
"606 0 LINE",
"606 312 LINE SMOOTH",
"606 429 OFFCURVE",
"526 500 OFFCURVE",
"395 500 CURVE SMOOTH",
"316 500 OFFCURVE",
"248 465 OFFCURVE",
"218 409 CURVE",
"218 490 LINE",
"70 490 LINE",
"70 0 LINE"
);
}
);
width = 662;
},
{
anchors = (
{
name = bottom;
position = "{309, 0}";
},
{
name = top;
position = "{309, 490}";
}
);
layerId = "BE5CE17C-12A9-439B-ACA7-F5E3A6230453";
paths = (
{
closed = 1;
nodes = (
"162 0 LINE",
"162 279 LINE SMOOTH",
"162 387 OFFCURVE",
"228 459 OFFCURVE",
"329 459 CURVE SMOOTH",
"418 459 OFFCURVE",
"467 409 OFFCURVE",
"467 323 CURVE SMOOTH",
"467 0 LINE",
"559 0 LINE",
"559 313 LINE SMOOTH",
"559 428 OFFCURVE",
"479 500 OFFCURVE",
"350 500 CURVE SMOOTH",
"266 500 OFFCURVE",
"194 463 OFFCURVE",
"162 404 CURVE",
"162 490 LINE",
"70 490 LINE",
"70 0 LINE"
);
}
);
width = 619;
},
{
anchors = (
{
name = bottom;
position = "{289, 0}";
},
{
name = top;
position = "{375, 490}";
}
);
layerId = "536A25D8-98D8-4772-902A-7D06861A7581";
paths = (
{
closed = 1;
nodes = (
"175 0 LINE",
"224 278 LINE SMOOTH",
"242 382 OFFCURVE",
"306 448 OFFCURVE",
"388 448 CURVE SMOOTH",
"458 448 OFFCURVE",
"487 405 OFFCURVE",
"472 321 CURVE SMOOTH",
"415 0 LINE",
"563 0 LINE",
"618 312 LINE SMOOTH",
"639 429 OFFCURVE",
"570 500 OFFCURVE",
"440 500 CURVE SMOOTH",
"362 500 OFFCURVE",
"287 465 OFFCURVE",
"247 409 CURVE",
"261 490 LINE",
"113 490 LINE",
"27 0 LINE"
);
}
);
width = 662;
},
{
anchors = (
{
name = bottom;
position = "{266, 0}";
},
{
name = top;
position = "{352, 490}";
}
);
layerId = "31528353-E0C9-4B78-80EF-CA052B4026B6";
paths = (
{
closed = 1;
nodes = (
"119 0 LINE",
"168 279 LINE SMOOTH",
"187 387 OFFCURVE",
"266 459 OFFCURVE",
"367 459 CURVE SMOOTH",
"456 459 OFFCURVE",
"496 409 OFFCURVE",
"481 323 CURVE SMOOTH",
"424 0 LINE",
"516 0 LINE",
"571 313 LINE SMOOTH",
"591 428 OFFCURVE",
"524 500 OFFCURVE",
"395 500 CURVE SMOOTH",
"311 500 OFFCURVE",
"233 463 OFFCURVE",
"190 404 CURVE",
"205 490 LINE",
"113 490 LINE",
"27 0 LINE"
);
}
);
width = 619;
},
{
anchors = (
{
name = bottom;
position = "{251, 0}";
},
{
name = top;
position = "{337, 490}";
}
);
layerId = "D606CACE-2ACC-4371-B5A0-4D0D9ADC55EB";
paths = (
{
closed = 1;
nodes = (
"81 0 LINE",
"130 279 LINE SMOOTH",
"150 391 OFFCURVE",
"239 466 OFFCURVE",
"353 466 CURVE SMOOTH",
"457 466 OFFCURVE",
"503 408 OFFCURVE",
"488 324 CURVE SMOOTH",
"431 0 LINE",
"485 0 LINE",
"540 314 LINE SMOOTH",
"560 428 OFFCURVE",
"493 500 OFFCURVE",
"365 500 CURVE SMOOTH",
"280 500 OFFCURVE",
"197 464 OFFCURVE",
"152 400 CURVE",
"167 490 LINE",
"113 490 LINE",
"27 0 LINE"
);
}
);
width = 588;
}
);
leftKerningGroup = m;
note = n;
rightKerningGroup = m;
unicode = 006E;
},
{
glyphname = o;
lastChange = "2018-06-30 16:08:00 +0000";
layers = (
{
anchors = (
{
name = bottom;
position = "{318, 0}";
},
{
name = center;
position = "{318, 245}";
},
{
name = ogonek;
position = "{350, 10}";
},
{
name = top;
position = "{318, 490}";
},
{
name = topright;
position = "{546, 325}";
}
);
layerId = "0B1DFD06-3317-40CA-B510-4969A0718C16";
paths = (
{
closed = 1;
nodes = (
"478 -10 OFFCURVE",
"586 93 OFFCURVE",
"586 245 CURVE SMOOTH",
"586 397 OFFCURVE",
"478 500 OFFCURVE",
"318 500 CURVE SMOOTH",
"158 500 OFFCURVE",
"50 397 OFFCURVE",
"50 245 CURVE SMOOTH",
"50 93 OFFCURVE",
"158 -10 OFFCURVE",
"318 -10 CURVE SMOOTH"
);
},
{
closed = 1;
nodes = (
"186 24 OFFCURVE",
"105 108 OFFCURVE",
"105 245 CURVE SMOOTH",
"105 382 OFFCURVE",
"186 466 OFFCURVE",
"318 466 CURVE SMOOTH",
"450 466 OFFCURVE",
"531 382 OFFCURVE",
"531 245 CURVE SMOOTH",
"531 108 OFFCURVE",
"450 24 OFFCURVE",
"318 24 CURVE SMOOTH"
);
}
);
width = 636;
},
{
anchors = (
{
name = bottom;
position = "{354, 0}";
},
{
name = center;
position = "{354, 245}";
},
{
name = ogonek;
position = "{388, 10}";
},
{
name = top;
position = "{354, 490}";
},
{
name = topright;
position = "{575, 325}";
}
);
layerId = "B1D894FD-A198-4769-A706-4BE987327F96";
paths = (
{
closed = 1;
nodes = (
"544 -10 OFFCURVE",
"660 87 OFFCURVE",
"660 245 CURVE SMOOTH",
"660 403 OFFCURVE",
"544 500 OFFCURVE",
"354 500 CURVE SMOOTH",
"164 500 OFFCURVE",
"48 403 OFFCURVE",
"48 245 CURVE SMOOTH",
"48 87 OFFCURVE",
"164 -10 OFFCURVE",
"354 -10 CURVE SMOOTH"
);
},
{
closed = 1;
nodes = (
"257 42 OFFCURVE",
"197 119 OFFCURVE",
"197 245 CURVE SMOOTH",
"197 371 OFFCURVE",
"257 448 OFFCURVE",
"354 448 CURVE SMOOTH",
"451 448 OFFCURVE",
"511 371 OFFCURVE",
"511 245 CURVE SMOOTH",
"511 119 OFFCURVE",
"451 42 OFFCURVE",
"354 42 CURVE SMOOTH"
);
}
);
width = 708;
},
{
anchors = (
{
name = bottom;
position = "{332, 0}";
},
{
name = center;
position = "{332, 245}";
},
{
name = ogonek;
position = "{365, 10}";
},
{
name = top;
position = "{332, 490}";
},
{
name = topright;
position = "{558, 325}";
}
);
layerId = "BE5CE17C-12A9-439B-ACA7-F5E3A6230453";
paths = (
{
closed = 1;
nodes = (
"504 -10 OFFCURVE",
"616 91 OFFCURVE",
"616 245 CURVE SMOOTH",
"616 399 OFFCURVE",
"504 500 OFFCURVE",
"332 500 CURVE SMOOTH",
"160 500 OFFCURVE",
"49 399 OFFCURVE",
"49 245 CURVE SMOOTH",
"49 91 OFFCURVE",
"160 -10 OFFCURVE",
"332 -10 CURVE SMOOTH"
);
},
{
closed = 1;
nodes = (
"214 31 OFFCURVE",
"142 112 OFFCURVE",
"142 245 CURVE SMOOTH",
"142 378 OFFCURVE",
"214 459 OFFCURVE",
"332 459 CURVE SMOOTH",
"450 459 OFFCURVE",
"523 378 OFFCURVE",
"523 245 CURVE SMOOTH",
"523 112 OFFCURVE",
"450 31 OFFCURVE",
"332 31 CURVE SMOOTH"
);
}
);
width = 665;
},
{
anchors = (
{
name = bottom;
position = "{311, 0}";
},
{
name = center;
position = "{355, 245}";
},
{
name = ogonek;
position = "{347, 10}";
},
{
name = top;
position = "{398, 490}";
},
{
name = topright;
position = "{590, 325}";
}
);
layerId = "536A25D8-98D8-4772-902A-7D06861A7581";
paths = (
{
closed = 1;
nodes = (
"524 -10 OFFCURVE",
"665 115 OFFCURVE",
"665 296 CURVE SMOOTH",
"665 423 OFFCURVE",
"563 500 OFFCURVE",
"395 500 CURVE SMOOTH",
"185 500 OFFCURVE",
"44 375 OFFCURVE",
"44 194 CURVE SMOOTH",
"44 67 OFFCURVE",
"146 -10 OFFCURVE",
"315 -10 CURVE SMOOTH"
);
},
{
closed = 1;
nodes = (
"238 42 OFFCURVE",
"192 96 OFFCURVE",
"192 187 CURVE SMOOTH",
"192 334 OFFCURVE",
"279 448 OFFCURVE",
"390 448 CURVE SMOOTH",
"471 448 OFFCURVE",
"517 394 OFFCURVE",
"517 303 CURVE SMOOTH",
"517 157 OFFCURVE",
"431 42 OFFCURVE",
"319 42 CURVE SMOOTH"
);
}
);
width = 708;
},
{
anchors = (
{
name = bottom;
position = "{289, 0}";
},
{
name = center;
position = "{333, 245}";
},
{
name = ogonek;
position = "{324, 10}";
},
{
name = top;
position = "{376, 490}";
},
{
name = topright;
position = "{573, 325}";
}
);
layerId = "31528353-E0C9-4B78-80EF-CA052B4026B6";
paths = (
{
closed = 1;
nodes = (
"484 -10 OFFCURVE",
"621 121 OFFCURVE",
"621 296 CURVE SMOOTH",
"621 420 OFFCURVE",
"525 500 OFFCURVE",
"373 500 CURVE SMOOTH",
"183 500 OFFCURVE",
"45 370 OFFCURVE",
"45 194 CURVE SMOOTH",
"45 69 OFFCURVE",
"141 -10 OFFCURVE",
"293 -10 CURVE SMOOTH"
);
},
{
closed = 1;
nodes = (
"195 31 OFFCURVE",
"138 90 OFFCURVE",
"138 190 CURVE SMOOTH",
"138 345 OFFCURVE",
"237 459 OFFCURVE",
"370 459 CURVE SMOOTH",
"471 459 OFFCURVE",
"529 400 OFFCURVE",
"529 300 CURVE SMOOTH",
"529 145 OFFCURVE",
"429 31 OFFCURVE",
"295 31 CURVE SMOOTH"
);
}
);
width = 665;
},
{
anchors = (
{
name = bottom;
position = "{275, 0}";
},
{
name = center;
position = "{319, 245}";
},
{
name = ogonek;
position = "{309, 10}";
},
{
name = top;
position = "{362, 490}";
},
{
name = topright;
position = "{561, 325}";
}
);
layerId = "D606CACE-2ACC-4371-B5A0-4D0D9ADC55EB";
paths = (
{
closed = 1;
nodes = (
"457 -10 OFFCURVE",
"591 124 OFFCURVE",
"591 297 CURVE SMOOTH",
"591 419 OFFCURVE",
"500 500 OFFCURVE",
"359 500 CURVE SMOOTH",
"180 500 OFFCURVE",
"46 366 OFFCURVE",
"46 193 CURVE SMOOTH",
"46 70 OFFCURVE",
"138 -10 OFFCURVE",
"279 -10 CURVE SMOOTH"
);
},
{
closed = 1;
nodes = (
"166 24 OFFCURVE",
"101 87 OFFCURVE",
"101 192 CURVE SMOOTH",
"101 351 OFFCURVE",
"209 466 OFFCURVE",
"358 466 CURVE SMOOTH",
"472 466 OFFCURVE",
"537 403 OFFCURVE",
"537 298 CURVE SMOOTH",
"537 139 OFFCURVE",
"428 24 OFFCURVE",
"280 24 CURVE SMOOTH"
);
}
);
width = 636;
}
);
leftKerningGroup = o;
note = o;
rightKerningGroup = o;
unicode = 006F;
},
{
glyphname = p;
lastChange = "2018-06-30 15:09:54 +0000";
layers = (
{
anchors = (
{
name = bottom;
position = "{315, -190}";
},
{
name = top;
position = "{315, 490}";
}
);
background = {
paths = (
{
closed = 1;
nodes = (
"124 -193 LINE",
"124 116 LINE",
"161 47 OFFCURVE",
"237 -10 OFFCURVE",
"350 -10 CURVE SMOOTH",
"506 -10 OFFCURVE",
"610 92 OFFCURVE",
"610 249 CURVE SMOOTH",
"610 404 OFFCURVE",
"508 500 OFFCURVE",
"354 500 CURVE SMOOTH",
"245 500 OFFCURVE",
"167 452 OFFCURVE",
"123 383 CURVE",
"112 490 LINE",
"70 490 LINE",
"70 -193 LINE"
);
},
{
closed = 1;
nodes = (
"220 24 OFFCURVE",
"124 121 OFFCURVE",
"124 251 CURVE SMOOTH",
"124 380 OFFCURVE",
"220 466 OFFCURVE",
"340 466 CURVE SMOOTH",
"460 466 OFFCURVE",
"556 381 OFFCURVE",
"556 251 CURVE SMOOTH",
"556 120 OFFCURVE",
"460 24 OFFCURVE",
"340 24 CURVE SMOOTH"
);
}
);
};
layerId = "0B1DFD06-3317-40CA-B510-4969A0718C16";
paths = (
{
closed = 1;
nodes = (
"124 -190 LINE",
"124 103 LINE",
"165 30 OFFCURVE",
"241 -10 OFFCURVE",
"337 -10 CURVE SMOOTH",
"488 -10 OFFCURVE",
"580 86 OFFCURVE",
"580 244 CURVE SMOOTH",
"580 403 OFFCURVE",
"488 500 OFFCURVE",
"338 500 CURVE SMOOTH",
"242 500 OFFCURVE",
"162 458 OFFCURVE",
"124 389 CURVE",
"124 490 LINE",
"70 490 LINE",
"70 -190 LINE"
);
},
{
closed = 1;
nodes = (
"206 24 OFFCURVE",
"124 113 OFFCURVE",
"124 243 CURVE SMOOTH",
"124 375 OFFCURVE",
"208 466 OFFCURVE",
"329 466 CURVE SMOOTH",
"447 466 OFFCURVE",
"526 378 OFFCURVE",
"526 247 CURVE SMOOTH",
"526 114 OFFCURVE",
"445 24 OFFCURVE",
"326 24 CURVE SMOOTH"
);
}
);
width = 630;
},
{
anchors = (
{
name = bottom;
position = "{351, -190}";
},
{
name = top;
position = "{351, 490}";
}
);
background = {
paths = (
{
closed = 1;
nodes = (
"124 -193 LINE",
"124 116 LINE",
"161 47 OFFCURVE",
"237 -10 OFFCURVE",
"350 -10 CURVE SMOOTH",
"506 -10 OFFCURVE",
"610 92 OFFCURVE",
"610 249 CURVE SMOOTH",
"610 404 OFFCURVE",
"508 500 OFFCURVE",
"354 500 CURVE SMOOTH",
"245 500 OFFCURVE",
"167 452 OFFCURVE",
"123 383 CURVE",
"112 490 LINE",
"70 490 LINE",
"70 -193 LINE"
);
},
{
closed = 1;
nodes = (
"220 24 OFFCURVE",
"124 121 OFFCURVE",
"124 251 CURVE SMOOTH",
"124 380 OFFCURVE",
"220 466 OFFCURVE",
"340 466 CURVE SMOOTH",
"460 466 OFFCURVE",
"556 381 OFFCURVE",
"556 251 CURVE SMOOTH",
"556 120 OFFCURVE",
"460 24 OFFCURVE",
"340 24 CURVE SMOOTH"
);
}
);
};
layerId = "B1D894FD-A198-4769-A706-4BE987327F96";
paths = (
{
closed = 1;
nodes = (
"216 -190 LINE",
"216 83 LINE",
"251 23 OFFCURVE",
"311 -10 OFFCURVE",
"395 -10 CURVE SMOOTH",
"552 -10 OFFCURVE",
"654 89 OFFCURVE",
"654 251 CURVE SMOOTH",
"654 405 OFFCURVE",
"559 500 OFFCURVE",
"393 500 CURVE SMOOTH",
"315 500 OFFCURVE",
"253 466 OFFCURVE",
"216 415 CURVE",
"216 490 LINE",
"68 490 LINE",
"68 -190 LINE"
);
},
{
closed = 1;
nodes = (
"267 38 OFFCURVE",
"216 116 OFFCURVE",
"216 245 CURVE SMOOTH",
"216 370 OFFCURVE",
"272 450 OFFCURVE",
"362 450 CURVE SMOOTH",
"452 450 OFFCURVE",
"506 382 OFFCURVE",
"506 253 CURVE SMOOTH",
"506 124 OFFCURVE",
"450 38 OFFCURVE",
"359 38 CURVE SMOOTH"
);
}
);
width = 702;
},
{
anchors = (
{
name = bottom;
position = "{329, -190}";
},
{
name = top;
position = "{329, 490}";
}
);
layerId = "BE5CE17C-12A9-439B-ACA7-F5E3A6230453";
paths = (
{
closed = 1;
nodes = (
"161 -190 LINE",
"161 95 LINE",
"199 27 OFFCURVE",
"269 -10 OFFCURVE",
"360 -10 CURVE SMOOTH",
"514 -10 OFFCURVE",
"610 87 OFFCURVE",
"610 247 CURVE SMOOTH",
"610 404 OFFCURVE",
"516 500 OFFCURVE",
"360 500 CURVE SMOOTH",
"271 500 OFFCURVE",
"198 461 OFFCURVE",
"161 399 CURVE",
"161 490 LINE",
"69 490 LINE",
"69 -190 LINE"
);
},
{
closed = 1;
nodes = (
"230 30 OFFCURVE",
"161 114 OFFCURVE",
"161 244 CURVE SMOOTH",
"161 373 OFFCURVE",
"234 460 OFFCURVE",
"342 460 CURVE SMOOTH",
"449 460 OFFCURVE",
"518 380 OFFCURVE",
"518 249 CURVE SMOOTH",
"518 118 OFFCURVE",
"447 30 OFFCURVE",
"339 30 CURVE SMOOTH"
);
}
);
width = 659;
},
{
anchors = (
{
name = bottom;
position = "{274, -190}";
},
{
name = top;
position = "{394, 490}";
}
);
background = {
paths = (
{
closed = 1;
nodes = (
"124 -193 LINE",
"124 116 LINE",
"161 47 OFFCURVE",
"237 -10 OFFCURVE",
"350 -10 CURVE SMOOTH",
"506 -10 OFFCURVE",
"610 92 OFFCURVE",
"610 249 CURVE SMOOTH",
"610 404 OFFCURVE",
"508 500 OFFCURVE",
"354 500 CURVE SMOOTH",
"245 500 OFFCURVE",
"167 452 OFFCURVE",
"123 383 CURVE",
"112 490 LINE",
"70 490 LINE",
"70 -193 LINE"
);
},
{
closed = 1;
nodes = (
"220 24 OFFCURVE",
"124 121 OFFCURVE",
"124 251 CURVE SMOOTH",
"124 380 OFFCURVE",
"220 466 OFFCURVE",
"340 466 CURVE SMOOTH",
"460 466 OFFCURVE",
"556 381 OFFCURVE",
"556 251 CURVE SMOOTH",
"556 120 OFFCURVE",
"460 24 OFFCURVE",
"340 24 CURVE SMOOTH"
);
}
);
};
layerId = "536A25D8-98D8-4772-902A-7D06861A7581";
paths = (
{
closed = 1;
nodes = (
"139 -190 LINE",
"187 83 LINE",
"212 23 OFFCURVE",
"266 -10 OFFCURVE",
"350 -10 CURVE SMOOTH",
"527 -10 OFFCURVE",
"660 126 OFFCURVE",
"660 308 CURVE SMOOTH",
"660 428 OFFCURVE",
"582 500 OFFCURVE",
"438 500 CURVE SMOOTH",
"360 500 OFFCURVE",
"292 466 OFFCURVE",
"246 415 CURVE",
"259 490 LINE",
"111 490 LINE",
"-9 -190 LINE"
);
},
{
closed = 1;
nodes = (
"248 38 OFFCURVE",
"209 89 OFFCURVE",
"209 177 CURVE SMOOTH",
"209 328 OFFCURVE",
"292 450 OFFCURVE",
"398 450 CURVE SMOOTH",
"472 450 OFFCURVE",
"513 403 OFFCURVE",
"513 317 CURVE SMOOTH",
"513 165 OFFCURVE",
"426 38 OFFCURVE",
"322 38 CURVE SMOOTH"
);
}
);
width = 702;
},
{
anchors = (
{
name = bottom;
position = "{252, -190}";
},
{
name = top;
position = "{372, 490}";
}
);
layerId = "31528353-E0C9-4B78-80EF-CA052B4026B6";
paths = (
{
closed = 1;
nodes = (
"84 -190 LINE",
"134 95 LINE",
"160 27 OFFCURVE",
"225 -10 OFFCURVE",
"315 -10 CURVE SMOOTH",
"489 -10 OFFCURVE",
"616 124 OFFCURVE",
"616 307 CURVE SMOOTH",
"616 428 OFFCURVE",
"539 500 OFFCURVE",
"405 500 CURVE SMOOTH",
"316 500 OFFCURVE",
"236 461 OFFCURVE",
"188 399 CURVE",
"204 490 LINE",
"112 490 LINE",
"-8 -190 LINE"
);
},
{
closed = 1;
nodes = (
"208 30 OFFCURVE",
"155 91 OFFCURVE",
"155 188 CURVE SMOOTH",
"155 339 OFFCURVE",
"256 460 OFFCURVE",
"380 460 CURVE SMOOTH",
"470 460 OFFCURVE",
"524 402 OFFCURVE",
"524 305 CURVE SMOOTH",
"524 153 OFFCURVE",
"424 30 OFFCURVE",
"301 30 CURVE SMOOTH"
);
}
);
width = 659;
},
{
anchors = (
{
name = bottom;
position = "{238, -190}";
},
{
name = top;
position = "{358, 490}";
}
);
background = {
paths = (
{
closed = 1;
nodes = (
"124 -193 LINE",
"124 116 LINE",
"161 47 OFFCURVE",
"237 -10 OFFCURVE",
"350 -10 CURVE SMOOTH",
"506 -10 OFFCURVE",
"610 92 OFFCURVE",
"610 249 CURVE SMOOTH",
"610 404 OFFCURVE",
"508 500 OFFCURVE",
"354 500 CURVE SMOOTH",
"245 500 OFFCURVE",
"167 452 OFFCURVE",
"123 383 CURVE",
"112 490 LINE",
"70 490 LINE",
"70 -193 LINE"
);
},
{
closed = 1;
nodes = (
"220 24 OFFCURVE",
"124 121 OFFCURVE",
"124 251 CURVE SMOOTH",
"124 380 OFFCURVE",
"220 466 OFFCURVE",
"340 466 CURVE SMOOTH",
"460 466 OFFCURVE",
"556 381 OFFCURVE",
"556 251 CURVE SMOOTH",
"556 120 OFFCURVE",
"460 24 OFFCURVE",
"340 24 CURVE SMOOTH"
);
}
);
};
layerId = "D606CACE-2ACC-4371-B5A0-4D0D9ADC55EB";
paths = (
{
closed = 1;
nodes = (
"47 -190 LINE",
"99 103 LINE",
"127 30 OFFCURVE",
"196 -10 OFFCURVE",
"292 -10 CURVE SMOOTH",
"462 -10 OFFCURVE",
"585 123 OFFCURVE",
"585 307 CURVE SMOOTH",
"585 428 OFFCURVE",
"511 500 OFFCURVE",
"383 500 CURVE SMOOTH",
"288 500 OFFCURVE",
"199 458 OFFCURVE",
"149 389 CURVE",
"167 490 LINE",
"113 490 LINE",
"-7 -190 LINE"
);
},
{
closed = 1;
nodes = (
"183 24 OFFCURVE",
"119 91 OFFCURVE",
"119 194 CURVE SMOOTH",
"119 344 OFFCURVE",
"231 466 OFFCURVE",
"368 466 CURVE SMOOTH",
"469 466 OFFCURVE",
"531 400 OFFCURVE",
"531 298 CURVE SMOOTH",
"531 147 OFFCURVE",
"422 24 OFFCURVE",
"287 24 CURVE SMOOTH"
);
}
);
width = 630;
}
);
note = p;
rightKerningGroup = p;
unicode = 0070;
},
{
glyphname = q;
lastChange = "2018-06-30 15:09:54 +0000";
layers = (
{
anchors = (
{
name = bottom;
position = "{315, -190}";
},
{
name = top;
position = "{315, 490}";
}
);
layerId = "0B1DFD06-3317-40CA-B510-4969A0718C16";
paths = (
{
closed = 1;
nodes = (
"560 -190 LINE",
"560 490 LINE",
"506 490 LINE",
"506 389 LINE",
"468 458 OFFCURVE",
"388 500 OFFCURVE",
"292 500 CURVE SMOOTH",
"142 500 OFFCURVE",
"50 403 OFFCURVE",
"50 244 CURVE SMOOTH",
"50 86 OFFCURVE",
"142 -10 OFFCURVE",
"293 -10 CURVE SMOOTH",
"389 -10 OFFCURVE",
"465 30 OFFCURVE",
"506 103 CURVE",
"506 -190 LINE"
);
},
{
closed = 1;
nodes = (
"185 24 OFFCURVE",
"104 114 OFFCURVE",
"104 247 CURVE SMOOTH",
"104 378 OFFCURVE",
"183 466 OFFCURVE",
"301 466 CURVE SMOOTH",
"422 466 OFFCURVE",
"506 375 OFFCURVE",
"506 243 CURVE SMOOTH",
"506 113 OFFCURVE",
"424 24 OFFCURVE",
"304 24 CURVE SMOOTH"
);
}
);
width = 630;
},
{
anchors = (
{
name = bottom;
position = "{351, -190}";
},
{
name = top;
position = "{351, 490}";
}
);
layerId = "B1D894FD-A198-4769-A706-4BE987327F96";
paths = (
{
closed = 1;
nodes = (
"634 -190 LINE",
"634 490 LINE",
"486 490 LINE",
"486 415 LINE",
"449 466 OFFCURVE",
"387 500 OFFCURVE",
"309 500 CURVE SMOOTH",
"143 500 OFFCURVE",
"48 405 OFFCURVE",
"48 251 CURVE SMOOTH",
"48 89 OFFCURVE",
"150 -10 OFFCURVE",
"307 -10 CURVE SMOOTH",
"391 -10 OFFCURVE",
"451 23 OFFCURVE",
"486 83 CURVE",
"486 -190 LINE"
);
},
{
closed = 1;
nodes = (
"252 38 OFFCURVE",
"196 124 OFFCURVE",
"196 253 CURVE SMOOTH",
"196 382 OFFCURVE",
"250 450 OFFCURVE",
"340 450 CURVE SMOOTH",
"430 450 OFFCURVE",
"486 370 OFFCURVE",
"486 245 CURVE SMOOTH",
"486 116 OFFCURVE",
"435 38 OFFCURVE",
"343 38 CURVE SMOOTH"
);
}
);
width = 702;
},
{
anchors = (
{
name = bottom;
position = "{329, -190}";
},
{
name = top;
position = "{329, 490}";
}
);
layerId = "BE5CE17C-12A9-439B-ACA7-F5E3A6230453";
paths = (
{
closed = 1;
nodes = (
"590 -190 LINE",
"590 490 LINE",
"498 490 LINE",
"498 399 LINE",
"460 461 OFFCURVE",
"388 500 OFFCURVE",
"299 500 CURVE SMOOTH",
"142 500 OFFCURVE",
"49 404 OFFCURVE",
"49 247 CURVE SMOOTH",
"49 87 OFFCURVE",
"145 -10 OFFCURVE",
"299 -10 CURVE SMOOTH",
"390 -10 OFFCURVE",
"459 27 OFFCURVE",
"498 95 CURVE",
"498 -190 LINE"
);
},
{
closed = 1;
nodes = (
"212 30 OFFCURVE",
"141 118 OFFCURVE",
"141 249 CURVE SMOOTH",
"141 380 OFFCURVE",
"210 460 OFFCURVE",
"317 460 CURVE SMOOTH",
"425 460 OFFCURVE",
"498 373 OFFCURVE",
"498 244 CURVE SMOOTH",
"498 114 OFFCURVE",
"428 30 OFFCURVE",
"320 30 CURVE SMOOTH"
);
}
);
width = 659;
},
{
anchors = (
{
name = bottom;
position = "{275, -190}";
},
{
name = top;
position = "{395, 490}";
}
);
layerId = "536A25D8-98D8-4772-902A-7D06861A7581";
paths = (
{
closed = 1;
nodes = (
"558 -190 LINE",
"678 490 LINE",
"530 490 LINE",
"516 415 LINE",
"488 466 OFFCURVE",
"433 500 OFFCURVE",
"354 500 CURVE SMOOTH",
"170 500 OFFCURVE",
"44 374 OFFCURVE",
"44 191 CURVE SMOOTH",
"44 65 OFFCURVE",
"126 -10 OFFCURVE",
"262 -10 CURVE SMOOTH",
"347 -10 OFFCURVE",
"412 23 OFFCURVE",
"458 83 CURVE",
"410 -190 LINE"
);
},
{
closed = 1;
nodes = (
"233 38 OFFCURVE",
"192 95 OFFCURVE",
"192 187 CURVE SMOOTH",
"192 339 OFFCURVE",
"270 450 OFFCURVE",
"377 450 CURVE SMOOTH",
"451 450 OFFCURVE",
"492 395 OFFCURVE",
"492 307 CURVE SMOOTH",
"492 157 OFFCURVE",
"411 38 OFFCURVE",
"307 38 CURVE SMOOTH"
);
}
);
width = 702;
},
{
anchors = (
{
name = bottom;
position = "{253, -190}";
},
{
name = top;
position = "{372, 490}";
}
);
layerId = "31528353-E0C9-4B78-80EF-CA052B4026B6";
paths = (
{
closed = 1;
nodes = (
"514 -190 LINE",
"633 490 LINE",
"541 490 LINE",
"525 399 LINE",
"498 461 OFFCURVE",
"433 500 OFFCURVE",
"344 500 CURVE SMOOTH",
"169 500 OFFCURVE",
"44 370 OFFCURVE",
"44 186 CURVE SMOOTH",
"44 63 OFFCURVE",
"121 -10 OFFCURVE",
"254 -10 CURVE SMOOTH",
"345 -10 OFFCURVE",
"421 27 OFFCURVE",
"472 95 CURVE",
"422 -190 LINE"
);
},
{
closed = 1;
nodes = (
"191 30 OFFCURVE",
"137 94 OFFCURVE",
"137 193 CURVE SMOOTH",
"137 344 OFFCURVE",
"232 460 OFFCURVE",
"355 460 CURVE SMOOTH",
"448 460 OFFCURVE",
"503 395 OFFCURVE",
"503 297 CURVE SMOOTH",
"503 148 OFFCURVE",
"405 30 OFFCURVE",
"282 30 CURVE SMOOTH"
);
}
);
width = 659;
},
{
anchors = (
{
name = bottom;
position = "{238, -190}";
},
{
name = top;
position = "{358, 490}";
}
);
layerId = "D606CACE-2ACC-4371-B5A0-4D0D9ADC55EB";
paths = (
{
closed = 1;
nodes = (
"483 -190 LINE",
"603 490 LINE",
"549 490 LINE",
"531 389 LINE",
"504 461 OFFCURVE",
"429 500 OFFCURVE",
"337 500 CURVE SMOOTH",
"168 500 OFFCURVE",
"44 366 OFFCURVE",
"44 182 CURVE SMOOTH",
"44 62 OFFCURVE",
"118 -10 OFFCURVE",
"248 -10 CURVE SMOOTH",
"344 -10 OFFCURVE",
"427 30 OFFCURVE",
"481 103 CURVE",
"429 -190 LINE"
);
},
{
closed = 1;
nodes = (
"162 24 OFFCURVE",
"100 92 OFFCURVE",
"100 195 CURVE SMOOTH",
"100 346 OFFCURVE",
"206 466 OFFCURVE",
"340 466 CURVE SMOOTH",
"445 466 OFFCURVE",
"510 397 OFFCURVE",
"510 293 CURVE SMOOTH",
"510 144 OFFCURVE",
"401 24 OFFCURVE",
"265 24 CURVE SMOOTH"
);
}
);
width = 630;
}
);
leftKerningGroup = d;
note = q;
unicode = 0071;
},
{
glyphname = r;
lastChange = "2018-06-30 15:09:54 +0000";
layers = (
{
anchors = (
{
name = bottom;
position = "{103, 0}";
},
{
name = top;
position = "{189, 490}";
}
);
layerId = "0B1DFD06-3317-40CA-B510-4969A0718C16";
paths = (
{
closed = 1;
nodes = (
"124 0 LINE",
"124 255 LINE SMOOTH",
"124 376 OFFCURVE",
"181 456 OFFCURVE",
"268 456 CURVE SMOOTH",
"285 456 OFFCURVE",
"300 453 OFFCURVE",
"310 448 CURVE",
"319 496 LINE",
"310 499 OFFCURVE",
"297 500 OFFCURVE",
"285 500 CURVE SMOOTH",
"208 500 OFFCURVE",
"150 458 OFFCURVE",
"124 383 CURVE",
"124 490 LINE",
"70 490 LINE",
"70 0 LINE"
);
}
);
width = 334;
},
{
anchors = (
{
name = bottom;
position = "{135, 0}";
},
{
name = top;
position = "{230, 490}";
}
);
layerId = "B1D894FD-A198-4769-A706-4BE987327F96";
paths = (
{
closed = 1;
nodes = (
"211 0 LINE",
"211 216 LINE SMOOTH",
"211 309 OFFCURVE",
"248 417 OFFCURVE",
"355 417 CURVE SMOOTH",
"369 417 OFFCURVE",
"385 415 OFFCURVE",
"397 409 CURVE",
"406 496 LINE",
"399 498 OFFCURVE",
"387 500 OFFCURVE",
"372 500 CURVE SMOOTH",
"288 500 OFFCURVE",
"235 457 OFFCURVE",
"211 389 CURVE",
"211 490 LINE",
"63 490 LINE",
"63 0 LINE"
);
}
);
width = 406;
},
{
anchors = (
{
name = bottom;
position = "{116, 0}";
},
{
name = top;
position = "{205, 490}";
}
);
layerId = "BE5CE17C-12A9-439B-ACA7-F5E3A6230453";
paths = (
{
closed = 1;
nodes = (
"159 0 LINE",
"159 239 LINE SMOOTH",
"159 349 OFFCURVE",
"208 440 OFFCURVE",
"303 440 CURVE SMOOTH",
"319 440 OFFCURVE",
"334 438 OFFCURVE",
"345 432 CURVE",
"354 496 LINE",
"346 499 OFFCURVE",
"333 500 OFFCURVE",
"320 500 CURVE SMOOTH",
"240 500 OFFCURVE",
"184 458 OFFCURVE",
"159 385 CURVE",
"159 490 LINE",
"67 490 LINE",
"67 0 LINE"
);
}
);
width = 363;
},
{
anchors = (
{
name = bottom;
position = "{92, 0}";
},
{
name = top;
position = "{273, 490}";
}
);
layerId = "536A25D8-98D8-4772-902A-7D06861A7581";
paths = (
{
closed = 1;
nodes = (
"168 0 LINE",
"206 216 LINE SMOOTH",
"222 309 OFFCURVE",
"279 417 OFFCURVE",
"386 417 CURVE SMOOTH",
"399 417 OFFCURVE",
"415 415 OFFCURVE",
"426 409 CURVE",
"450 496 LINE",
"444 498 OFFCURVE",
"431 500 OFFCURVE",
"417 500 CURVE SMOOTH",
"333 500 OFFCURVE",
"273 457 OFFCURVE",
"237 389 CURVE",
"254 490 LINE",
"106 490 LINE",
"20 0 LINE"
);
}
);
width = 406;
},
{
anchors = (
{
name = bottom;
position = "{73, 0}";
},
{
name = top;
position = "{248, 490}";
}
);
layerId = "31528353-E0C9-4B78-80EF-CA052B4026B6";
paths = (
{
closed = 1;
nodes = (
"116 0 LINE",
"158 239 LINE SMOOTH",
"177 349 OFFCURVE",
"244 440 OFFCURVE",
"338 440 CURVE SMOOTH",
"353 440 OFFCURVE",
"368 438 OFFCURVE",
"378 432 CURVE",
"398 496 LINE",
"391 499 OFFCURVE",
"378 500 OFFCURVE",
"365 500 CURVE SMOOTH",
"285 500 OFFCURVE",
"222 458 OFFCURVE",
"184 385 CURVE",
"202 490 LINE",
"110 490 LINE",
"24 0 LINE"
);
}
);
width = 363;
},
{
anchors = (
{
name = bottom;
position = "{60, 0}";
},
{
name = top;
position = "{232, 490}";
}
);
layerId = "D606CACE-2ACC-4371-B5A0-4D0D9ADC55EB";
paths = (
{
closed = 1;
nodes = (
"81 0 LINE",
"126 255 LINE SMOOTH",
"147 376 OFFCURVE",
"219 456 OFFCURVE",
"305 456 CURVE SMOOTH",
"322 456 OFFCURVE",
"337 453 OFFCURVE",
"346 448 CURVE",
"363 496 LINE",
"355 499 OFFCURVE",
"342 500 OFFCURVE",
"330 500 CURVE SMOOTH",
"253 500 OFFCURVE",
"188 458 OFFCURVE",
"149 383 CURVE",
"167 490 LINE",
"113 490 LINE",
"27 0 LINE"
);
}
);
width = 334;
}
);
note = r;
unicode = 0072;
},
{
glyphname = s;
lastChange = "2018-06-30 16:08:46 +0000";
layers = (
{
anchors = (
{
name = bottom;
position = "{282, 0}";
},
{
name = top;
position = "{282, 490}";
}
);
layerId = "0B1DFD06-3317-40CA-B510-4969A0718C16";
paths = (
{
closed = 1;
nodes = (
"424 -10 OFFCURVE",
"514 48 OFFCURVE",
"514 136 CURVE SMOOTH",
"514 214 OFFCURVE",
"456 254 OFFCURVE",
"306 279 CURVE SMOOTH",
"156 304 OFFCURVE",
"121 321 OFFCURVE",
"121 372 CURVE SMOOTH",
"121 427 OFFCURVE",
"187 466 OFFCURVE",
"280 466 CURVE SMOOTH",
"377 466 OFFCURVE",
"447 419 OFFCURVE",
"458 347 CURVE",
"511 347 LINE",
"497 442 OFFCURVE",
"410 500 OFFCURVE",
"280 500 CURVE SMOOTH",
"151 500 OFFCURVE",
"67 448 OFFCURVE",
"67 368 CURVE SMOOTH",
"67 296 OFFCURVE",
"122 263 OFFCURVE",
"284 238 CURVE SMOOTH",
"419 217 OFFCURVE",
"460 193 OFFCURVE",
"460 135 CURVE SMOOTH",
"460 69 OFFCURVE",
"392 24 OFFCURVE",
"290 24 CURVE SMOOTH",
"186 24 OFFCURVE",
"112 71 OFFCURVE",
"103 143 CURVE",
"50 143 LINE",
"63 49 OFFCURVE",
"155 -10 OFFCURVE",
"288 -10 CURVE SMOOTH"
);
}
);
width = 564;
},
{
anchors = (
{
name = bottom;
position = "{312, 0}";
},
{
name = top;
position = "{307, 490}";
}
);
layerId = "B1D894FD-A198-4769-A706-4BE987327F96";
paths = (
{
closed = 1;
nodes = (
"483 -10 OFFCURVE",
"580 40 OFFCURVE",
"580 144 CURVE SMOOTH",
"580 231 OFFCURVE",
"502 281 OFFCURVE",
"340 309 CURVE SMOOTH",
"229 328 OFFCURVE",
"211 348 OFFCURVE",
"211 383 CURVE SMOOTH",
"211 427 OFFCURVE",
"251 448 OFFCURVE",
"322 448 CURVE SMOOTH",
"396 448 OFFCURVE",
"445 416 OFFCURVE",
"459 354 CURVE",
"569 354 LINE",
"554 450 OFFCURVE",
"461 500 OFFCURVE",
"307 500 CURVE SMOOTH",
"142 500 OFFCURVE",
"61 446 OFFCURVE",
"61 361 CURVE SMOOTH",
"61 281 OFFCURVE",
"133 237 OFFCURVE",
"303 211 CURVE SMOOTH",
"382 199 OFFCURVE",
"430 168 OFFCURVE",
"430 129 CURVE SMOOTH",
"430 75 OFFCURVE",
"382 42 OFFCURVE",
"304 42 CURVE SMOOTH",
"216 42 OFFCURVE",
"173 77 OFFCURVE",
"160 141 CURVE",
"50 141 LINE",
"74 42 OFFCURVE",
"156 -10 OFFCURVE",
"301 -10 CURVE SMOOTH"
);
}
);
width = 630;
},
{
anchors = (
{
name = bottom;
position = "{294, 0}";
},
{
name = top;
position = "{292, 490}";
}
);
layerId = "BE5CE17C-12A9-439B-ACA7-F5E3A6230453";
paths = (
{
closed = 1;
nodes = (
"448 -10 OFFCURVE",
"540 45 OFFCURVE",
"540 139 CURVE SMOOTH",
"540 221 OFFCURVE",
"474 265 OFFCURVE",
"320 291 CURVE SMOOTH",
"185 314 OFFCURVE",
"157 332 OFFCURVE",
"157 376 CURVE SMOOTH",
"157 427 OFFCURVE",
"213 459 OFFCURVE",
"297 459 CURVE SMOOTH",
"385 459 OFFCURVE",
"446 418 OFFCURVE",
"458 350 CURVE",
"534 350 LINE",
"520 445 OFFCURVE",
"430 500 OFFCURVE",
"291 500 CURVE SMOOTH",
"147 500 OFFCURVE",
"65 447 OFFCURVE",
"65 365 CURVE SMOOTH",
"65 290 OFFCURVE",
"126 254 OFFCURVE",
"292 227 CURVE SMOOTH",
"404 209 OFFCURVE",
"448 183 OFFCURVE",
"448 133 CURVE SMOOTH",
"448 71 OFFCURVE",
"388 31 OFFCURVE",
"296 31 CURVE SMOOTH",
"198 31 OFFCURVE",
"136 73 OFFCURVE",
"126 142 CURVE",
"50 142 LINE",
"67 46 OFFCURVE",
"155 -10 OFFCURVE",
"293 -10 CURVE SMOOTH"
);
}
);
width = 590;
},
{
anchors = (
{
name = bottom;
position = "{269, 0}";
},
{
name = top;
position = "{351, 490}";
}
);
layerId = "536A25D8-98D8-4772-902A-7D06861A7581";
paths = (
{
closed = 1;
nodes = (
"458 -10 OFFCURVE",
"565 49 OFFCURVE",
"565 162 CURVE SMOOTH",
"565 235 OFFCURVE",
"493 284 OFFCURVE",
"352 309 CURVE SMOOTH",
"257 326 OFFCURVE",
"234 342 OFFCURVE",
"234 371 CURVE SMOOTH",
"234 420 OFFCURVE",
"279 448 OFFCURVE",
"358 448 CURVE SMOOTH",
"434 448 OFFCURVE",
"476 414 OFFCURVE",
"479 354 CURVE",
"589 354 LINE",
"589 450 OFFCURVE",
"503 500 OFFCURVE",
"348 500 CURVE SMOOTH",
"180 500 OFFCURVE",
"80 445 OFFCURVE",
"80 346 CURVE SMOOTH",
"80 276 OFFCURVE",
"152 234 OFFCURVE",
"297 211 CURVE SMOOTH",
"369 200 OFFCURVE",
"411 172 OFFCURVE",
"411 137 CURVE SMOOTH",
"411 83 OFFCURVE",
"350 42 OFFCURVE",
"269 42 CURVE SMOOTH",
"181 42 OFFCURVE",
"144 77 OFFCURVE",
"142 141 CURVE",
"32 141 LINE",
"39 38 OFFCURVE",
"121 -10 OFFCURVE",
"260 -10 CURVE SMOOTH"
);
}
);
width = 630;
},
{
anchors = (
{
name = bottom;
position = "{251, 0}";
},
{
name = top;
position = "{335, 490}";
}
);
layerId = "31528353-E0C9-4B78-80EF-CA052B4026B6";
paths = (
{
closed = 1;
nodes = (
"421 -10 OFFCURVE",
"524 53 OFFCURVE",
"524 158 CURVE SMOOTH",
"524 225 OFFCURVE",
"465 267 OFFCURVE",
"328 291 CURVE SMOOTH",
"215 311 OFFCURVE",
"179 327 OFFCURVE",
"179 363 CURVE SMOOTH",
"179 420 OFFCURVE",
"243 459 OFFCURVE",
"335 459 CURVE SMOOTH",
"422 459 OFFCURVE",
"477 418 OFFCURVE",
"477 350 CURVE",
"553 350 LINE",
"553 445 OFFCURVE",
"471 500 OFFCURVE",
"332 500 CURVE SMOOTH",
"180 500 OFFCURVE",
"84 443 OFFCURVE",
"84 350 CURVE SMOOTH",
"84 289 OFFCURVE",
"143 251 OFFCURVE",
"289 227 CURVE SMOOTH",
"388 211 OFFCURVE",
"430 187 OFFCURVE",
"430 146 CURVE SMOOTH",
"430 80 OFFCURVE",
"357 31 OFFCURVE",
"258 31 CURVE SMOOTH",
"160 31 OFFCURVE",
"108 73 OFFCURVE",
"108 142 CURVE",
"32 142 LINE",
"32 46 OFFCURVE",
"116 -10 OFFCURVE",
"253 -10 CURVE SMOOTH"
);
}
);
width = 590;
},
{
anchors = (
{
name = bottom;
position = "{239, 0}";
},
{
name = top;
position = "{325, 490}";
}
);
layerId = "D606CACE-2ACC-4371-B5A0-4D0D9ADC55EB";
paths = (
{
closed = 1;
nodes = (
"396 -10 OFFCURVE",
"497 55 OFFCURVE",
"497 154 CURVE SMOOTH",
"497 219 OFFCURVE",
"439 257 OFFCURVE",
"312 279 CURVE SMOOTH",
"177 302 OFFCURVE",
"142 319 OFFCURVE",
"142 358 CURVE SMOOTH",
"142 420 OFFCURVE",
"217 466 OFFCURVE",
"319 466 CURVE SMOOTH",
"415 466 OFFCURVE",
"476 419 OFFCURVE",
"476 347 CURVE",
"529 347 LINE",
"529 442 OFFCURVE",
"450 500 OFFCURVE",
"321 500 CURVE SMOOTH",
"180 500 OFFCURVE",
"87 442 OFFCURVE",
"87 353 CURVE SMOOTH",
"87 296 OFFCURVE",
"137 261 OFFCURVE",
"283 238 CURVE SMOOTH",
"395 220 OFFCURVE",
"442 196 OFFCURVE",
"442 148 CURVE SMOOTH",
"442 74 OFFCURVE",
"361 24 OFFCURVE",
"251 24 CURVE SMOOTH",
"147 24 OFFCURVE",
"85 71 OFFCURVE",
"85 143 CURVE",
"32 143 LINE",
"32 49 OFFCURVE",
"116 -10 OFFCURVE",
"248 -10 CURVE SMOOTH"
);
}
);
width = 564;
}
);
leftKerningGroup = s;
note = s;
rightKerningGroup = s;
unicode = 0073;
},
{
glyphname = t;
lastChange = "2018-06-30 16:11:54 +0000";
layers = (
{
anchors = (
{
name = bottom;
position = "{218, 0}";
},
{
name = center;
position = "{133, 245}";
},
{
name = top;
position = "{150, 628}";
},
{
name = topright;
position = "{308, 490}";
}
);
layerId = "0B1DFD06-3317-40CA-B510-4969A0718C16";
paths = (
{
closed = 1;
nodes = (
"246 -10 OFFCURVE",
"271 -5 OFFCURVE",
"297 7 CURVE",
"297 43 LINE",
"274 30 OFFCURVE",
"251 24 OFFCURVE",
"229 24 CURVE SMOOTH",
"181 24 OFFCURVE",
"159 54 OFFCURVE",
"159 120 CURVE SMOOTH",
"159 456 LINE",
"287 456 LINE",
"298 490 LINE",
"159 490 LINE",
"159 628 LINE",
"141 628 LINE",
"105 490 LINE",
"28 490 LINE",
"16 456 LINE",
"105 456 LINE",
"105 137 LINE SMOOTH",
"105 34 OFFCURVE",
"139 -10 OFFCURVE",
"218 -10 CURVE SMOOTH"
);
}
);
width = 328;
},
{
anchors = (
{
name = bottom;
position = "{266, 0}";
},
{
name = center;
position = "{170, 245}";
},
{
name = top;
position = "{183, 628}";
},
{
name = topright;
position = "{378, 490}";
}
);
layerId = "B1D894FD-A198-4769-A706-4BE987327F96";
paths = (
{
closed = 1;
nodes = (
"305 -10 OFFCURVE",
"351 -3 OFFCURVE",
"381 10 CURVE",
"381 63 LINE",
"358 51 OFFCURVE",
"333 44 OFFCURVE",
"309 44 CURVE SMOOTH",
"266 44 OFFCURVE",
"243 73 OFFCURVE",
"243 127 CURVE SMOOTH",
"243 438 LINE",
"362 438 LINE",
"378 490 LINE",
"243 490 LINE",
"243 628 LINE",
"133 628 LINE",
"98 490 LINE",
"26 490 LINE",
"8 438 LINE",
"95 438 LINE",
"95 137 LINE SMOOTH",
"95 41 OFFCURVE",
"149 -10 OFFCURVE",
"249 -10 CURVE SMOOTH"
);
}
);
width = 400;
},
{
anchors = (
{
name = bottom;
position = "{237, 0}";
},
{
name = center;
position = "{147, 245}";
},
{
name = top;
position = "{163, 628}";
},
{
name = topright;
position = "{336, 490}";
}
);
layerId = "BE5CE17C-12A9-439B-ACA7-F5E3A6230453";
paths = (
{
closed = 1;
nodes = (
"270 -10 OFFCURVE",
"303 -4 OFFCURVE",
"331 8 CURVE",
"331 51 LINE",
"308 38 OFFCURVE",
"284 32 OFFCURVE",
"261 32 CURVE SMOOTH",
"215 32 OFFCURVE",
"193 62 OFFCURVE",
"193 123 CURVE SMOOTH",
"193 449 LINE",
"317 449 LINE",
"330 490 LINE",
"193 490 LINE",
"193 628 LINE",
"138 628 LINE",
"102 490 LINE",
"27 490 LINE",
"13 449 LINE",
"101 449 LINE",
"101 137 LINE SMOOTH",
"101 37 OFFCURVE",
"143 -10 OFFCURVE",
"230 -10 CURVE SMOOTH"
);
}
);
width = 357;
},
{
anchors = (
{
name = bottom;
position = "{223, 0}";
},
{
name = center;
position = "{172, 245}";
},
{
name = top;
position = "{251, 628}";
},
{
name = topright;
position = "{421, 490}";
}
);
layerId = "536A25D8-98D8-4772-902A-7D06861A7581";
paths = (
{
closed = 1;
nodes = (
"260 -10 OFFCURVE",
"307 -3 OFFCURVE",
"340 10 CURVE",
"349 63 LINE",
"324 51 OFFCURVE",
"297 44 OFFCURVE",
"274 44 CURVE SMOOTH",
"233 44 OFFCURVE",
"212 70 OFFCURVE",
"222 127 CURVE SMOOTH",
"277 438 LINE",
"396 438 LINE",
"421 490 LINE",
"286 490 LINE",
"311 628 LINE",
"201 628 LINE",
"141 490 LINE",
"69 490 LINE",
"42 438 LINE",
"129 438 LINE",
"76 137 LINE SMOOTH",
"59 41 OFFCURVE",
"105 -10 OFFCURVE",
"204 -10 CURVE SMOOTH"
);
}
);
width = 400;
},
{
anchors = (
{
name = bottom;
position = "{194, 0}";
},
{
name = center;
position = "{151, 245}";
},
{
name = top;
position = "{231, 628}";
},
{
name = topright;
position = "{379, 490}";
}
);
layerId = "31528353-E0C9-4B78-80EF-CA052B4026B6";
paths = (
{
closed = 1;
nodes = (
"226 -10 OFFCURVE",
"259 -4 OFFCURVE",
"289 8 CURVE",
"297 51 LINE",
"273 39 OFFCURVE",
"249 32 OFFCURVE",
"223 32 CURVE SMOOTH",
"178 32 OFFCURVE",
"161 62 OFFCURVE",
"172 123 CURVE SMOOTH",
"229 449 LINE",
"353 449 LINE",
"373 490 LINE",
"236 490 LINE",
"261 628 LINE",
"206 628 LINE",
"145 490 LINE",
"70 490 LINE",
"49 449 LINE",
"137 449 LINE",
"82 137 LINE SMOOTH",
"64 37 OFFCURVE",
"98 -10 OFFCURVE",
"185 -10 CURVE SMOOTH"
);
}
);
width = 357;
},
{
anchors = (
{
name = bottom;
position = "{175, 0}";
},
{
name = center;
position = "{133, 245}";
},
{
name = top;
position = "{217, 628}";
},
{
name = topright;
position = "{351, 490}";
}
);
layerId = "D606CACE-2ACC-4371-B5A0-4D0D9ADC55EB";
paths = (
{
closed = 1;
nodes = (
"201 -10 OFFCURVE",
"227 -5 OFFCURVE",
"255 7 CURVE",
"261 43 LINE",
"236 30 OFFCURVE",
"211 24 OFFCURVE",
"190 24 CURVE SMOOTH",
"142 24 OFFCURVE",
"125 54 OFFCURVE",
"137 120 CURVE SMOOTH",
"196 456 LINE",
"324 456 LINE",
"341 490 LINE",
"202 490 LINE",
"226 628 LINE",
"208 628 LINE",
"148 490 LINE",
"71 490 LINE",
"53 456 LINE",
"142 456 LINE",
"86 137 LINE SMOOTH",
"68 34 OFFCURVE",
"94 -10 OFFCURVE",
"173 -10 CURVE SMOOTH"
);
}
);
width = 328;
}
);
note = t;
unicode = 0074;
},
